<svg width="385" height="276" viewBox="0 0 385 276" fill="none" xmlns="http://www.w3.org/2000/svg">
<g clip-path="url(#clip0_1_652)">
<path opacity="0.3" d="M54.2824 140.984L0.5 149.524V275.922H384.5V0.921875L334.719 47.0399L277.095 65.4017L230.516 108.104L174.813 100.844L109.986 126.465L54.2824 140.984Z" fill="url(#paint0_linear_1_652)"/>
<path d="M0.5 149.524L54.2824 140.984L109.986 126.465L174.813 100.844L230.516 108.104L277.095 65.4017L334.719 47.0399L384.5 0.921875" stroke="#65A46F"/>
<path d="M138 39.9219V236.922" stroke="#E3E1DE" stroke-dasharray="4 4"/>
<path d="M138 1.42188V275.422" stroke="#E3E1DE" stroke-dasharray="4 4"/>
<path d="M138 120.422C141.038 120.422 143.5 117.959 143.5 114.922C143.5 111.884 141.038 109.422 138 109.422C134.962 109.422 132.5 111.884 132.5 114.922C132.5 117.959 134.962 120.422 138 120.422Z" fill="#65A46F" stroke="white" stroke-width="2"/>
<path d="M148.5 92.9219C148.5 90.7128 150.291 88.9219 152.5 88.9219H237.5C239.709 88.9219 241.5 90.7128 241.5 92.9219V137.922C241.5 140.131 239.709 141.922 237.5 141.922H152.5C150.291 141.922 148.5 140.131 148.5 137.922V92.9219Z" fill="white"/>
<path d="M149 92.9219C149 90.9889 150.567 89.4219 152.5 89.4219H237.5C239.433 89.4219 241 90.9889 241 92.9219V137.922C241 139.855 239.433 141.422 237.5 141.422H152.5C150.567 141.422 149 139.855 149 137.922V92.9219Z" stroke="#2E2E1F" stroke-opacity="0.12"/>
<path d="M160.092 105.822C160.14 106.734 160.644 107.166 161.412 107.166C162.348 107.166 162.624 106.446 162.624 105.498V99.3539H163.764V105.474C163.764 107.118 163.008 108.126 161.412 108.126C160.08 108.126 159.036 107.298 159 105.798L158.988 105.342H160.068L160.092 105.822ZM165.473 103.59C165.605 102.69 166.361 101.562 167.981 101.562C170.261 101.562 170.477 103.038 170.477 103.998V106.662C170.477 107.13 170.525 107.622 170.573 107.922H169.421C169.397 107.622 169.397 107.37 169.397 107.022V106.782H169.385C169.241 107.262 168.725 108.066 167.345 108.066C165.857 108.066 165.173 107.118 165.173 106.23C165.173 104.478 167.381 104.418 168.317 104.25C169.133 104.106 169.397 103.878 169.397 103.362C169.397 102.846 168.905 102.474 168.017 102.474C167.261 102.474 166.697 102.918 166.553 103.59H165.473ZM166.241 106.23C166.241 106.818 166.781 107.19 167.537 107.19C168.485 107.19 169.421 106.578 169.421 105.042L169.409 104.178C169.289 104.586 169.025 104.946 167.681 105.186C166.781 105.342 166.241 105.606 166.241 106.23ZM172.079 107.922V101.718H173.159V102.882C173.483 102.174 174.059 101.574 175.019 101.574C176.651 101.574 177.263 102.642 177.263 103.902V107.922H176.183V104.01C176.183 102.918 175.715 102.486 174.875 102.486C173.963 102.486 173.159 103.254 173.159 104.874V107.922H172.079ZM178.789 105.738V101.718H179.869V105.63C179.869 106.722 180.337 107.154 181.177 107.154C182.089 107.154 182.893 106.386 182.893 104.766V101.718H183.973V107.922H182.893V106.758C182.569 107.466 181.993 108.066 181.033 108.066C179.401 108.066 178.789 106.998 178.789 105.738ZM185.583 103.59C185.715 102.69 186.471 101.562 188.091 101.562C190.371 101.562 190.587 103.038 190.587 103.998V106.662C190.587 107.13 190.635 107.622 190.683 107.922H189.531C189.507 107.622 189.507 107.37 189.507 107.022V106.782H189.495C189.351 107.262 188.835 108.066 187.455 108.066C185.967 108.066 185.283 107.118 185.283 106.23C185.283 104.478 187.491 104.418 188.427 104.25C189.243 104.106 189.507 103.878 189.507 103.362C189.507 102.846 189.015 102.474 188.127 102.474C187.371 102.474 186.807 102.918 186.663 103.59H185.583ZM186.351 106.23C186.351 106.818 186.891 107.19 187.647 107.19C188.595 107.19 189.531 106.578 189.531 105.042L189.519 104.178C189.399 104.586 189.135 104.946 187.791 105.186C186.891 105.342 186.351 105.606 186.351 106.23ZM193.269 101.718V102.966C193.581 102.054 194.181 101.694 195.117 101.694V102.726C195.069 102.726 194.877 102.738 194.721 102.762C194.001 102.87 193.269 103.194 193.269 104.994V107.922H192.189V101.718H193.269ZM196.954 101.718L198.922 106.854H198.934L200.698 101.718H201.85L199.042 109.122C198.766 109.866 198.31 110.322 197.47 110.322H196.63V109.41H197.314C197.914 109.41 198.01 109.074 198.19 108.63L198.406 108.09C197.542 105.966 196.666 103.842 195.802 101.718H196.954ZM205.548 102.078C205.548 100.254 206.604 99.3059 208.404 99.3059C210 99.3059 211.068 100.242 211.068 101.79C211.068 103.29 210.348 103.806 209.376 104.562C208.368 105.354 207.192 105.978 206.856 107.01H211.152V107.922H205.428C205.548 106.05 206.796 105.066 207.96 104.286C209.304 103.386 209.988 102.87 209.988 101.838C209.988 100.962 209.412 100.218 208.344 100.218C207.156 100.218 206.64 101.082 206.628 102.078H205.548ZM215.314 107.154C216.718 107.154 217.282 105.246 217.282 103.638C217.282 102.042 216.718 100.218 215.314 100.218C213.91 100.218 213.346 102.042 213.346 103.638C213.346 105.246 213.91 107.154 215.314 107.154ZM212.266 103.638C212.266 101.454 213.058 99.3059 215.314 99.3059C217.57 99.3059 218.362 101.454 218.362 103.638C218.362 105.822 217.57 108.066 215.314 108.066C213.058 108.066 212.266 105.834 212.266 103.638ZM219.533 102.078C219.533 100.254 220.589 99.3059 222.389 99.3059C223.985 99.3059 225.053 100.242 225.053 101.79C225.053 103.29 224.333 103.806 223.361 104.562C222.353 105.354 221.177 105.978 220.841 107.01H225.137V107.922H219.413C219.533 106.05 220.781 105.066 221.945 104.286C223.289 103.386 223.973 102.87 223.973 101.838C223.973 100.962 223.397 100.218 222.329 100.218C221.141 100.218 220.625 101.082 220.613 102.078H219.533ZM225.171 105.762V104.874L228.987 99.3539H229.971V104.85H230.919V105.762H229.971V107.922H228.891V105.762H225.171ZM226.287 104.85H228.891V101.118H228.855L226.287 104.85Z" fill="#74746A"/>
<path d="M162.518 119.162H163.988V120.73C165.584 120.954 166.662 121.92 166.816 123.768H165.206C165.024 122.592 164.422 122.018 163.218 122.018C162.21 122.018 161.37 122.438 161.37 123.516C161.37 124.44 162.266 124.818 163.568 125.196C165.248 125.686 166.942 126.092 166.942 128.22C166.942 130.026 165.57 130.936 163.988 131.118V132.714H162.518V131.104C160.754 130.866 159.466 129.788 159.382 127.758H161.006C161.076 129.13 162.014 129.816 163.344 129.816C164.478 129.816 165.346 129.326 165.346 128.234C165.346 127.114 164.394 126.89 163.12 126.512C161.468 126.022 159.802 125.49 159.774 123.544C159.746 121.892 161.006 120.954 162.518 120.744V119.162ZM168.167 128.472V127.1L172.535 120.926H174.019V127.212H175.153V128.472H174.019V130.922H172.507V128.472H168.167ZM169.609 127.212H172.507V123.124H172.451L169.609 127.212ZM177.009 129.158H178.675L177.583 132.658H176.239L177.009 129.158ZM180.526 124.146C180.526 122.032 181.884 120.842 183.942 120.842C185.832 120.842 187.162 121.99 187.162 123.768C187.162 125.476 186.364 126.162 185.146 127.1C183.998 127.982 182.794 128.598 182.36 129.634H187.274V130.922H180.386C180.484 128.71 181.772 127.674 183.298 126.652C184.936 125.574 185.65 125.07 185.65 123.852C185.65 122.914 185.034 122.116 183.886 122.116C182.668 122.116 182.038 122.984 182.038 124.146H180.526ZM188.893 123.614C188.977 121.962 190.111 120.842 192.001 120.842C193.849 120.842 195.011 121.85 195.011 123.404C195.011 124.51 194.549 125.126 193.793 125.574C194.871 125.994 195.459 126.764 195.459 128.066C195.473 129.746 194.213 131.104 192.043 131.104C189.957 131.104 188.683 130.04 188.487 128.192V128.038H190.041L190.055 128.15C190.153 129.27 190.923 129.844 192.029 129.844C193.247 129.844 193.975 129.046 193.975 127.996C193.975 126.82 192.995 126.316 191.791 126.316C191.637 126.316 191.441 126.316 191.301 126.33V124.986C191.539 124.986 191.735 124.972 191.959 124.958C192.897 124.888 193.499 124.482 193.499 123.572C193.499 122.648 192.911 122.13 191.973 122.13C191.021 122.13 190.531 122.662 190.419 123.404L190.391 123.614H188.893ZM196.614 128.472V127.1L200.982 120.926H202.466V127.212H203.6V128.472H202.466V130.922H200.954V128.472H196.614ZM198.056 127.212H200.954V123.124H200.898L198.056 127.212ZM205.19 129.158H206.898V130.922H205.19V129.158ZM211.772 130.922H210.26V123.712H207.838V122.662C209.168 122.662 210.148 122.396 210.512 120.926H211.772V130.922ZM214.096 124.146C214.096 122.032 215.454 120.842 217.512 120.842C219.402 120.842 220.732 121.99 220.732 123.768C220.732 125.476 219.934 126.162 218.716 127.1C217.568 127.982 216.364 128.598 215.93 129.634H220.844V130.922H213.956C214.054 128.71 215.342 127.674 216.868 126.652C218.506 125.574 219.22 125.07 219.22 123.852C219.22 122.914 218.604 122.116 217.456 122.116C216.238 122.116 215.608 122.984 215.608 124.146H214.096Z" fill="#2E2E27"/>
</g>
<defs>
<linearGradient id="paint0_linear_1_652" x1="192.5" y1="0.921875" x2="192.5" y2="275.922" gradientUnits="userSpaceOnUse">
<stop stop-color="#96BB96"/>
<stop offset="1" stop-color="#D0D7AC"/>
</linearGradient>
<clipPath id="clip0_1_652">
<rect width="384" height="275" fill="white" transform="translate(0.5 0.921875)"/>
</clipPath>
</defs>
</svg>
