<svg width="385" height="276" viewBox="0 0 385 276" fill="none" xmlns="http://www.w3.org/2000/svg">
<g clip-path="url(#clip0_1_584)">
<path d="M0.5 12.9219C0.5 6.29446 5.87258 0.921875 12.5 0.921875H372.5C379.127 0.921875 384.5 6.29446 384.5 12.9219V263.922C384.5 270.549 379.127 275.922 372.5 275.922H12.5C5.87258 275.922 0.5 270.549 0.5 263.922V12.9219Z" fill="#F9F8F1"/>
<g clip-path="url(#clip1_1_584)">
<mask id="mask0_1_584" style="mask-type:luminance" maskUnits="userSpaceOnUse" x="0" y="0" width="385" height="276">
<path d="M0.5 12.9219C0.5 6.29447 5.87258 0.921875 12.5 0.921875H372.5C379.127 0.921875 384.5 6.29446 384.5 12.9219V263.922C384.5 270.549 379.127 275.922 372.5 275.922H12.5C5.87258 275.922 0.5 270.549 0.5 263.922V12.9219Z" fill="white"/>
</mask>
<g mask="url(#mask0_1_584)">
<path d="M0.5 12.9219C0.5 6.29447 5.87258 0.921875 12.5 0.921875H372.5C379.127 0.921875 384.5 6.29446 384.5 12.9219V263.922C384.5 270.549 379.127 275.922 372.5 275.922H12.5C5.87258 275.922 0.5 270.549 0.5 263.922V12.9219Z" fill="#F2F1E8"/>
<mask id="mask1_1_584" style="mask-type:luminance" maskUnits="userSpaceOnUse" x="24" y="52" width="457" height="53">
<path d="M24.5 62.0219C24.5 56.72 28.7981 52.4219 34.1 52.4219H470.611C475.913 52.4219 480.211 56.72 480.211 62.0219V94.8219C480.211 100.124 475.913 104.422 470.611 104.422H34.1C28.7981 104.422 24.5 100.124 24.5 94.8219V62.0219Z" fill="white"/>
</mask>
<g mask="url(#mask1_1_584)">
<path d="M24.5 62.0219C24.5 56.72 28.7981 52.4219 34.1 52.4219H470.611C475.913 52.4219 480.211 56.72 480.211 62.0219V94.8219C480.211 100.124 475.913 104.422 470.611 104.422H34.1C28.7981 104.422 24.5 100.124 24.5 94.8219V62.0219Z" fill="white" fill-opacity="0.9"/>
<mask id="mask2_1_584" style="mask-type:luminance" maskUnits="userSpaceOnUse" x="24" y="52" width="457" height="53">
<path d="M24.5 52.4219H480.211V104.422H24.5V52.4219Z" fill="white"/>
</mask>
<g mask="url(#mask2_1_584)">
<path d="M480.211 104H24.5V104.844H480.211V104Z" fill="#2E2E1F" fill-opacity="0.12"/>
</g>
<path d="M52.9884 80.8529C53.0357 81.7514 53.5322 82.177 54.2889 82.177C55.211 82.177 55.4829 81.4677 55.4829 80.5337V74.4807H56.606V80.5101C56.606 82.1297 55.8612 83.1228 54.2889 83.1228C52.9766 83.1228 51.9481 82.307 51.9126 80.8293L51.9008 80.38H52.9648L52.9884 80.8529ZM61.092 78.6185C62.3215 78.6185 63.019 78.0156 63.019 77.0225C63.019 76.0294 62.3924 75.4265 61.1629 75.4265H59.5669V78.6185H61.092ZM58.4438 82.9218V74.4807H61.2812C62.9599 74.4807 64.1421 75.5566 64.1421 77.0225C64.1421 78.4885 62.889 79.5643 61.2102 79.5643H59.5669V82.9218H58.4438ZM68.2729 82.9218V74.4807L70.1644 74.4926L72.5289 81.6095H72.5407L74.8815 74.4807H76.7731V82.9218H75.65V75.663H75.6263L73.1791 82.9218H71.8787L69.4196 75.663H69.396V82.9218H68.2729ZM81.1323 83.0637C79.2762 83.0637 78.0704 81.6686 78.0704 79.8717C78.0704 78.0747 79.2762 76.6678 81.1323 76.6678C82.9884 76.6678 84.1943 78.0747 84.1943 79.8717C84.1943 81.6686 82.9884 83.0637 81.1323 83.0637ZM79.1344 79.8717C79.1344 81.1248 79.9383 82.1652 81.1323 82.1652C82.3264 82.1652 83.1303 81.1248 83.1303 79.8717C83.1303 78.6067 82.3264 77.5663 81.1323 77.5663C79.9383 77.5663 79.1344 78.6067 79.1344 79.8717ZM86.4822 76.8097V78.0392C86.7896 77.1407 87.3807 76.7861 88.3029 76.7861V77.8028C88.2556 77.8028 88.0664 77.8146 87.9127 77.8382C87.2034 77.9446 86.4822 78.2638 86.4822 80.0372V82.9218H85.4182V76.8097H86.4822ZM93.7985 76.8097H94.8625V82.4489C94.8625 84.2577 93.5385 85.2626 92.0252 85.2626C90.512 85.2626 89.3297 84.506 89.1997 83.1819H90.2637C90.3819 84.0567 91.0558 84.3641 92.0252 84.3641C92.9946 84.3641 93.7985 83.8321 93.7985 82.4489V81.7159H93.7867C93.5266 82.4726 92.9237 83.0637 91.7297 83.0637C89.98 83.0637 88.8923 81.6805 88.8923 79.848C88.8923 78.0274 89.98 76.6678 91.7297 76.6678C92.9237 76.6678 93.5621 77.3417 93.7867 77.9446H93.7985V76.8097ZM89.9563 79.848C89.9563 81.0539 90.5593 82.1534 91.8952 82.1534C93.3966 82.1534 93.834 80.8174 93.834 79.848C93.834 78.8904 93.2074 77.5663 91.8952 77.5663C90.5947 77.5663 89.9563 78.654 89.9563 79.848ZM96.4477 78.654C96.5778 77.7673 97.3226 76.656 98.9186 76.656C101.165 76.656 101.378 78.1102 101.378 79.0559V81.6805C101.378 82.1415 101.425 82.6262 101.472 82.9218H100.337C100.314 82.6262 100.314 82.378 100.314 82.0351V81.7987H100.302C100.16 82.2716 99.6516 83.0637 98.292 83.0637C96.826 83.0637 96.1522 82.1297 96.1522 81.2549C96.1522 79.5288 98.3275 79.4697 99.2496 79.3042C100.054 79.1623 100.314 78.9377 100.314 78.4294C100.314 77.921 99.8289 77.5545 98.954 77.5545C98.2092 77.5545 97.6536 77.9919 97.5117 78.654H96.4477ZM97.2044 81.2549C97.2044 81.8342 97.7364 82.2006 98.4812 82.2006C99.4151 82.2006 100.337 81.5977 100.337 80.0845L100.325 79.2333C100.207 79.6352 99.9471 79.9899 98.623 80.2263C97.7364 80.38 97.2044 80.6401 97.2044 81.2549ZM102.956 82.9218V76.8097H104.02V77.9565C104.339 77.259 104.906 76.6678 105.852 76.6678C107.46 76.6678 108.063 77.72 108.063 78.9614V82.9218H106.999V79.0678C106.999 77.9919 106.538 77.5663 105.71 77.5663C104.812 77.5663 104.02 78.323 104.02 79.919V82.9218H102.956Z" fill="#2E2E27"/>
<path d="M116.728 75.3439L116.952 74.7173L118.229 75.1783V73.8306H118.891V75.1902L120.239 74.7055L120.475 75.3439L119.127 75.8167L119.872 76.9044L119.34 77.2945L118.56 76.1714L117.792 77.2945L117.236 76.9044L117.993 75.7931L116.728 75.3439ZM124.898 82.9219H123.834V76.6679H121.824V75.864C122.971 75.864 123.775 75.6867 124.023 74.4808H124.898V82.9219ZM126.685 77.2827C126.685 75.6276 128.009 74.4099 129.676 74.4099C130.563 74.4099 131.379 74.7409 131.911 75.332C132.525 76.0177 132.679 77.1172 132.679 78.595C132.679 81.0185 131.828 83.0638 129.747 83.0638C128.163 83.0638 127.135 82.1416 126.91 80.9712H127.974C128.139 81.5387 128.589 82.1653 129.676 82.1653C130.977 82.1653 131.473 81.0303 131.592 79.3043C131.225 79.7654 130.492 80.191 129.558 80.191C127.903 80.191 126.685 78.9496 126.685 77.2827ZM127.749 77.2827C127.749 78.3585 128.565 79.2688 129.676 79.2688C130.799 79.2688 131.603 78.2994 131.603 77.2827C131.603 76.1596 130.752 75.3084 129.676 75.3084C128.6 75.3084 127.749 76.2069 127.749 77.2827ZM133.868 77.1645C133.868 75.3675 134.908 74.4335 136.681 74.4335C138.254 74.4335 139.306 75.3557 139.306 76.8807C139.306 78.3585 138.597 78.8669 137.639 79.6117C136.646 80.3919 135.487 81.0067 135.156 82.0234H139.389V82.9219H133.749C133.868 81.0776 135.097 80.1082 136.244 79.3398C137.568 78.4531 138.242 77.9447 138.242 76.928C138.242 76.065 137.674 75.332 136.622 75.332C135.452 75.332 134.943 76.1832 134.932 77.1645H133.868ZM143.408 74.4099C144.933 74.4099 146.068 75.2256 146.068 76.5143C146.068 77.4837 145.5 78.2285 144.767 78.4531C145.548 78.6777 146.375 79.458 146.375 80.6284C146.375 82.1653 145.087 83.0638 143.42 83.0638C141.694 83.0638 140.393 82.1653 140.405 80.6284C140.417 79.458 141.292 78.6659 142.06 78.4413C141.233 78.1694 140.748 77.4955 140.748 76.5143C140.748 75.2256 141.883 74.4099 143.408 74.4099ZM141.469 80.5456C141.469 81.4559 142.155 82.1771 143.408 82.1771C144.649 82.1771 145.311 81.4559 145.311 80.5338C145.311 79.6471 144.649 78.926 143.408 78.926C142.155 78.926 141.469 79.6471 141.469 80.5456ZM141.824 76.7034C141.824 77.4364 142.427 78.0984 143.408 78.0984C144.389 78.0984 144.992 77.4482 144.992 76.7034C144.992 75.9586 144.389 75.3084 143.408 75.3084C142.415 75.3084 141.824 75.9586 141.824 76.7034Z" fill="#919189"/>
<path d="M189.255 70.9275H234.055C238.194 70.9275 241.55 74.2829 241.55 78.4219C241.55 82.561 238.194 85.9164 234.055 85.9164H189.255C185.116 85.9164 181.761 82.561 181.761 78.4219C181.761 74.2829 185.116 70.9275 189.255 70.9275Z" stroke="#2E2E1F" stroke-opacity="0.23" stroke-width="0.211111"/>
<path d="M188.804 77.9395L192.239 74.484L195.694 77.9294L195.107 78.4968L192.736 76.1155L192.644 76.0142V81.9219H191.844L191.854 76.0243L191.732 76.156L189.392 78.507L188.804 77.9395ZM202.892 74.5144C205.232 74.5144 206.641 76.2675 206.641 78.3043C206.641 80.3411 205.232 82.0942 202.892 82.0942C200.551 82.0942 199.142 80.3411 199.142 78.3043C199.142 76.2675 200.551 74.5144 202.892 74.5144ZM200.105 78.3043C200.105 79.8243 201.088 81.2835 202.892 81.2835C204.695 81.2835 205.678 79.8243 205.678 78.3043C205.678 76.7843 204.695 75.3251 202.892 75.3251C201.088 75.3251 200.105 76.7843 200.105 78.3043ZM207.714 80.0776V76.683H208.626V79.9864C208.626 80.9086 209.021 81.2734 209.731 81.2734C210.501 81.2734 211.18 80.6248 211.18 79.2568V76.683H212.092V81.9219H211.18V80.939C210.906 81.5368 210.42 82.0435 209.609 82.0435C208.231 82.0435 207.714 81.1416 207.714 80.0776ZM214.566 80.4526C214.566 80.9187 214.829 81.172 215.235 81.172H215.6V81.9219H215.144C214.13 81.9219 213.674 81.324 213.674 80.5134V77.4328H212.894V76.683H213.674V75.4568L214.566 75.0515V76.683H215.569V77.4328H214.566V80.4526ZM217 76.0952C217 75.3656 217.395 74.6867 218.327 74.6867H218.895V75.4568H218.56C218.165 75.4568 217.892 75.5886 217.892 76.1358V76.683H218.773V77.4328H217.892V81.9219H217V77.4328H216.28V76.683H217V76.0952ZM219.726 81.9219V74.6867H220.638V81.9219H219.726ZM224.315 82.0435C222.724 82.0435 221.691 80.8478 221.691 79.3075C221.691 77.7672 222.724 76.5614 224.315 76.5614C225.906 76.5614 226.94 77.7672 226.94 79.3075C226.94 80.8478 225.906 82.0435 224.315 82.0435ZM222.603 79.3075C222.603 80.3816 223.292 81.2734 224.315 81.2734C225.339 81.2734 226.028 80.3816 226.028 79.3075C226.028 78.2232 225.339 77.3315 224.315 77.3315C223.292 77.3315 222.603 78.2232 222.603 79.3075ZM228.921 81.9219L227.421 76.683H228.374L229.215 79.9054C229.296 80.2296 229.357 80.5539 229.438 80.8782H229.448C229.529 80.564 229.59 80.2296 229.671 79.9155L230.532 76.683H231.728L232.579 79.9054L232.823 80.8883H232.833L233.066 79.9054L233.897 76.683H234.849L233.339 81.9219H232.296L231.363 78.4867L231.13 77.595H231.12C231.039 77.899 230.978 78.1827 230.897 78.4867L229.965 81.9219H228.921Z" fill="#D13834"/>
<path d="M252.688 82.9218V74.4807H255.714C257.641 74.4807 258.575 75.5566 258.575 76.8806C258.575 78.0865 257.759 78.855 256.814 79.0796C257.629 79.2924 257.878 79.9308 258.197 80.9948C258.433 81.775 258.61 82.2479 258.93 82.8036V82.9218H257.736C257.452 82.3425 257.239 81.5622 256.991 80.9002C256.695 80.1081 256.352 79.4697 255.336 79.4697H253.811V82.9218H252.688ZM253.811 78.5239H255.667C256.861 78.5239 257.44 77.8737 257.44 76.8806C257.44 76.124 257.026 75.4265 255.596 75.4265H253.811V78.5239ZM261.401 75.663H260.266V74.4807H261.401V75.663ZM260.243 82.9218V76.8097H261.307V82.9218H260.243ZM266.178 76.6678C267.904 76.6678 268.968 77.9565 268.968 79.848C268.968 81.7396 267.904 83.0637 266.178 83.0637C265.067 83.0637 264.299 82.3307 264.074 81.7041H264.062V85.2862H262.998V76.8097H264.062V78.051H264.074C264.299 77.4126 265.067 76.6678 266.178 76.6678ZM264.027 79.848C264.027 81.0539 264.641 82.1534 265.966 82.1534C267.254 82.1534 267.904 81.1721 267.904 79.848C267.904 78.5239 267.219 77.5663 265.966 77.5663C264.641 77.5663 264.027 78.654 264.027 79.848ZM273.367 76.6678C275.093 76.6678 276.157 77.9565 276.157 79.848C276.157 81.7396 275.093 83.0637 273.367 83.0637C272.256 83.0637 271.488 82.3307 271.263 81.7041H271.251V85.2862H270.187V76.8097H271.251V78.051H271.263C271.488 77.4126 272.256 76.6678 273.367 76.6678ZM271.216 79.848C271.216 81.0539 271.83 82.1534 273.154 82.1534C274.443 82.1534 275.093 81.1721 275.093 79.848C275.093 78.5239 274.408 77.5663 273.154 77.5663C271.83 77.5663 271.216 78.654 271.216 79.848ZM277.376 74.4807H278.44V82.9218H277.376V74.4807ZM281.198 75.663H280.063V74.4807H281.198V75.663ZM280.039 82.9218V76.8097H281.103V82.9218H280.039ZM282.795 82.9218V76.8097H283.859V77.9565C284.178 77.259 284.746 76.6678 285.691 76.6678C287.299 76.6678 287.902 77.72 287.902 78.9614V82.9218H286.838V79.0678C286.838 77.9919 286.377 77.5663 285.549 77.5663C284.651 77.5663 283.859 78.323 283.859 79.919V82.9218H282.795ZM293.981 76.8097H295.045V82.4489C295.045 84.2577 293.721 85.2626 292.207 85.2626C290.694 85.2626 289.512 84.506 289.382 83.1819H290.446C290.564 84.0567 291.238 84.3641 292.207 84.3641C293.177 84.3641 293.981 83.8321 293.981 82.4489V81.7159H293.969C293.709 82.4726 293.106 83.0637 291.912 83.0637C290.162 83.0637 289.074 81.6805 289.074 79.848C289.074 78.0274 290.162 76.6678 291.912 76.6678C293.106 76.6678 293.744 77.3417 293.969 77.9446H293.981V76.8097ZM290.138 79.848C290.138 81.0539 290.741 82.1534 292.077 82.1534C293.579 82.1534 294.016 80.8174 294.016 79.848C294.016 78.8904 293.39 77.5663 292.077 77.5663C290.777 77.5663 290.138 78.654 290.138 79.848Z" fill="#2E2E27"/>
<path d="M312.027 78.4219C312.027 74.2829 315.383 70.9275 319.522 70.9275H355.589C359.728 70.9275 363.083 74.2829 363.083 78.4219C363.083 82.561 359.728 85.9164 355.589 85.9164H319.522C315.383 85.9164 312.027 82.561 312.027 78.4219Z" stroke="#2E2E1F" stroke-opacity="0.23" stroke-width="0.211111"/>
<path d="M320.366 81.7996C322.232 81.7996 323.744 80.2873 323.744 78.4218C323.744 76.5563 322.232 75.0441 320.366 75.0441C318.501 75.0441 316.988 76.5563 316.988 78.4218C316.988 80.2873 318.501 81.7996 320.366 81.7996Z" fill="#2E2E27"/>
<path d="M330.162 78.2333C331.216 78.2333 331.814 77.7165 331.814 76.8653C331.814 76.0141 331.277 75.4973 330.223 75.4973H328.855V78.2333H330.162ZM327.892 81.9218V74.6866H330.324C331.763 74.6866 332.776 75.6087 332.776 76.8653C332.776 78.1218 331.702 79.0439 330.263 79.0439H328.855V81.9218H327.892ZM333.517 78.2637C333.628 77.5037 334.267 76.5511 335.635 76.5511C337.56 76.5511 337.742 77.7975 337.742 78.6082V80.8578C337.742 81.253 337.783 81.6685 337.823 81.9218H336.851C336.83 81.6685 336.83 81.4557 336.83 81.1618V80.9591H336.82C336.699 81.3645 336.263 82.0434 335.097 82.0434C333.841 82.0434 333.263 81.2429 333.263 80.493C333.263 79.0135 335.128 78.9629 335.918 78.821C336.607 78.6994 336.83 78.5069 336.83 78.0711C336.83 77.6354 336.415 77.3213 335.665 77.3213C335.027 77.3213 334.55 77.6962 334.429 78.2637H333.517ZM334.165 80.493C334.165 80.9895 334.621 81.3037 335.26 81.3037C336.06 81.3037 336.851 80.7869 336.851 79.4898L336.84 78.7602C336.739 79.1047 336.516 79.4087 335.381 79.6114C334.621 79.7431 334.165 79.9661 334.165 80.493ZM339.342 76.6829L341.004 81.0199H341.014L342.504 76.6829H343.476L341.105 82.9351C340.872 83.5634 340.487 83.9485 339.778 83.9485H339.068V83.1783H339.646C340.153 83.1783 340.234 82.8946 340.386 82.5197L340.568 82.0637C339.839 80.2701 339.099 78.4765 338.369 76.6829H339.342ZM345.189 76.6829V77.7367C345.453 76.9666 345.959 76.6626 346.75 76.6626V77.5341C346.709 77.5341 346.547 77.5442 346.415 77.5645C345.807 77.6557 345.189 77.9293 345.189 79.4493V81.9218H344.277V76.6829H345.189ZM349.959 82.0434C348.368 82.0434 347.334 80.8477 347.334 79.3074C347.334 77.7671 348.368 76.5613 349.959 76.5613C351.55 76.5613 352.583 77.7671 352.583 79.3074C352.583 80.8477 351.55 82.0434 349.959 82.0434ZM348.246 79.3074C348.246 80.3815 348.935 81.2733 349.959 81.2733C350.982 81.2733 351.671 80.3815 351.671 79.3074C351.671 78.2231 350.982 77.3314 349.959 77.3314C348.935 77.3314 348.246 78.2231 348.246 79.3074ZM353.632 74.6866H354.544V81.9218H353.632V74.6866ZM355.915 74.6866H356.827V81.9218H355.915V74.6866Z" fill="#74746A"/>
</g>
<path d="M25.1 62.0219C25.1 57.0513 29.1294 53.0219 34.1 53.0219H470.611C475.582 53.0219 479.611 57.0513 479.611 62.0219V94.8219C479.611 99.7925 475.582 103.822 470.611 103.822H34.1C29.1295 103.822 25.1 99.7925 25.1 94.8219V62.0219Z" stroke="#2E2E1F" stroke-opacity="0.12" stroke-width="1.2"/>
<mask id="mask3_1_584" style="mask-type:luminance" maskUnits="userSpaceOnUse" x="24" y="112" width="457" height="53">
<path d="M24.5 122.022C24.5 116.72 28.7981 112.422 34.1 112.422H470.611C475.913 112.422 480.211 116.72 480.211 122.022V154.822C480.211 160.124 475.913 164.422 470.611 164.422H34.1C28.7981 164.422 24.5 160.124 24.5 154.822V122.022Z" fill="white"/>
</mask>
<g mask="url(#mask3_1_584)">
<path d="M24.5 122.022C24.5 116.72 28.7981 112.422 34.1 112.422H470.611C475.913 112.422 480.211 116.72 480.211 122.022V154.822C480.211 160.124 475.913 164.422 470.611 164.422H34.1C28.7981 164.422 24.5 160.124 24.5 154.822V122.022Z" fill="white" fill-opacity="0.9"/>
<mask id="mask4_1_584" style="mask-type:luminance" maskUnits="userSpaceOnUse" x="24" y="112" width="457" height="53">
<path d="M24.5 112.422H480.211V164.422H24.5V112.422Z" fill="white"/>
</mask>
<g mask="url(#mask4_1_584)">
<path d="M480.211 164H24.5V164.844H480.211V164Z" fill="#2E2E1F" fill-opacity="0.12"/>
</g>
<path d="M54.9627 134.481C57.7291 134.481 59.3015 136.089 59.3015 138.56C59.3015 141.03 57.7291 142.922 55.0337 142.922H52.4209V134.481H54.9627ZM53.5441 141.976H55.0691C56.7833 141.976 58.1784 140.818 58.1784 138.56C58.1784 136.396 56.7833 135.427 55.0218 135.427H53.5441V141.976ZM65.9549 141.101C65.6121 142.402 64.5835 143.064 63.224 143.064C61.4152 143.064 60.2211 141.752 60.2211 139.836C60.2211 137.992 61.4743 136.668 63.2003 136.668C65.352 136.668 66.0258 138.394 66.0495 139.966V140.156H61.2497C61.3324 141.432 62.1127 142.177 63.2003 142.177C64.0161 142.177 64.7017 141.858 64.9145 141.101H65.9549ZM61.2615 139.304H64.9737C64.8791 138.24 64.288 137.543 63.2003 137.543C62.1009 137.543 61.4033 138.252 61.2615 139.304ZM67.2677 140.77V136.81H68.3317V140.664C68.3317 141.74 68.7928 142.165 69.6203 142.165C70.5188 142.165 71.3109 141.409 71.3109 139.813V136.81H72.3749V142.922H71.3109V141.775C70.9917 142.473 70.4243 143.064 69.4785 143.064C67.8707 143.064 67.2677 142.012 67.2677 140.77ZM75.2615 141.208C75.2615 141.752 75.5689 142.047 76.0417 142.047H76.4673V142.922H75.9353C74.7531 142.922 74.2211 142.224 74.2211 141.279V137.685H73.3108V136.81H74.2211V135.379L75.2615 134.907V136.81H76.4319V137.685H75.2615V141.208ZM81.0329 138.654C80.962 137.862 80.3 137.567 79.6852 137.567C79.1059 137.567 78.5266 137.898 78.5266 138.418C78.5266 138.891 78.9995 139.163 79.5315 139.293L80.3354 139.494C81.2576 139.718 82.1915 140.156 82.1915 141.172C82.1915 142.473 80.832 143.064 79.768 143.064C78.7394 143.064 77.3917 142.591 77.2853 141.078H78.3493C78.4912 141.858 78.9759 142.165 79.8034 142.165C80.4064 142.165 81.1275 141.953 81.1275 141.243C81.1275 140.723 80.6192 140.546 80.0399 140.404L79.1887 140.191C78.2784 139.966 77.4626 139.411 77.4626 138.465C77.4626 137.318 78.6449 136.668 79.7207 136.668C80.9147 136.668 81.9669 137.306 82.0851 138.654H81.0329ZM88.9174 141.054C88.5746 142.331 87.6879 143.064 86.2102 143.064C84.3068 143.064 83.0773 141.716 83.0773 139.872C83.0773 138.028 84.3068 136.668 86.2102 136.668C87.7707 136.668 88.6101 137.531 88.8702 138.642H87.8062C87.5815 138.087 87.1678 137.543 86.1747 137.543C84.9334 137.543 84.1413 138.56 84.1413 139.872C84.1413 141.172 84.9334 142.177 86.1747 142.177C87.0614 142.177 87.5697 141.775 87.8416 141.054H88.9174ZM90.2173 142.922V134.481H91.2813V137.957C91.6005 137.259 92.168 136.668 93.1138 136.668C94.7216 136.668 95.3245 137.72 95.3245 138.962V142.922H94.2605V139.068C94.2605 137.992 93.7995 137.567 92.9719 137.567C92.0734 137.567 91.2813 138.323 91.2813 139.919V142.922H90.2173ZM102.231 141.101C101.888 142.402 100.859 143.064 99.4997 143.064C97.6909 143.064 96.4969 141.752 96.4969 139.836C96.4969 137.992 97.75 136.668 99.4761 136.668C101.628 136.668 102.302 138.394 102.325 139.966V140.156H97.5254C97.6082 141.432 98.3884 142.177 99.4761 142.177C100.292 142.177 100.977 141.858 101.19 141.101H102.231ZM97.5372 139.304H101.249C101.155 138.24 100.564 137.543 99.4761 137.543C98.3766 137.543 97.6791 138.252 97.5372 139.304ZM106.465 142.922V134.481H109.539C110.969 134.481 112.022 135.32 112.022 136.739C112.022 137.626 111.525 138.229 110.686 138.607V138.619C111.655 138.784 112.376 139.434 112.376 140.534C112.376 142.106 111.265 142.922 109.468 142.922H106.465ZM107.588 141.976H109.657C110.591 141.976 111.253 141.444 111.253 140.534C111.253 139.635 110.591 139.115 109.657 139.115H107.588V141.976ZM107.588 138.169H109.326C110.307 138.169 110.898 137.685 110.898 136.739C110.898 135.793 110.307 135.427 109.326 135.427H107.588V138.169ZM113.801 138.654C113.931 137.768 114.675 136.656 116.271 136.656C118.518 136.656 118.73 138.11 118.73 139.056V141.681C118.73 142.142 118.778 142.626 118.825 142.922H117.69C117.666 142.626 117.666 142.378 117.666 142.035V141.799H117.655C117.513 142.272 117.004 143.064 115.645 143.064C114.179 143.064 113.505 142.13 113.505 141.255C113.505 139.529 115.68 139.47 116.602 139.304C117.406 139.163 117.666 138.938 117.666 138.43C117.666 137.921 117.182 137.555 116.307 137.555C115.562 137.555 115.006 137.992 114.865 138.654H113.801ZM114.557 141.255C114.557 141.834 115.089 142.201 115.834 142.201C116.768 142.201 117.69 141.598 117.69 140.085L117.678 139.233C117.56 139.635 117.3 139.99 115.976 140.227C115.089 140.38 114.557 140.64 114.557 141.255ZM120.309 142.922V136.81H121.373V137.957C121.692 137.259 122.259 136.668 123.205 136.668C124.813 136.668 125.416 137.72 125.416 138.962V142.922H124.352V139.068C124.352 137.992 123.891 137.567 123.063 137.567C122.165 137.567 121.373 138.323 121.373 139.919V142.922H120.309ZM128.03 142.922H126.966V134.481H128.03V139.482L130.679 136.81H131.967L129.414 139.387L132.085 142.922H130.75L128.669 140.12L128.03 140.735V142.922Z" fill="#2E2E27"/>
<path d="M139.728 135.344L139.952 134.717L141.229 135.178V133.831H141.891V135.19L143.239 134.706L143.475 135.344L142.127 135.817L142.872 136.904L142.34 137.295L141.56 136.172L140.792 137.295L140.236 136.904L140.993 135.793L139.728 135.344ZM147.898 142.922H146.834V136.668H144.824V135.864C145.971 135.864 146.775 135.687 147.023 134.481H147.898V142.922ZM149.685 137.283C149.685 135.628 151.009 134.41 152.676 134.41C153.563 134.41 154.379 134.741 154.911 135.332C155.525 136.018 155.679 137.117 155.679 138.595C155.679 141.019 154.828 143.064 152.747 143.064C151.163 143.064 150.135 142.142 149.91 140.971H150.974C151.139 141.539 151.589 142.165 152.676 142.165C153.977 142.165 154.473 141.03 154.592 139.304C154.225 139.765 153.492 140.191 152.558 140.191C150.903 140.191 149.685 138.95 149.685 137.283ZM150.749 137.283C150.749 138.359 151.565 139.269 152.676 139.269C153.799 139.269 154.603 138.3 154.603 137.283C154.603 136.16 153.752 135.308 152.676 135.308C151.6 135.308 150.749 136.207 150.749 137.283ZM156.868 137.165C156.868 135.368 157.908 134.434 159.681 134.434C161.254 134.434 162.306 135.356 162.306 136.881C162.306 138.359 161.597 138.867 160.639 139.612C159.646 140.392 158.487 141.007 158.156 142.024H162.389V142.922H156.749C156.868 141.078 158.097 140.108 159.244 139.34C160.568 138.453 161.242 137.945 161.242 136.928C161.242 136.065 160.674 135.332 159.622 135.332C158.452 135.332 157.943 136.183 157.932 137.165H156.868ZM166.408 134.41C167.933 134.41 169.068 135.226 169.068 136.514C169.068 137.484 168.5 138.229 167.767 138.453C168.548 138.678 169.375 139.458 169.375 140.628C169.375 142.165 168.087 143.064 166.42 143.064C164.694 143.064 163.393 142.165 163.405 140.628C163.417 139.458 164.292 138.666 165.06 138.441C164.233 138.169 163.748 137.496 163.748 136.514C163.748 135.226 164.883 134.41 166.408 134.41ZM164.469 140.546C164.469 141.456 165.155 142.177 166.408 142.177C167.649 142.177 168.311 141.456 168.311 140.534C168.311 139.647 167.649 138.926 166.408 138.926C165.155 138.926 164.469 139.647 164.469 140.546ZM164.824 136.704C164.824 137.436 165.427 138.099 166.408 138.099C167.389 138.099 167.992 137.448 167.992 136.704C167.992 135.959 167.389 135.308 166.408 135.308C165.415 135.308 164.824 135.959 164.824 136.704Z" fill="#919189"/>
<path d="M189.255 130.928H234.055C238.194 130.928 241.55 134.283 241.55 138.422C241.55 142.561 238.194 145.916 234.055 145.916H189.255C185.116 145.916 181.761 142.561 181.761 138.422C181.761 134.283 185.116 130.928 189.255 130.928Z" stroke="#2E2E1F" stroke-opacity="0.23" stroke-width="0.211111"/>
<path d="M188.804 137.94L192.239 134.484L195.694 137.929L195.107 138.497L192.736 136.116L192.644 136.014V141.922H191.844L191.854 136.024L191.732 136.156L189.392 138.507L188.804 137.94ZM202.892 134.515C205.232 134.515 206.641 136.268 206.641 138.304C206.641 140.341 205.232 142.094 202.892 142.094C200.551 142.094 199.142 140.341 199.142 138.304C199.142 136.268 200.551 134.515 202.892 134.515ZM200.105 138.304C200.105 139.824 201.088 141.284 202.892 141.284C204.695 141.284 205.678 139.824 205.678 138.304C205.678 136.784 204.695 135.325 202.892 135.325C201.088 135.325 200.105 136.784 200.105 138.304ZM207.714 140.078V136.683H208.626V139.987C208.626 140.909 209.021 141.273 209.731 141.273C210.501 141.273 211.18 140.625 211.18 139.257V136.683H212.092V141.922H211.18V140.939C210.906 141.537 210.42 142.044 209.609 142.044C208.231 142.044 207.714 141.142 207.714 140.078ZM214.566 140.453C214.566 140.919 214.829 141.172 215.235 141.172H215.6V141.922H215.144C214.13 141.922 213.674 141.324 213.674 140.513V137.433H212.894V136.683H213.674V135.457L214.566 135.052V136.683H215.569V137.433H214.566V140.453ZM217 136.095C217 135.366 217.395 134.687 218.327 134.687H218.895V135.457H218.56C218.165 135.457 217.892 135.589 217.892 136.136V136.683H218.773V137.433H217.892V141.922H217V137.433H216.28V136.683H217V136.095ZM219.726 141.922V134.687H220.638V141.922H219.726ZM224.315 142.044C222.724 142.044 221.691 140.848 221.691 139.308C221.691 137.767 222.724 136.561 224.315 136.561C225.906 136.561 226.94 137.767 226.94 139.308C226.94 140.848 225.906 142.044 224.315 142.044ZM222.603 139.308C222.603 140.382 223.292 141.273 224.315 141.273C225.339 141.273 226.028 140.382 226.028 139.308C226.028 138.223 225.339 137.332 224.315 137.332C223.292 137.332 222.603 138.223 222.603 139.308ZM228.921 141.922L227.421 136.683H228.374L229.215 139.905C229.296 140.23 229.357 140.554 229.438 140.878H229.448C229.529 140.564 229.59 140.23 229.671 139.916L230.532 136.683H231.728L232.579 139.905L232.823 140.888H232.833L233.066 139.905L233.897 136.683H234.849L233.339 141.922H232.296L231.363 138.487L231.13 137.595H231.12C231.039 137.899 230.978 138.183 230.897 138.487L229.965 141.922H228.921Z" fill="#D13834"/>
<path d="M259.001 139.919C259.001 141.692 257.996 143.123 255.82 143.123C253.645 143.123 252.64 141.692 252.64 139.919V134.481H253.763V139.919C253.763 141.137 254.402 142.177 255.82 142.177C257.239 142.177 257.878 141.137 257.878 139.919V134.481H259.001V139.919ZM260.693 142.922V136.81H261.757V137.957C262.076 137.259 262.644 136.668 263.589 136.668C265.197 136.668 265.8 137.72 265.8 138.962V142.922H264.736V139.068C264.736 137.992 264.275 137.567 263.447 137.567C262.549 137.567 261.757 138.323 261.757 139.919V142.922H260.693ZM268.509 135.663H267.374V134.481H268.509V135.663ZM267.351 142.922V136.81H268.415V142.922H267.351ZM271.395 141.208C271.395 141.752 271.702 142.047 272.175 142.047H272.601V142.922H272.069C270.887 142.922 270.355 142.224 270.355 141.279V137.685H269.444V136.81H270.355V135.379L271.395 134.907V136.81H272.565V137.685H271.395V141.208ZM279.129 141.101C278.787 142.402 277.758 143.064 276.398 143.064C274.59 143.064 273.396 141.752 273.396 139.836C273.396 137.992 274.649 136.668 276.375 136.668C278.526 136.668 279.2 138.394 279.224 139.966V140.156H274.424C274.507 141.432 275.287 142.177 276.375 142.177C277.191 142.177 277.876 141.858 278.089 141.101H279.129ZM274.436 139.304H278.148C278.054 138.24 277.462 137.543 276.375 137.543C275.275 137.543 274.578 138.252 274.436 139.304ZM282.901 136.668C284.013 136.668 284.781 137.413 285.006 138.051H285.017V134.481H286.081V142.922H285.017V141.704H285.006C284.781 142.331 284.013 143.064 282.901 143.064C281.175 143.064 280.111 141.74 280.111 139.848C280.111 137.957 281.175 136.668 282.901 136.668ZM281.175 139.848C281.175 141.172 281.825 142.154 283.114 142.154C284.438 142.154 285.053 141.054 285.053 139.848C285.053 138.654 284.438 137.567 283.114 137.567C281.861 137.567 281.175 138.524 281.175 139.848Z" fill="#2E2E27"/>
<path d="M312.027 138.422C312.027 134.283 315.383 130.928 319.522 130.928H351.589C355.728 130.928 359.083 134.283 359.083 138.422C359.083 142.561 355.728 145.916 351.589 145.916H319.522C315.383 145.916 312.027 142.561 312.027 138.422Z" stroke="#2E2E1F" stroke-opacity="0.23" stroke-width="0.211111"/>
<path d="M320.366 141.8C322.232 141.8 323.744 140.287 323.744 138.422C323.744 136.556 322.232 135.044 320.366 135.044C318.501 135.044 316.988 136.556 316.988 138.422C316.988 140.287 318.501 141.8 320.366 141.8Z" fill="#B8A9FF"/>
<path d="M327.284 135.497V134.687H332.685V135.497H330.466V141.922H329.503V135.497H327.284ZM333.588 136.683V137.737C333.851 136.967 334.358 136.663 335.148 136.663V137.534C335.108 137.534 334.946 137.544 334.814 137.565C334.206 137.656 333.588 137.929 333.588 139.449V141.922H332.676V136.683H333.588ZM335.819 138.264C335.931 137.504 336.569 136.551 337.937 136.551C339.862 136.551 340.045 137.798 340.045 138.608V140.858C340.045 141.253 340.085 141.669 340.126 141.922H339.153C339.133 141.669 339.133 141.456 339.133 141.162V140.959H339.123C339.001 141.365 338.565 142.044 337.4 142.044C336.144 142.044 335.566 141.243 335.566 140.493C335.566 139.014 337.43 138.963 338.221 138.821C338.91 138.7 339.133 138.507 339.133 138.071C339.133 137.636 338.717 137.321 337.968 137.321C337.329 137.321 336.853 137.696 336.731 138.264H335.819ZM336.468 140.493C336.468 140.99 336.924 141.304 337.562 141.304C338.363 141.304 339.153 140.787 339.153 139.49L339.143 138.76C339.042 139.105 338.819 139.409 337.684 139.612C336.924 139.743 336.468 139.966 336.468 140.493ZM341.665 136.683C342.161 138.122 342.648 139.561 343.144 141H343.154L344.614 136.683H345.607C344.948 138.426 344.299 140.179 343.641 141.922H342.638C341.979 140.179 341.33 138.426 340.672 136.683H341.665ZM350.883 140.361C350.589 141.476 349.708 142.044 348.542 142.044C346.992 142.044 345.969 140.919 345.969 139.277C345.969 137.696 347.043 136.561 348.522 136.561C350.366 136.561 350.944 138.041 350.964 139.389V139.551H346.85C346.921 140.645 347.59 141.284 348.522 141.284C349.221 141.284 349.809 141.01 349.992 140.361H350.883ZM346.86 138.821H350.042C349.961 137.909 349.454 137.311 348.522 137.311C347.58 137.311 346.982 137.919 346.86 138.821ZM352.049 134.687H352.961V141.922H352.049V134.687Z" fill="#74746A"/>
</g>
<path d="M25.1 122.022C25.1 117.051 29.1294 113.022 34.1 113.022H470.611C475.582 113.022 479.611 117.051 479.611 122.022V154.822C479.611 159.793 475.582 163.822 470.611 163.822H34.1C29.1295 163.822 25.1 159.793 25.1 154.822V122.022Z" stroke="#2E2E1F" stroke-opacity="0.12" stroke-width="1.2"/>
<mask id="mask5_1_584" style="mask-type:luminance" maskUnits="userSpaceOnUse" x="24" y="172" width="457" height="53">
<path d="M24.5 182.022C24.5 176.72 28.7981 172.422 34.1 172.422H470.411C475.713 172.422 480.011 176.72 480.011 182.022V214.822C480.011 220.124 475.713 224.422 470.411 224.422H34.1C28.7981 224.422 24.5 220.124 24.5 214.822V182.022Z" fill="white"/>
</mask>
<g mask="url(#mask5_1_584)">
<path d="M24.5 182.022C24.5 176.72 28.7981 172.422 34.1 172.422H470.411C475.713 172.422 480.011 176.72 480.011 182.022V214.822C480.011 220.124 475.713 224.422 470.411 224.422H34.1C28.7981 224.422 24.5 220.124 24.5 214.822V182.022Z" fill="white" fill-opacity="0.9"/>
<mask id="mask6_1_584" style="mask-type:luminance" maskUnits="userSpaceOnUse" x="24" y="172" width="457" height="53">
<path d="M24.5 172.422H480.011V224.422H24.5V172.422Z" fill="white"/>
</mask>
<g mask="url(#mask6_1_584)">
<path d="M480.011 224H24.5V224.844H480.011V224Z" fill="#2E2E1F" fill-opacity="0.12"/>
</g>
<path d="M51.6407 194.481H52.8229L54.3007 200.794L54.5135 201.728H54.5253L54.7381 200.794L56.1686 194.481H57.7055L59.0887 200.794L59.3015 201.74H59.3133L59.5379 200.794L61.0748 194.481H62.257L60.6019 200.794L60.0463 202.922H58.533L56.9489 195.604H56.937L55.743 200.794L55.2583 202.922H53.7569L53.2249 200.794L51.6407 194.481ZM68.2755 201.101C67.9326 202.402 66.9041 203.064 65.5445 203.064C63.7357 203.064 62.5417 201.752 62.5417 199.836C62.5417 197.992 63.7949 196.668 65.5209 196.668C67.6725 196.668 68.3464 198.394 68.3701 199.966V200.156H63.5702C63.653 201.432 64.4333 202.177 65.5209 202.177C66.3366 202.177 67.0223 201.858 67.2351 201.101H68.2755ZM63.5821 199.304H67.2942C67.1997 198.24 66.6085 197.543 65.5209 197.543C64.4214 197.543 63.7239 198.252 63.5821 199.304ZM69.6356 194.481H70.6996V202.922H69.6356V194.481ZM72.2988 194.481H73.3628V202.922H72.2988V194.481ZM78.3314 198.654C78.2604 197.862 77.5984 197.567 76.9836 197.567C76.4044 197.567 75.8251 197.898 75.8251 198.418C75.8251 198.891 76.298 199.163 76.83 199.293L77.6339 199.494C78.556 199.718 79.49 200.156 79.49 201.172C79.49 202.473 78.1304 203.064 77.0664 203.064C76.0379 203.064 74.6901 202.591 74.5837 201.078H75.6477C75.7896 201.858 76.2743 202.165 77.1019 202.165C77.7048 202.165 78.426 201.953 78.426 201.243C78.426 200.723 77.9176 200.546 77.3383 200.404L76.4871 200.191C75.5768 199.966 74.7611 199.411 74.7611 198.465C74.7611 197.318 75.9433 196.668 77.0191 196.668C78.2132 196.668 79.2653 197.306 79.3836 198.654H78.3314ZM83.5822 202.922V194.481H88.784V195.427H84.7053V198.158H88.4411V199.103H84.7053V202.922H83.5822ZM89.7516 198.654C89.8816 197.768 90.6264 196.656 92.2224 196.656C94.4686 196.656 94.6814 198.11 94.6814 199.056V201.681C94.6814 202.142 94.7287 202.626 94.776 202.922H93.6411C93.6174 202.626 93.6174 202.378 93.6174 202.035V201.799H93.6056C93.4637 202.272 92.9554 203.064 91.5958 203.064C90.1299 203.064 89.456 202.13 89.456 201.255C89.456 199.529 91.6313 199.47 92.5534 199.304C93.3573 199.163 93.6174 198.938 93.6174 198.43C93.6174 197.921 93.1327 197.555 92.2579 197.555C91.5131 197.555 90.9574 197.992 90.8156 198.654H89.7516ZM90.5082 201.255C90.5082 201.834 91.0402 202.201 91.785 202.201C92.7189 202.201 93.6411 201.598 93.6411 200.085L93.6292 199.233C93.511 199.635 93.2509 199.99 91.9268 200.227C91.0402 200.38 90.5082 200.64 90.5082 201.255ZM97.3236 196.81V198.039C97.631 197.141 98.2221 196.786 99.1442 196.786V197.803C99.0969 197.803 98.9078 197.815 98.7541 197.838C98.0447 197.945 97.3236 198.264 97.3236 200.037V202.922H96.2596V196.81H97.3236ZM104.64 196.81H105.704V202.449C105.704 204.258 104.38 205.263 102.867 205.263C101.353 205.263 100.171 204.506 100.041 203.182H101.105C101.223 204.057 101.897 204.364 102.867 204.364C103.836 204.364 104.64 203.832 104.64 202.449V201.716H104.628C104.368 202.473 103.765 203.064 102.571 203.064C100.821 203.064 99.7337 201.681 99.7337 199.848C99.7337 198.028 100.821 196.668 102.571 196.668C103.765 196.668 104.403 197.342 104.628 197.945H104.64V196.81ZM100.798 199.848C100.798 201.054 101.401 202.154 102.737 202.154C104.238 202.154 104.675 200.818 104.675 199.848C104.675 198.891 104.049 197.567 102.737 197.567C101.436 197.567 100.798 198.654 100.798 199.848ZM109.985 203.064C108.128 203.064 106.923 201.669 106.923 199.872C106.923 198.075 108.128 196.668 109.985 196.668C111.841 196.668 113.047 198.075 113.047 199.872C113.047 201.669 111.841 203.064 109.985 203.064ZM107.987 199.872C107.987 201.125 108.791 202.165 109.985 202.165C111.179 202.165 111.983 201.125 111.983 199.872C111.983 198.607 111.179 197.567 109.985 197.567C108.791 197.567 107.987 198.607 107.987 199.872Z" fill="#2E2E27"/>
<path d="M120.728 195.344L120.952 194.717L122.229 195.178V193.831H122.891V195.19L124.239 194.706L124.475 195.344L123.127 195.817L123.872 196.904L123.34 197.295L122.56 196.172L121.792 197.295L121.236 196.904L121.993 195.793L120.728 195.344ZM125.84 196.68C125.887 195.344 126.809 194.434 128.358 194.434C129.835 194.434 130.746 195.285 130.746 196.526C130.746 197.436 130.438 197.968 129.765 198.37C130.639 198.725 131.171 199.328 131.171 200.498C131.171 202.012 130.084 203.064 128.322 203.064C126.632 203.064 125.639 202.165 125.461 200.617V200.498H126.584V200.581C126.679 201.633 127.329 202.165 128.346 202.165C129.504 202.165 130.107 201.397 130.107 200.463C130.107 199.316 129.114 198.938 128.074 198.938H127.814V197.909C127.991 197.909 128.145 197.898 128.299 197.886C129.15 197.815 129.682 197.448 129.682 196.656C129.682 195.829 129.173 195.356 128.322 195.356C127.436 195.356 127.01 195.864 126.915 196.514L126.892 196.68H125.84ZM132.705 196.68C132.753 195.344 133.675 194.434 135.223 194.434C136.701 194.434 137.611 195.285 137.611 196.526C137.611 197.436 137.304 197.968 136.63 198.37C137.505 198.725 138.037 199.328 138.037 200.498C138.037 202.012 136.949 203.064 135.188 203.064C133.497 203.064 132.504 202.165 132.327 200.617V200.498H133.45V200.581C133.545 201.633 134.195 202.165 135.212 202.165C136.37 202.165 136.973 201.397 136.973 200.463C136.973 199.316 135.98 198.938 134.94 198.938H134.68V197.909C134.857 197.909 135.011 197.898 135.164 197.886C136.015 197.815 136.547 197.448 136.547 196.656C136.547 195.829 136.039 195.356 135.188 195.356C134.301 195.356 133.876 195.864 133.781 196.514L133.757 196.68H132.705ZM139.027 200.794V199.919L142.787 194.481H143.756V199.896H144.69V200.794H143.756V202.922H142.692V200.794H139.027ZM140.127 199.896H142.692V196.219H142.656L140.127 199.896ZM145.8 200.794V199.919L149.56 194.481H150.529V199.896H151.463V200.794H150.529V202.922H149.465V200.794H145.8ZM146.9 199.896H149.465V196.219H149.43L146.9 199.896Z" fill="#919189"/>
<path d="M189.255 190.928H234.055C238.194 190.928 241.55 194.283 241.55 198.422C241.55 202.561 238.194 205.916 234.055 205.916H189.255C185.116 205.916 181.761 202.561 181.761 198.422C181.761 194.283 185.116 190.928 189.255 190.928Z" stroke="#2E2E1F" stroke-opacity="0.23" stroke-width="0.211111"/>
<path d="M193.304 198.669L193.892 198.102L196.232 200.453L196.354 200.584L196.344 194.687H197.144V200.595L197.236 200.493L199.607 198.112L200.194 198.679L196.739 202.125L193.304 198.669ZM204.027 194.687H204.99V201.922H204.027V194.687ZM206.485 201.922V196.683H207.397V197.666C207.671 197.068 208.157 196.561 208.968 196.561C210.346 196.561 210.863 197.463 210.863 198.527V201.922H209.951V198.619C209.951 197.696 209.556 197.332 208.847 197.332C208.076 197.332 207.397 197.98 207.397 199.348V201.922H206.485ZM212.409 196.095C212.409 195.366 212.804 194.687 213.736 194.687H214.304V195.457H213.969C213.574 195.457 213.301 195.589 213.301 196.136V196.683H214.182V197.433H213.301V201.922H212.409V197.433H211.689V196.683H212.409V196.095ZM215.135 201.922V194.687H216.047V201.922H215.135ZM219.724 202.044C218.133 202.044 217.1 200.848 217.1 199.308C217.1 197.767 218.133 196.561 219.724 196.561C221.315 196.561 222.349 197.767 222.349 199.308C222.349 200.848 221.315 202.044 219.724 202.044ZM218.012 199.308C218.012 200.382 218.701 201.273 219.724 201.273C220.748 201.273 221.437 200.382 221.437 199.308C221.437 198.223 220.748 197.332 219.724 197.332C218.701 197.332 218.012 198.223 218.012 199.308ZM224.33 201.922L222.83 196.683H223.783L224.624 199.905C224.705 200.23 224.766 200.554 224.847 200.878H224.857C224.938 200.564 224.999 200.23 225.08 199.916L225.941 196.683H227.137L227.988 199.905L228.231 200.888H228.242L228.475 199.905L229.306 196.683H230.258L228.748 201.922H227.704L226.772 198.487L226.539 197.595H226.529C226.448 197.899 226.387 198.183 226.306 198.487L225.374 201.922H224.33Z" fill="#55AC5B"/>
<path d="M253.432 200.309C253.48 201.574 254.343 202.177 255.572 202.177C256.565 202.177 257.416 201.716 257.416 200.688C257.416 199.647 256.542 199.47 255.478 199.151C254.083 198.737 252.664 198.323 252.628 196.727C252.593 195.096 253.941 194.28 255.466 194.28C257.156 194.28 258.268 195.131 258.398 196.822H257.263C257.109 195.758 256.577 195.226 255.466 195.226C254.532 195.226 253.752 195.616 253.752 196.644C253.752 197.507 254.579 197.838 255.69 198.158C257.097 198.56 258.54 198.867 258.54 200.652C258.54 202.378 257.085 203.123 255.572 203.123C253.728 203.123 252.333 202.236 252.309 200.309H253.432ZM261.22 201.208C261.22 201.752 261.527 202.047 262 202.047H262.425V202.922H261.893C260.711 202.922 260.179 202.224 260.179 201.279V197.685H259.269V196.81H260.179V195.379L261.22 194.907V196.81H262.39V197.685H261.22V201.208ZM264.559 196.81V198.039C264.866 197.141 265.457 196.786 266.379 196.786V197.803C266.332 197.803 266.143 197.815 265.989 197.838C265.28 197.945 264.559 198.264 264.559 200.037V202.922H263.495V196.81H264.559ZM268.529 195.663H267.394V194.481H268.529V195.663ZM267.37 202.922V196.81H268.434V202.922H267.37ZM273.306 196.668C275.032 196.668 276.096 197.957 276.096 199.848C276.096 201.74 275.032 203.064 273.306 203.064C272.195 203.064 271.426 202.331 271.202 201.704H271.19V205.286H270.126V196.81H271.19V198.051H271.202C271.426 197.413 272.195 196.668 273.306 196.668ZM271.154 199.848C271.154 201.054 271.769 202.154 273.093 202.154C274.382 202.154 275.032 201.172 275.032 199.848C275.032 198.524 274.346 197.567 273.093 197.567C271.769 197.567 271.154 198.654 271.154 199.848ZM282.67 201.101C282.327 202.402 281.299 203.064 279.939 203.064C278.13 203.064 276.936 201.752 276.936 199.836C276.936 197.992 278.189 196.668 279.916 196.668C282.067 196.668 282.741 198.394 282.765 199.966V200.156H277.965C278.048 201.432 278.828 202.177 279.916 202.177C280.731 202.177 281.417 201.858 281.63 201.101H282.67ZM277.977 199.304H281.689C281.594 198.24 281.003 197.543 279.916 197.543C278.816 197.543 278.119 198.252 277.977 199.304Z" fill="#2E2E27"/>
<path d="M312.027 198.422C312.027 194.283 315.383 190.928 319.522 190.928H364.589C368.728 190.928 372.083 194.283 372.083 198.422C372.083 202.561 368.728 205.916 364.589 205.916H319.522C315.383 205.916 312.027 202.561 312.027 198.422Z" stroke="#2E2E1F" stroke-opacity="0.23" stroke-width="0.211111"/>
<path d="M320.366 201.8C322.232 201.8 323.744 200.287 323.744 198.422C323.744 196.556 322.232 195.044 320.366 195.044C318.501 195.044 316.988 196.556 316.988 198.422C316.988 200.287 318.501 201.8 320.366 201.8Z" fill="#62C262"/>
<path d="M327.892 201.922V194.687H330.486C332.138 194.687 332.939 195.609 332.939 196.744C332.939 197.777 332.239 198.436 331.429 198.629C332.128 198.811 332.341 199.358 332.614 200.27C332.817 200.939 332.969 201.344 333.243 201.821V201.922H332.219C331.976 201.425 331.794 200.757 331.581 200.189C331.327 199.51 331.034 198.963 330.162 198.963H328.855V201.922H327.892ZM328.855 198.152H330.446C331.469 198.152 331.966 197.595 331.966 196.744C331.966 196.095 331.611 195.497 330.385 195.497H328.855V198.152ZM338.701 200.361C338.407 201.476 337.526 202.044 336.36 202.044C334.81 202.044 333.786 200.919 333.786 199.277C333.786 197.696 334.861 196.561 336.34 196.561C338.184 196.561 338.762 198.041 338.782 199.389V199.551H334.668C334.739 200.645 335.408 201.284 336.34 201.284C337.039 201.284 337.627 201.01 337.809 200.361H338.701ZM334.678 198.821H337.86C337.779 197.909 337.272 197.311 336.34 197.311C335.398 197.311 334.8 197.919 334.678 198.821ZM340.174 196.683C340.67 198.122 341.157 199.561 341.653 201H341.663L343.123 196.683H344.116C343.457 198.426 342.808 200.179 342.15 201.922H341.147C340.488 200.179 339.839 198.426 339.181 196.683H340.174ZM349.392 200.361C349.098 201.476 348.217 202.044 347.051 202.044C345.501 202.044 344.477 200.919 344.477 199.277C344.477 197.696 345.552 196.561 347.031 196.561C348.875 196.561 349.453 198.041 349.473 199.389V199.551H345.359C345.43 200.645 346.099 201.284 347.031 201.284C347.73 201.284 348.318 201.01 348.5 200.361H349.392ZM345.369 198.821H348.551C348.47 197.909 347.963 197.311 347.031 197.311C346.089 197.311 345.491 197.919 345.369 198.821ZM350.558 201.922V196.683H351.47V197.666C351.744 197.068 352.23 196.561 353.041 196.561C354.419 196.561 354.936 197.463 354.936 198.527V201.922H354.024V198.619C354.024 197.696 353.628 197.332 352.919 197.332C352.149 197.332 351.47 197.98 351.47 199.348V201.922H350.558ZM356.224 200.078V196.683H357.136V199.987C357.136 200.909 357.531 201.273 358.241 201.273C359.011 201.273 359.69 200.625 359.69 199.257V196.683H360.602V201.922H359.69V200.939C359.416 201.537 358.93 202.044 358.119 202.044C356.741 202.044 356.224 201.142 356.224 200.078ZM366.562 200.361C366.268 201.476 365.386 202.044 364.221 202.044C362.671 202.044 361.647 200.919 361.647 199.277C361.647 197.696 362.721 196.561 364.201 196.561C366.045 196.561 366.623 198.041 366.643 199.389V199.551H362.529C362.6 200.645 363.268 201.284 364.201 201.284C364.9 201.284 365.488 201.01 365.67 200.361H366.562ZM362.539 198.821H365.721C365.64 197.909 365.133 197.311 364.201 197.311C363.258 197.311 362.66 197.919 362.539 198.821Z" fill="#74746A"/>
</g>
<path d="M25.1 182.022C25.1 177.051 29.1294 173.022 34.1 173.022H470.411C475.382 173.022 479.411 177.051 479.411 182.022V214.822C479.411 219.793 475.382 223.822 470.411 223.822H34.1C29.1294 223.822 25.1 219.793 25.1 214.822V182.022Z" stroke="#2E2E1F" stroke-opacity="0.12" stroke-width="1.2"/>
</g>
</g>
</g>
<defs>
<clipPath id="clip0_1_584">
<path d="M0.5 12.9219C0.5 6.29446 5.87258 0.921875 12.5 0.921875H372.5C379.127 0.921875 384.5 6.29446 384.5 12.9219V263.922C384.5 270.549 379.127 275.922 372.5 275.922H12.5C5.87258 275.922 0.5 270.549 0.5 263.922V12.9219Z" fill="white"/>
</clipPath>
<clipPath id="clip1_1_584">
<rect width="384" height="275" fill="white" transform="translate(0.5 0.921875)"/>
</clipPath>
</defs>
</svg>
