<svg width="385" height="276" viewBox="0 0 385 276" fill="none" xmlns="http://www.w3.org/2000/svg">
<g clip-path="url(#clip0_1_540)">
<path d="M0.5 12.9219C0.5 6.29446 5.87258 0.921875 12.5 0.921875H372.5C379.127 0.921875 384.5 6.29446 384.5 12.9219V263.922C384.5 270.549 379.127 275.922 372.5 275.922H12.5C5.87258 275.922 0.5 270.549 0.5 263.922V12.9219Z" fill="#F9F8F1"/>
<g clip-path="url(#clip1_1_540)">
<path d="M0.5 12.9219C0.5 6.29447 5.87258 0.921875 12.5 0.921875H372.5C379.127 0.921875 384.5 6.29446 384.5 12.9219V263.922C384.5 270.549 379.127 275.922 372.5 275.922H12.5C5.87258 275.922 0.5 270.549 0.5 263.922V12.9219Z" fill="#F2F1E8"/>
<mask id="mask0_1_540" style="mask-type:luminance" maskUnits="userSpaceOnUse" x="42" y="74" width="129" height="129">
<path d="M170.015 138.422C170.015 103.282 141.528 74.7948 106.388 74.7948C71.2475 74.7948 42.7607 103.282 42.7607 138.422C42.7607 173.562 71.2475 202.049 106.388 202.049C141.528 202.049 170.015 173.562 170.015 138.422Z" fill="white"/>
</mask>
<g mask="url(#mask0_1_540)">
<path d="M170.015 138.422C170.015 103.282 141.528 74.7948 106.388 74.7948C71.2475 74.7948 42.7607 103.282 42.7607 138.422C42.7607 173.562 71.2475 202.049 106.388 202.049C141.528 202.049 170.015 173.562 170.015 138.422Z" fill="#2E2E27"/>
<path d="M106.389 140.811C107.708 140.811 108.778 139.741 108.778 138.422C108.778 137.103 107.708 136.033 106.389 136.033C105.07 136.033 104 137.103 104 138.422C104 139.741 105.07 140.811 106.389 140.811Z" fill="#CE8F6B"/>
<path d="M173.708 93.2533L106.389 52.8621V50.4742L-3.91406 141.616L39.3229 196.89L79.3662 216.298L166.976 194.883L182.829 162.092L173.708 93.2533Z" fill="#B8841A"/>
<path d="M106.387 52.8622V138.422L53.0782 50.72L-4.40723 141.616L79.3643 216.298L166.974 194.883L182.827 162.092L173.706 93.2534L106.387 52.8622Z" fill="#B8A9FF"/>
<path d="M106.39 52.8619V138.422L12.5459 143.581L43.7453 218.017L166.976 194.883L182.829 162.092L173.708 93.2532L106.39 52.8619Z" fill="#D06517"/>
<path d="M106.388 52.8619V138.422L135.13 218.263L182.827 162.092L173.706 93.2532L106.388 52.8619Z" fill="#96BB96"/>
<path d="M106.388 189.363C134.522 189.363 157.329 166.556 157.329 138.422C157.329 110.288 134.522 87.4806 106.388 87.4806C78.2539 87.4806 55.4467 110.288 55.4467 138.422C55.4467 166.556 78.2539 189.363 106.388 189.363Z" fill="#F2F1E8"/>
</g>
<mask id="mask1_1_540" style="mask-type:luminance" maskUnits="userSpaceOnUse" x="196" y="76" width="124" height="32">
<path d="M319.24 76.9524H196.219V107.687H319.24V76.9524Z" fill="white"/>
</mask>
<g mask="url(#mask1_1_540)">
<path d="M196.219 92.3198C196.219 89.3047 198.663 86.8606 201.678 86.8606C204.693 86.8606 207.137 89.3047 207.137 92.3198C207.137 95.3348 204.693 97.779 201.678 97.779C198.663 97.779 196.219 95.3348 196.219 92.3198Z" fill="#96BB96"/>
<path d="M217.645 97.3198H216.147L220.213 86.4057H222.032L226.098 97.3198H224.6L223.408 94.1251H218.853L217.645 97.3198ZM219.281 92.9328H222.98L221.146 87.705H221.1L219.281 92.9328ZM234.297 94.9046C233.854 96.5555 232.707 97.5032 230.797 97.5032C228.336 97.5032 226.746 95.7606 226.746 93.3761C226.746 90.9915 228.336 89.2336 230.797 89.2336C232.814 89.2336 233.9 90.3495 234.236 91.7863H232.86C232.57 91.0679 232.035 90.3648 230.751 90.3648C229.146 90.3648 228.122 91.6793 228.122 93.3761C228.122 95.0575 229.146 96.3568 230.751 96.3568C231.897 96.3568 232.555 95.8371 232.906 94.9046H234.297ZM235.978 97.3198V89.417H237.354V90.7622C237.506 90.0438 238.286 89.2336 239.356 89.2336C240.64 89.2336 241.374 89.7228 241.741 90.808C242.23 89.738 242.948 89.2336 244.003 89.2336C245.929 89.2336 246.678 90.594 246.678 92.1991V97.3198H245.302V92.3366C245.302 90.9456 244.737 90.3953 243.819 90.3953C242.811 90.3953 242 91.3736 242 93.4372V97.3198H240.625V92.3366C240.625 90.9456 240.243 90.3953 239.173 90.3953C237.766 90.3953 237.354 91.7863 237.354 93.4372V97.3198H235.978ZM255.616 94.9658C255.173 96.6472 253.843 97.5032 252.085 97.5032C249.746 97.5032 248.202 95.8065 248.202 93.3302C248.202 90.9456 249.823 89.2336 252.054 89.2336C254.836 89.2336 255.708 91.4653 255.738 93.4983V93.7429H249.532C249.639 95.3938 250.648 96.3568 252.054 96.3568C253.109 96.3568 253.996 95.9441 254.271 94.9658H255.616ZM249.547 92.6423H254.347C254.225 91.2666 253.461 90.3648 252.054 90.3648C250.633 90.3648 249.731 91.2819 249.547 92.6423ZM270.996 94.0945C270.568 95.8829 268.856 97.5185 266.074 97.5185C262.482 97.5185 260.51 94.9352 260.51 91.8628C260.51 88.7903 262.482 86.207 266.074 86.207C268.81 86.207 270.308 87.6745 270.981 89.6158H269.529C268.932 88.24 267.924 87.4299 266.074 87.4299C263.353 87.4299 261.962 89.4935 261.962 91.8628C261.962 94.2321 263.338 96.2956 266.074 96.2956C267.939 96.2956 269.101 95.3632 269.544 94.0945H270.996ZM272.844 91.8016C273.012 90.6552 273.975 89.2183 276.039 89.2183C278.943 89.2183 279.219 91.0985 279.219 92.3213V95.7148C279.219 96.3109 279.28 96.9376 279.341 97.3198H277.873C277.843 96.9376 277.843 96.6166 277.843 96.1734V95.8676H277.828C277.644 96.4791 276.987 97.5032 275.229 97.5032C273.333 97.5032 272.462 96.2956 272.462 95.1645C272.462 92.9328 275.275 92.8563 276.467 92.6423C277.507 92.4589 277.843 92.1685 277.843 91.5112C277.843 90.8539 277.216 90.38 276.085 90.38C275.122 90.38 274.403 90.9456 274.22 91.8016H272.844ZM273.823 95.1645C273.823 95.9135 274.51 96.3874 275.473 96.3874C276.681 96.3874 277.873 95.6078 277.873 93.6512L277.858 92.5506C277.705 93.0703 277.369 93.5289 275.657 93.8346C274.51 94.0333 273.823 94.3696 273.823 95.1645ZM281.259 97.3198V89.417H282.635V90.8998C283.047 89.9979 283.781 89.2336 285.004 89.2336C287.083 89.2336 287.863 90.594 287.863 92.1991V97.3198H286.487V92.3366C286.487 90.9456 285.891 90.3953 284.821 90.3953C283.659 90.3953 282.635 91.3736 282.635 93.4372V97.3198H281.259ZM289.852 91.8016C290.02 90.6552 290.983 89.2183 293.047 89.2183C295.951 89.2183 296.226 91.0985 296.226 92.3213V95.7148C296.226 96.3109 296.287 96.9376 296.349 97.3198H294.881C294.851 96.9376 294.851 96.6166 294.851 96.1734V95.8676H294.835C294.652 96.4791 293.995 97.5032 292.237 97.5032C290.341 97.5032 289.47 96.2956 289.47 95.1645C289.47 92.9328 292.283 92.8563 293.475 92.6423C294.514 92.4589 294.851 92.1685 294.851 91.5112C294.851 90.8539 294.224 90.38 293.093 90.38C292.13 90.38 291.411 90.9456 291.228 91.8016H289.852ZM290.83 95.1645C290.83 95.9135 291.518 96.3874 292.481 96.3874C293.689 96.3874 294.881 95.6078 294.881 93.6512L294.866 92.5506C294.713 93.0703 294.377 93.5289 292.665 93.8346C291.518 94.0333 290.83 94.3696 290.83 95.1645ZM301.385 89.2336C302.822 89.2336 303.816 90.1966 304.106 91.022H304.121V86.4057H305.497V97.3198H304.121V95.7454H304.106C303.816 96.5555 302.822 97.5032 301.385 97.5032C299.153 97.5032 297.778 95.7912 297.778 93.3455C297.778 90.8998 299.153 89.2336 301.385 89.2336ZM299.153 93.3455C299.153 95.0575 299.994 96.3262 301.66 96.3262C303.372 96.3262 304.167 94.9046 304.167 93.3455C304.167 91.8016 303.372 90.3953 301.66 90.3953C300.04 90.3953 299.153 91.6335 299.153 93.3455ZM307.547 91.8016C307.715 90.6552 308.678 89.2183 310.741 89.2183C313.646 89.2183 313.921 91.0985 313.921 92.3213V95.7148C313.921 96.3109 313.982 96.9376 314.043 97.3198H312.576C312.545 96.9376 312.545 96.6166 312.545 96.1734V95.8676H312.53C312.346 96.4791 311.689 97.5032 309.931 97.5032C308.036 97.5032 307.165 96.2956 307.165 95.1645C307.165 92.9328 309.977 92.8563 311.169 92.6423C312.209 92.4589 312.545 92.1685 312.545 91.5112C312.545 90.8539 311.918 90.38 310.787 90.38C309.824 90.38 309.106 90.9456 308.922 91.8016H307.547ZM308.525 95.1645C308.525 95.9135 309.213 96.3874 310.176 96.3874C311.383 96.3874 312.576 95.6078 312.576 93.6512L312.56 92.5506C312.408 93.0703 312.071 93.5289 310.359 93.8346C309.213 94.0333 308.525 94.3696 308.525 95.1645Z" fill="#2E2E27"/>
</g>
<mask id="mask2_1_540" style="mask-type:luminance" maskUnits="userSpaceOnUse" x="196" y="107" width="121" height="32">
<path d="M316.24 107.687H196.219V138.422H316.24V107.687Z" fill="white"/>
</mask>
<g mask="url(#mask2_1_540)">
<path d="M196.219 123.055C196.219 120.04 198.663 117.595 201.678 117.595C204.693 117.595 207.137 120.04 207.137 123.055C207.137 126.07 204.693 128.514 201.678 128.514C198.663 128.514 196.219 126.07 196.219 123.055Z" fill="#D06517"/>
<path d="M217.645 128.055H216.147L220.213 117.141H222.032L226.098 128.055H224.6L223.408 124.86H218.853L217.645 128.055ZM219.281 123.668H222.98L221.146 118.44H221.1L219.281 123.668ZM234.297 125.639C233.854 127.29 232.707 128.238 230.797 128.238C228.336 128.238 226.746 126.495 226.746 124.111C226.746 121.726 228.336 119.968 230.797 119.968C232.814 119.968 233.9 121.084 234.236 122.521H232.86C232.57 121.803 232.035 121.1 230.751 121.1C229.146 121.1 228.122 122.414 228.122 124.111C228.122 125.792 229.146 127.092 230.751 127.092C231.897 127.092 232.555 126.572 232.906 125.639H234.297ZM235.978 128.055V120.152H237.354V121.497C237.506 120.779 238.286 119.968 239.356 119.968C240.64 119.968 241.374 120.458 241.741 121.543C242.23 120.473 242.948 119.968 244.003 119.968C245.929 119.968 246.678 121.329 246.678 122.934V128.055H245.302V123.071C245.302 121.68 244.737 121.13 243.819 121.13C242.811 121.13 242 122.108 242 124.172V128.055H240.625V123.071C240.625 121.68 240.243 121.13 239.173 121.13C237.766 121.13 237.354 122.521 237.354 124.172V128.055H235.978ZM255.616 125.701C255.173 127.382 253.843 128.238 252.085 128.238C249.746 128.238 248.202 126.541 248.202 124.065C248.202 121.68 249.823 119.968 252.054 119.968C254.836 119.968 255.708 122.2 255.738 124.233V124.478H249.532C249.639 126.129 250.648 127.092 252.054 127.092C253.109 127.092 253.996 126.679 254.271 125.701H255.616ZM249.547 123.377H254.347C254.225 122.001 253.461 121.1 252.054 121.1C250.633 121.1 249.731 122.017 249.547 123.377ZM269.253 124.172C269.253 126.465 267.954 128.314 265.142 128.314C262.329 128.314 261.03 126.465 261.03 124.172V117.141H262.482V124.172C262.482 125.746 263.307 127.092 265.142 127.092C266.976 127.092 267.801 125.746 267.801 124.172V117.141H269.253V124.172ZM272.588 124.676C272.649 126.312 273.765 127.092 275.355 127.092C276.639 127.092 277.739 126.495 277.739 125.166C277.739 123.82 276.608 123.591 275.232 123.178C273.429 122.643 271.594 122.108 271.549 120.045C271.503 117.935 273.245 116.881 275.217 116.881C277.403 116.881 278.84 117.981 279.008 120.167H277.541C277.342 118.791 276.654 118.104 275.217 118.104C274.01 118.104 273.001 118.608 273.001 119.938C273.001 121.054 274.071 121.482 275.508 121.894C277.327 122.414 279.191 122.812 279.191 125.12C279.191 127.351 277.311 128.314 275.355 128.314C272.97 128.314 271.166 127.168 271.136 124.676H272.588ZM281.174 126.22H282.702L281.602 129.904H280.379L281.174 126.22ZM288.18 117.141H289.632V128.055H288.18V117.141ZM291.888 128.055V120.152H293.264V121.635C293.676 120.733 294.41 119.968 295.633 119.968C297.712 119.968 298.491 121.329 298.491 122.934V128.055H297.116V123.071C297.116 121.68 296.52 121.13 295.45 121.13C294.288 121.13 293.264 122.108 293.264 124.172V128.055H291.888ZM307.558 125.639C307.115 127.29 305.969 128.238 304.058 128.238C301.597 128.238 300.007 126.495 300.007 124.111C300.007 121.726 301.597 119.968 304.058 119.968C306.076 119.968 307.161 121.084 307.497 122.521H306.122C305.831 121.803 305.296 121.1 304.012 121.1C302.407 121.1 301.383 122.414 301.383 124.111C301.383 125.792 302.407 127.092 304.012 127.092C305.159 127.092 305.816 126.572 306.167 125.639H307.558ZM308.805 126.22H310.486V128.055H308.805V126.22Z" fill="#2E2E27"/>
</g>
<mask id="mask3_1_540" style="mask-type:luminance" maskUnits="userSpaceOnUse" x="196" y="138" width="147" height="32">
<path d="M342.24 138.422H196.219V169.157H342.24V138.422Z" fill="white"/>
</mask>
<g mask="url(#mask3_1_540)">
<path d="M196.219 153.789C196.219 150.774 198.663 148.33 201.678 148.33C204.693 148.33 207.137 150.774 207.137 153.789C207.137 156.804 204.693 159.249 201.678 159.249C198.663 159.249 196.219 156.804 196.219 153.789Z" fill="#B8A9FF"/>
<path d="M217.645 158.789H216.147L220.213 147.875H222.032L226.098 158.789H224.6L223.408 155.595H218.853L217.645 158.789ZM219.281 154.402H222.98L221.146 149.175H221.1L219.281 154.402ZM234.297 156.374C233.854 158.025 232.707 158.973 230.797 158.973C228.336 158.973 226.746 157.23 226.746 154.846C226.746 152.461 228.336 150.703 230.797 150.703C232.814 150.703 233.9 151.819 234.236 153.256H232.86C232.57 152.537 232.035 151.834 230.751 151.834C229.146 151.834 228.122 153.149 228.122 154.846C228.122 156.527 229.146 157.826 230.751 157.826C231.897 157.826 232.555 157.307 232.906 156.374H234.297ZM235.978 158.789V150.887H237.354V152.232C237.506 151.513 238.286 150.703 239.356 150.703C240.64 150.703 241.374 151.192 241.741 152.278C242.23 151.208 242.948 150.703 244.003 150.703C245.929 150.703 246.678 152.064 246.678 153.669V158.789H245.302V153.806C245.302 152.415 244.737 151.865 243.819 151.865C242.811 151.865 242 152.843 242 154.907V158.789H240.625V153.806C240.625 152.415 240.243 151.865 239.173 151.865C237.766 151.865 237.354 153.256 237.354 154.907V158.789H235.978ZM255.616 156.435C255.173 158.117 253.843 158.973 252.085 158.973C249.746 158.973 248.202 157.276 248.202 154.8C248.202 152.415 249.823 150.703 252.054 150.703C254.836 150.703 255.708 152.935 255.738 154.968V155.212H249.532C249.639 156.863 250.648 157.826 252.054 157.826C253.109 157.826 253.996 157.414 254.271 156.435H255.616ZM249.547 154.112H254.347C254.225 152.736 253.461 151.834 252.054 151.834C250.633 151.834 249.731 152.751 249.547 154.112ZM261.091 158.789V147.875L263.537 147.891L266.594 157.093H266.609L269.636 147.875H272.081V158.789H270.629V149.404H270.599L267.434 158.789H265.753L262.574 149.404H262.543V158.789H261.091ZM281.172 156.435C280.729 158.117 279.399 158.973 277.641 158.973C275.303 158.973 273.759 157.276 273.759 154.8C273.759 152.415 275.379 150.703 277.611 150.703C280.393 150.703 281.264 152.935 281.295 154.968V155.212H275.089C275.196 156.863 276.204 157.826 277.611 157.826C278.665 157.826 279.552 157.414 279.827 156.435H281.172ZM275.104 154.112H279.904C279.781 152.736 279.017 151.834 277.611 151.834C276.189 151.834 275.287 152.751 275.104 154.112ZM276.816 149.878L278.176 147.875H279.919L277.825 149.878H276.816ZM281.929 158.789L284.802 154.739L282.081 150.887H283.748L285.628 153.638L287.508 150.887H289.174L286.468 154.723L289.327 158.789H287.661L285.628 155.824L283.595 158.789H281.929ZM292.157 149.404H290.689V147.875H292.157V149.404ZM290.659 158.789V150.887H292.034V158.789H290.659ZM301.284 156.374C300.84 158.025 299.694 158.973 297.783 158.973C295.322 158.973 293.732 157.23 293.732 154.846C293.732 152.461 295.322 150.703 297.783 150.703C299.801 150.703 300.886 151.819 301.222 153.256H299.847C299.556 152.537 299.021 151.834 297.737 151.834C296.132 151.834 295.108 153.149 295.108 154.846C295.108 156.527 296.132 157.826 297.737 157.826C298.884 157.826 299.541 157.307 299.893 156.374H301.284ZM306.434 158.973C304.034 158.973 302.475 157.169 302.475 154.846C302.475 152.522 304.034 150.703 306.434 150.703C308.834 150.703 310.393 152.522 310.393 154.846C310.393 157.169 308.834 158.973 306.434 158.973ZM303.851 154.846C303.851 156.466 304.89 157.811 306.434 157.811C307.978 157.811 309.017 156.466 309.017 154.846C309.017 153.21 307.978 151.865 306.434 151.865C304.89 151.865 303.851 153.21 303.851 154.846ZM311.786 156.955H313.315L312.214 160.639H310.991L311.786 156.955ZM319.755 155.411C319.816 157.047 320.932 157.826 322.522 157.826C323.806 157.826 324.907 157.23 324.907 155.9C324.907 154.555 323.775 154.326 322.4 153.913C320.596 153.378 318.762 152.843 318.716 150.78C318.67 148.67 320.413 147.615 322.384 147.615C324.57 147.615 326.007 148.716 326.175 150.902H324.708C324.509 149.526 323.821 148.838 322.384 148.838C321.177 148.838 320.168 149.343 320.168 150.673C320.168 151.788 321.238 152.216 322.675 152.629C324.494 153.149 326.359 153.546 326.359 155.855C326.359 158.086 324.479 159.049 322.522 159.049C320.137 159.049 318.334 157.903 318.303 155.411H319.755ZM328.788 158.789H327.29L331.356 147.875H333.175L337.241 158.789H335.743L334.551 155.595H329.996L328.788 158.789ZM330.424 154.402H334.123L332.289 149.175H332.243L330.424 154.402Z" fill="#2E2E27"/>
</g>
<mask id="mask4_1_540" style="mask-type:luminance" maskUnits="userSpaceOnUse" x="196" y="169" width="145" height="31">
<path d="M340.24 169.157H196.219V199.892H340.24V169.157Z" fill="white"/>
</mask>
<g mask="url(#mask4_1_540)">
<path d="M196.219 184.524C196.219 181.509 198.663 179.065 201.678 179.065C204.693 179.065 207.137 181.509 207.137 184.524C207.137 187.539 204.693 189.983 201.678 189.983C198.663 189.983 196.219 187.539 196.219 184.524Z" fill="#B8841A"/>
<path d="M217.645 189.524H216.147L220.213 178.61H222.032L226.098 189.524H224.6L223.408 186.329H218.853L217.645 189.524ZM219.281 185.137H222.98L221.146 179.909H221.1L219.281 185.137ZM234.297 187.109C233.854 188.76 232.707 189.708 230.797 189.708C228.336 189.708 226.746 187.965 226.746 185.58C226.746 183.196 228.336 181.438 230.797 181.438C232.814 181.438 233.9 182.554 234.236 183.991H232.86C232.57 183.272 232.035 182.569 230.751 182.569C229.146 182.569 228.122 183.884 228.122 185.58C228.122 187.262 229.146 188.561 230.751 188.561C231.897 188.561 232.555 188.041 232.906 187.109H234.297ZM235.978 189.524V181.621H237.354V182.966C237.506 182.248 238.286 181.438 239.356 181.438C240.64 181.438 241.374 181.927 241.741 183.012C242.23 181.942 242.948 181.438 244.003 181.438C245.929 181.438 246.678 182.798 246.678 184.403V189.524H245.302V184.541C245.302 183.15 244.737 182.6 243.819 182.6C242.811 182.6 242 183.578 242 185.641V189.524H240.625V184.541C240.625 183.15 240.243 182.6 239.173 182.6C237.766 182.6 237.354 183.991 237.354 185.641V189.524H235.978ZM255.616 187.17C255.173 188.852 253.843 189.708 252.085 189.708C249.746 189.708 248.202 188.011 248.202 185.534C248.202 183.15 249.823 181.438 252.054 181.438C254.836 181.438 255.708 183.67 255.738 185.703V185.947H249.532C249.639 187.598 250.648 188.561 252.054 188.561C253.109 188.561 253.996 188.148 254.271 187.17H255.616ZM249.547 184.847H254.347C254.225 183.471 253.461 182.569 252.054 182.569C250.633 182.569 249.731 183.486 249.547 184.847ZM261.091 178.61H262.543V189.524H261.091V178.61ZM266.465 187.308C266.465 188.011 266.862 188.393 267.474 188.393H268.024V189.524H267.336C265.808 189.524 265.12 188.622 265.12 187.399V182.752H263.943V181.621H265.12V179.772L266.465 179.16V181.621H267.978V182.752H266.465V187.308ZM269.556 184.006C269.724 182.859 270.687 181.423 272.75 181.423C275.655 181.423 275.93 183.303 275.93 184.526V187.919C275.93 188.515 275.991 189.142 276.052 189.524H274.585C274.554 189.142 274.554 188.821 274.554 188.378V188.072H274.539C274.355 188.683 273.698 189.708 271.94 189.708C270.045 189.708 269.173 188.5 269.173 187.369C269.173 185.137 271.986 185.061 273.178 184.847C274.218 184.663 274.554 184.373 274.554 183.715C274.554 183.058 273.927 182.584 272.796 182.584C271.833 182.584 271.115 183.15 270.931 184.006H269.556ZM270.534 187.369C270.534 188.118 271.222 188.592 272.185 188.592C273.392 188.592 274.585 187.812 274.585 185.855L274.569 184.755C274.416 185.275 274.08 185.733 272.368 186.039C271.222 186.238 270.534 186.574 270.534 187.369ZM277.97 178.61H279.346V189.524H277.97V178.61ZM282.912 180.139H281.444V178.61H282.912V180.139ZM281.414 189.524V181.621H282.789V189.524H281.414ZM284.797 184.006C284.965 182.859 285.928 181.423 287.992 181.423C290.896 181.423 291.171 183.303 291.171 184.526V187.919C291.171 188.515 291.232 189.142 291.294 189.524H289.826C289.796 189.142 289.796 188.821 289.796 188.378V188.072H289.78C289.597 188.683 288.94 189.708 287.182 189.708C285.286 189.708 284.415 188.5 284.415 187.369C284.415 185.137 287.228 185.061 288.42 184.847C289.459 184.663 289.796 184.373 289.796 183.715C289.796 183.058 289.169 182.584 288.038 182.584C287.075 182.584 286.356 183.15 286.173 184.006H284.797ZM285.775 187.369C285.775 188.118 286.463 188.592 287.426 188.592C288.634 188.592 289.826 187.812 289.826 185.855L289.811 184.755C289.658 185.275 289.322 185.733 287.61 186.039C286.463 186.238 285.775 186.574 285.775 187.369ZM293.395 187.69H294.924L293.823 191.374H292.6L293.395 187.69ZM301.365 186.146C301.426 187.782 302.542 188.561 304.131 188.561C305.415 188.561 306.516 187.965 306.516 186.635C306.516 185.29 305.385 185.061 304.009 184.648C302.205 184.113 300.371 183.578 300.325 181.514C300.279 179.405 302.022 178.35 303.994 178.35C306.18 178.35 307.617 179.451 307.785 181.637H306.317C306.119 180.261 305.431 179.573 303.994 179.573C302.786 179.573 301.777 180.077 301.777 181.407C301.777 182.523 302.847 182.951 304.284 183.364C306.103 183.884 307.968 184.281 307.968 186.589C307.968 188.821 306.088 189.784 304.131 189.784C301.747 189.784 299.943 188.638 299.912 186.146H301.365ZM309.706 187.69H311.387V189.524H309.706V187.69ZM317.516 181.438C319.748 181.438 321.124 183.104 321.124 185.55C321.124 187.996 319.748 189.708 317.516 189.708C316.08 189.708 315.086 188.76 314.796 187.95H314.78V192.581H313.405V181.621H314.78V183.226H314.796C315.086 182.401 316.08 181.438 317.516 181.438ZM314.734 185.55C314.734 187.109 315.529 188.531 317.241 188.531C318.907 188.531 319.748 187.262 319.748 185.55C319.748 183.838 318.862 182.6 317.241 182.6C315.529 182.6 314.734 184.006 314.734 185.55ZM322.265 187.69H323.947V189.524H322.265V187.69ZM326.759 189.524H325.261L329.327 178.61H331.146L335.212 189.524H333.714L332.522 186.329H327.966L326.759 189.524ZM328.394 185.137H332.094L330.259 179.909H330.213L328.394 185.137Z" fill="#2E2E27"/>
</g>
</g>
</g>
<defs>
<clipPath id="clip0_1_540">
<path d="M0.5 12.9219C0.5 6.29446 5.87258 0.921875 12.5 0.921875H372.5C379.127 0.921875 384.5 6.29446 384.5 12.9219V263.922C384.5 270.549 379.127 275.922 372.5 275.922H12.5C5.87258 275.922 0.5 270.549 0.5 263.922V12.9219Z" fill="white"/>
</clipPath>
<clipPath id="clip1_1_540">
<rect width="384" height="275" fill="white" transform="translate(0.5 0.921875)"/>
</clipPath>
</defs>
</svg>
