<svg width="383" height="268" viewBox="0 0 383 268" fill="none" xmlns="http://www.w3.org/2000/svg">
<g clip-path="url(#clip0_1_219)">
<mask id="mask0_1_219" style="mask-type:luminance" maskUnits="userSpaceOnUse" x="-4" y="-3" width="391" height="280">
<path d="M386.318 -2.57812H-3.3125V276.442H386.318V-2.57812Z" fill="white"/>
</mask>
<g mask="url(#mask0_1_219)">
<path d="M361.766 71.0313L321.408 102.293L279.157 109.89L234.384 127.159L190.761 135.393L152.978 169.809L102.97 173.529L55.1848 197.716L17.4556 208.615L-3.3125 221.912V276.442H386.318V55.8496L361.766 71.0313Z" fill="#D0D7AC"/>
<path d="M-20.3811 232.841L16.8245 208.613L55.1909 197.714L102.974 173.529L152.982 169.808L190.765 135.39L235.014 125.085L279.156 109.889L321.407 102.291L361.765 71.0292L403.386 45.2944" stroke="#3E7B52" stroke-width="2"/>
<path d="M191.503 82.5229C221.553 82.5229 245.914 106.883 245.914 136.932C245.914 166.981 221.553 191.341 191.503 191.341C161.452 191.341 137.091 166.981 137.091 136.932C137.091 106.883 161.452 82.5229 191.503 82.5229Z" fill="#0B3721"/>
<path d="M191.947 112.961C184.592 112.961 178.63 118.994 178.63 126.437V134.714H177.869C175.346 134.714 173.303 136.782 173.303 139.333V157.044C173.303 159.594 175.346 161.663 177.869 161.663H205.264C207.786 161.663 209.83 159.594 209.83 157.044V139.333C209.83 136.782 207.786 134.714 205.264 134.714V134.709H199.176V134.714H184.717V126.437C184.717 122.396 187.953 119.121 191.947 119.121C195.94 119.121 199.176 122.396 199.176 126.437V128.066C199.176 129.186 200.085 130.095 201.206 130.095H203.235C204.355 130.095 205.264 129.186 205.264 128.066V126.437C205.264 118.994 199.301 112.961 191.947 112.961Z" fill="white"/>
<path d="M194.102 150.454C195.619 149.566 196.639 147.907 196.639 146.006C196.639 143.172 194.368 140.874 191.565 140.874C188.764 140.874 186.492 143.172 186.492 146.006C186.492 147.907 187.513 149.566 189.029 150.454V154.733C189.029 155.583 189.711 156.273 190.551 156.273H192.58C193.421 156.273 194.102 155.583 194.102 154.733V150.454Z" fill="#0B3721"/>
</g>
</g>
<defs>
<clipPath id="clip0_1_219">
<rect width="389.63" height="279.02" fill="white" transform="translate(-3.3125 -2.57812)"/>
</clipPath>
</defs>
</svg>
