<svg width="383" height="268" viewBox="0 0 383 268" fill="none" xmlns="http://www.w3.org/2000/svg">
<g clip-path="url(#clip0_1_245)">
<rect width="382" height="267.4" transform="translate(0.5 0.09375)" fill="#F2F1E8"/>
<rect width="389.63" height="272.74" transform="translate(-3.3125 -2.57812)" fill="#F2F1E8"/>
<g clip-path="url(#clip1_1_245)">
<mask id="mask0_1_245" style="mask-type:luminance" maskUnits="userSpaceOnUse" x="-4" y="-3" width="391" height="274">
<path d="M386.318 -2.57812H-3.3125V270.162H386.318V-2.57812Z" fill="white"/>
</mask>
<g mask="url(#mask0_1_245)">
<path d="M38.0857 72.366C38.0857 66.4507 42.9923 61.6548 49.044 61.6548H333.961C340.013 61.6548 344.919 66.4507 344.919 72.366V115.211C344.919 121.126 340.013 125.922 333.961 125.922H49.044C42.9923 125.922 38.0857 121.126 38.0857 115.211V72.366Z" fill="#0B3721"/>
<path d="M38.0857 151.708C38.0857 145.793 42.9923 140.997 49.044 140.997H333.961C340.013 140.997 344.919 145.793 344.919 151.708V194.553C344.919 200.469 340.013 205.265 333.961 205.265H49.044C42.9923 205.265 38.0857 200.469 38.0857 194.553V151.708Z" fill="#3E7B52"/>
<path d="M90.777 95.5453C90.8592 97.1681 91.9934 97.9714 93.6043 97.9714C94.9522 97.9714 96.0206 97.3769 96.0206 96.0755C96.0206 94.742 94.87 94.501 93.3906 94.0672C91.451 93.4888 89.4949 92.9103 89.4456 90.6931C89.4127 88.492 91.3524 87.3994 93.4728 87.3994C95.8234 87.3994 97.4178 88.5241 97.6315 90.902H95.8398C95.6261 89.5202 94.9193 88.8454 93.4564 88.8454C92.2235 88.8454 91.2209 89.3435 91.2209 90.6289C91.2209 91.7375 92.3057 92.1713 93.8344 92.6051C95.8069 93.1674 97.7959 93.6173 97.7959 96.0434C97.7959 98.3891 95.7412 99.4174 93.6043 99.4174C91.04 99.4174 89.084 98.1963 88.9854 95.5453H90.777ZM99.8926 87.6726H101.668V99.1443H99.8926V87.6726ZM108.051 93.2478C109.645 93.2478 110.615 92.4926 110.615 91.1751C110.615 89.8576 109.728 89.1186 108.133 89.1186H106.029V93.2478H108.051ZM104.254 99.1443V87.6726H108.298C110.747 87.6726 112.391 89.1668 112.391 91.1751C112.391 93.1996 110.599 94.7098 108.215 94.7098H106.029V99.1443H104.254ZM124.983 95.6899C124.489 97.6983 122.599 99.3532 119.624 99.3532C115.86 99.3532 113.657 96.7343 113.657 93.4084C113.657 90.1147 115.876 87.4637 119.64 87.4637C122.583 87.4637 124.259 88.974 124.983 91.1269H123.207C122.583 89.713 121.498 88.9258 119.64 88.9258C116.928 88.9258 115.432 90.9663 115.432 93.4084C115.432 95.8506 116.912 97.8911 119.64 97.8911C121.564 97.8911 122.747 96.9753 123.224 95.6899H124.983ZM132.577 89.3917H130.801V87.6726H132.577V89.3917ZM130.769 90.8377H132.462V99.1443H130.769V90.8377ZM134.777 99.1443V90.8377H136.453V92.348C136.897 91.4001 137.686 90.6289 139.001 90.6289C141.22 90.6289 142.058 92.0588 142.058 93.8583V99.1443H140.382V94.1314C140.382 92.7497 139.839 92.0427 138.672 92.0427C137.456 92.0427 136.47 93.055 136.47 95.1758V99.1443H134.777ZM148.829 93.3281C148.73 92.3319 147.892 91.9463 147.07 91.9463C146.297 91.9463 145.574 92.3801 145.574 93.0228C145.574 93.6334 146.166 93.9868 146.955 94.1796C147.349 94.276 147.711 94.3564 148.089 94.4528C149.421 94.7902 150.604 95.4168 150.604 96.7664C150.604 98.4695 148.829 99.3532 147.185 99.3532C145.607 99.3532 143.832 98.6462 143.667 96.6218H145.344C145.525 97.6019 146.15 98.0196 147.218 98.0196C148.04 98.0196 148.927 97.7304 148.927 96.8628C148.927 96.1719 148.254 95.947 147.497 95.7542C147.103 95.6578 146.692 95.5614 146.297 95.4489C144.982 95.1276 143.914 94.3724 143.914 93.0871C143.914 91.5447 145.492 90.6289 147.119 90.6289C148.862 90.6289 150.292 91.5286 150.473 93.3281H148.829ZM152.213 96.1237V90.8377H153.89V95.8506C153.89 97.2323 154.432 97.9393 155.599 97.9393C156.816 97.9393 157.802 96.9271 157.802 94.8062V90.8377H159.495V99.1443H157.818V97.634C157.375 98.582 156.586 99.3532 155.271 99.3532C153.051 99.3532 152.213 97.9232 152.213 96.1237ZM163.373 90.8377V92.4444C163.817 91.2555 164.672 90.7895 165.921 90.7895V92.348C165.839 92.348 165.461 92.3641 165.214 92.4283C164.31 92.5729 163.39 93.0067 163.39 95.2882V99.1443H161.697V90.8377H163.373ZM166.988 93.3602C167.185 92.0909 168.27 90.6128 170.489 90.6128C173.464 90.6128 173.99 92.4283 173.99 93.9708V97.3448C173.99 97.9714 174.039 98.6944 174.122 99.1443H172.363C172.33 98.7908 172.33 98.4534 172.33 98.0517V97.6983H172.314C172.067 98.357 171.36 99.3532 169.552 99.3532C167.58 99.3532 166.577 98.1321 166.577 96.8789C166.577 94.5492 169.536 94.4206 170.785 94.2118C171.886 94.035 172.314 93.778 172.314 93.0871C172.314 92.3962 171.656 91.9463 170.522 91.9463C169.552 91.9463 168.829 92.4926 168.632 93.3602H166.988ZM168.253 96.8467C168.253 97.5697 168.911 98.0517 169.93 98.0517C171.146 98.0517 172.346 97.2966 172.346 95.2882V94.276C172.166 94.7741 171.755 95.24 170.127 95.5132C168.927 95.7381 168.253 96.0755 168.253 96.8467ZM176.117 99.1443V90.8377H177.794V92.348C178.237 91.4001 179.026 90.6289 180.341 90.6289C182.56 90.6289 183.399 92.0588 183.399 93.8583V99.1443H181.722V94.1314C181.722 92.7497 181.18 92.0427 180.013 92.0427C178.796 92.0427 177.81 93.055 177.81 95.1758V99.1443H176.117ZM193.26 96.5254C192.817 98.3249 191.469 99.3532 189.414 99.3532C186.817 99.3532 185.009 97.5697 185.009 94.999C185.009 92.4123 186.817 90.6289 189.414 90.6289C191.551 90.6289 192.849 91.8017 193.195 93.4084H191.551C191.239 92.6211 190.63 91.9624 189.381 91.9624C187.737 91.9624 186.685 93.296 186.685 94.999C186.685 96.6861 187.737 98.0035 189.381 98.0035C190.515 98.0035 191.255 97.4894 191.6 96.5254H193.26ZM202.611 96.6861C202.134 98.4052 200.687 99.3532 198.731 99.3532C196.2 99.3532 194.507 97.5697 194.507 94.9508C194.507 92.4444 196.282 90.6289 198.715 90.6289C201.657 90.6289 202.726 92.8943 202.742 95.1436V95.4489H196.134C196.266 97.0395 197.285 98.0035 198.715 98.0035C199.767 98.0035 200.655 97.6019 200.95 96.6861H202.611ZM196.151 94.2118H201.065C200.934 92.8943 200.178 91.9463 198.715 91.9463C197.268 91.9463 196.348 92.8621 196.151 94.2118Z" fill="white"/>
<path d="M89.5443 178.487V167.016H96.8589V168.478H91.3195V171.948H96.3987V173.394H91.3195V178.487H89.5443ZM102.176 167.016C106.088 167.016 108.274 169.185 108.274 172.575C108.274 175.997 106.088 178.487 102.258 178.487H98.6086V167.016H102.176ZM100.384 177.025H102.291C104.658 177.025 106.499 175.515 106.499 172.575C106.499 169.763 104.658 168.478 102.241 168.478H100.384V177.025ZM110.225 167.016H112.001V178.487H110.225V167.016ZM125.271 175.033C124.778 177.041 122.888 178.696 119.913 178.696C116.148 178.696 113.946 176.077 113.946 172.751C113.946 169.458 116.165 166.807 119.929 166.807C122.871 166.807 124.548 168.317 125.271 170.47H123.496C122.871 169.056 121.786 168.269 119.929 168.269C117.217 168.269 115.721 170.309 115.721 172.751C115.721 175.194 117.2 177.234 119.929 177.234C121.852 177.234 123.036 176.318 123.512 175.033H125.271ZM132.865 168.735H131.09V167.016H132.865V168.735ZM131.057 170.181H132.75V178.487H131.057V170.181ZM135.065 178.487V170.181H136.742V171.691C137.186 170.743 137.975 169.972 139.29 169.972C141.509 169.972 142.347 171.402 142.347 173.201V178.487H140.67V173.474C140.67 172.093 140.128 171.386 138.961 171.386C137.745 171.386 136.758 172.398 136.758 174.519V178.487H135.065ZM149.118 172.671C149.02 171.675 148.181 171.289 147.36 171.289C146.587 171.289 145.864 171.723 145.864 172.366C145.864 172.976 146.456 173.33 147.245 173.523C147.639 173.619 148.001 173.699 148.379 173.796C149.71 174.133 150.894 174.76 150.894 176.109C150.894 177.812 149.118 178.696 147.475 178.696C145.897 178.696 144.121 177.989 143.957 175.965H145.634C145.814 176.945 146.439 177.363 147.507 177.363C148.329 177.363 149.217 177.073 149.217 176.206C149.217 175.515 148.543 175.29 147.787 175.097C147.392 175.001 146.981 174.904 146.587 174.792C145.272 174.471 144.204 173.715 144.204 172.43C144.204 170.888 145.782 169.972 147.409 169.972C149.151 169.972 150.581 170.872 150.762 172.671H149.118ZM152.502 175.467V170.181H154.178V175.194C154.178 176.575 154.721 177.282 155.888 177.282C157.104 177.282 158.091 176.27 158.091 174.149V170.181H159.784V178.487H158.107V176.977C157.663 177.925 156.874 178.696 155.559 178.696C153.34 178.696 152.502 177.266 152.502 175.467ZM163.662 170.181V171.787C164.106 170.598 164.96 170.132 166.21 170.132V171.691C166.128 171.691 165.749 171.707 165.503 171.771C164.599 171.916 163.678 172.35 163.678 174.631V178.487H161.985V170.181H163.662ZM167.276 172.703C167.474 171.434 168.558 169.956 170.778 169.956C173.753 169.956 174.279 171.771 174.279 173.314V176.688C174.279 177.314 174.328 178.037 174.41 178.487H172.651C172.619 178.134 172.619 177.796 172.619 177.395V177.041H172.602C172.356 177.7 171.649 178.696 169.841 178.696C167.868 178.696 166.865 177.475 166.865 176.222C166.865 173.892 169.824 173.764 171.073 173.555C172.175 173.378 172.602 173.121 172.602 172.43C172.602 171.739 171.945 171.289 170.81 171.289C169.841 171.289 169.117 171.836 168.92 172.703H167.276ZM168.542 176.19C168.542 176.913 169.2 177.395 170.219 177.395C171.435 177.395 172.635 176.64 172.635 174.631V173.619C172.454 174.117 172.043 174.583 170.416 174.856C169.216 175.081 168.542 175.418 168.542 176.19ZM176.406 178.487V170.181H178.083V171.691C178.527 170.743 179.316 169.972 180.631 169.972C182.85 169.972 183.688 171.402 183.688 173.201V178.487H182.012V173.474C182.012 172.093 181.469 171.386 180.302 171.386C179.086 171.386 178.1 172.398 178.1 174.519V178.487H176.406ZM193.549 175.868C193.105 177.668 191.757 178.696 189.703 178.696C187.105 178.696 185.297 176.913 185.297 174.342C185.297 171.755 187.105 169.972 189.703 169.972C191.839 169.972 193.138 171.145 193.483 172.751H191.839C191.527 171.964 190.919 171.305 189.67 171.305C188.026 171.305 186.974 172.639 186.974 174.342C186.974 176.029 188.026 177.347 189.67 177.347C190.804 177.347 191.544 176.832 191.889 175.868H193.549ZM202.899 176.029C202.423 177.748 200.976 178.696 199.02 178.696C196.489 178.696 194.795 176.913 194.795 174.294C194.795 171.787 196.571 169.972 199.004 169.972C201.946 169.972 203.014 172.237 203.031 174.487V174.792H196.423C196.554 176.382 197.573 177.347 199.004 177.347C200.056 177.347 200.943 176.945 201.239 176.029H202.899ZM196.439 173.555H201.354C201.223 172.237 200.466 171.289 199.004 171.289C197.557 171.289 196.636 172.205 196.439 173.555Z" fill="white"/>
<path d="M60.2243 174.371L62.279 176.38L67.0751 171.692" stroke="white" stroke-width="1.35" stroke-linecap="round" stroke-linejoin="round"/>
<path d="M56.1862 166.919H71.084V172.472V173.019C71.084 176.705 68.8997 180.058 65.4834 181.618L63.889 182.346C63.7282 182.42 63.5419 182.42 63.3812 182.346L61.785 181.617C58.3687 180.057 56.1843 176.705 56.1843 173.019V172.472L56.1862 166.919Z" stroke="white" stroke-width="1.35" stroke-linecap="round" stroke-linejoin="round"/>
<path d="M60.2243 94.5829L62.279 96.5913L67.0751 91.9033" stroke="white" stroke-width="1.35" stroke-linecap="round" stroke-linejoin="round"/>
<path d="M56.1862 87.1304H71.084V92.6833V93.2295C71.084 96.916 68.8997 100.269 65.4834 101.829L63.889 102.557C63.7282 102.631 63.5419 102.631 63.3812 102.557L61.785 101.828C58.3687 100.268 56.1843 96.916 56.1843 93.2304V92.6833L56.1862 87.1304Z" stroke="white" stroke-width="1.35" stroke-linecap="round" stroke-linejoin="round"/>
<path d="M299.359 84.551C299.255 84.4885 299.135 84.4725 299.016 84.4725C298.728 84.5894 298.464 84.6912 298.217 84.8554C297.522 85.3936 297.259 86.2684 297.138 87.0887C297.099 87.51 297.283 87.8849 297.362 88.2669C297.466 88.9078 297.809 89.4068 298.217 89.8986L298.336 89.9379C298.361 89.8986 298.313 89.8361 298.313 89.7817C297.922 89.048 297.458 88.2669 297.577 87.3306C297.698 87.1271 297.969 86.9477 297.905 86.6897H297.865C297.745 86.8932 297.641 87.1271 297.458 87.2288C297.641 86.9477 297.666 86.5728 297.722 86.2291C297.786 86.1283 297.882 86.2684 297.929 86.2916L297.993 86.2139C298.033 86.1907 298.097 86.1747 298.114 86.2139C298.153 86.471 298.153 86.729 298.089 86.9557C298.169 86.8932 298.209 86.7995 298.249 86.7138C298.353 86.4951 298.225 86.2764 298.249 86.0577C298.393 85.9408 298.432 85.7605 298.536 85.6204C298.904 85.4802 298.681 86.0033 298.864 86.097C298.944 85.9792 298.967 85.8391 299.048 85.7141C298.928 85.6123 298.824 85.4561 298.704 85.3785C298.481 85.2223 298.417 85.5811 298.233 85.5972C297.969 85.6596 297.986 85.9328 297.841 86.0729C297.737 85.9953 297.762 85.8542 297.777 85.7373C297.801 85.5579 298.001 85.5347 298.121 85.441C298.329 85.3624 298.368 85.1437 298.449 84.9804C298.528 84.9572 298.632 84.9804 298.672 85.058C298.976 85.0196 298.896 85.3785 299.12 85.4802C299.383 85.5034 299.463 85.7221 299.694 85.7998C299.854 85.5972 299.511 85.5186 299.487 85.324C299.335 85.0741 299.583 84.7536 299.359 84.551ZM299.239 85.7534C299.135 85.8158 299.08 85.9721 299.016 86.089C299.039 86.1283 299.08 86.1122 299.12 86.1122C299.28 86.0497 299.255 85.8703 299.239 85.7534ZM299.662 85.9096C299.271 85.8078 299.376 86.2916 299.216 86.471C299.152 86.5103 299.095 86.5728 299.031 86.5103C298.992 86.4326 299.031 86.3541 299.008 86.3077C298.984 86.4094 298.888 86.4094 298.824 86.4478C298.848 86.5264 298.944 86.4871 298.984 86.5264C299.167 86.8852 298.904 87.244 298.72 87.5413L298.696 87.7992C298.816 88.2598 299.103 88.6338 299.248 89.056C299.223 88.6731 298.96 88.3999 298.96 88.017C298.88 87.6189 299.287 87.5413 299.391 87.2369C299.431 87.0958 299.351 86.8539 299.551 86.8388C299.591 86.737 299.575 86.5808 299.575 86.5023C299.471 86.6201 299.231 86.7058 299.327 86.9245C299.263 87.1664 299.223 87.5645 298.896 87.6037C298.816 87.5805 298.832 87.502 298.832 87.4475C299.016 87.3306 299.135 87.0646 299.095 86.8307C299.12 86.5335 299.503 86.3934 299.463 86.0497C299.503 85.948 299.623 85.948 299.662 85.9096ZM298.585 86.6897C298.608 86.5728 298.624 86.4094 298.504 86.3541C298.568 86.6121 298.4 86.7915 298.361 86.995C298.481 86.9477 298.56 86.8075 298.585 86.6897ZM298.808 86.9084C298.832 86.8852 298.848 86.8075 298.784 86.8075C298.681 86.9637 298.6 87.1271 298.457 87.244C298.353 87.385 298.393 87.6037 298.336 87.7599C298.377 87.7992 298.361 87.8608 298.417 87.9161C298.496 87.9938 298.56 88.1348 298.624 88.2518C298.664 88.6106 298.928 88.8686 298.967 89.2274C298.992 89.3684 298.944 89.5246 299.048 89.6496C299.088 89.5318 299.127 89.3684 299.088 89.2274C299.048 89.0872 299.008 88.931 298.944 88.79C298.904 88.5481 298.8 88.2518 298.624 88.0482C298.489 87.8849 298.528 87.7751 298.489 87.5957C298.56 87.369 298.728 87.1431 298.808 86.9084ZM298.05 88.0411C297.969 87.7992 298.114 87.4627 297.865 87.3065C297.762 87.4243 297.786 87.643 297.786 87.8064C297.786 88.408 298.114 88.8837 298.313 89.3836C298.393 89.5005 298.417 89.704 298.536 89.8058C298.568 89.7745 298.64 89.4853 298.496 89.3443C298.336 88.8998 298.05 88.5249 298.05 88.0411ZM298.281 87.8224C298.265 87.6975 298.304 87.6037 298.201 87.5645C298.137 87.8064 298.145 88.0956 298.225 88.3455C298.313 88.6267 298.553 89.1649 298.752 89.563C298.816 89.7192 298.792 89.9459 298.776 90.1021C298.816 90.0236 298.88 89.9459 298.896 89.8602C298.832 89.5398 298.816 89.1649 298.649 88.8605C298.521 88.5017 298.329 88.275 298.281 87.8224ZM299.99 87.8224C299.926 87.7439 299.871 87.643 299.783 87.5805C299.599 87.8769 299.479 88.2357 299.599 88.5793C299.783 88.5401 299.702 88.3223 299.783 88.2205C299.807 88.0411 300.03 88.0018 299.99 87.8224ZM299.463 88.5793C299.199 88.2982 299.383 87.9233 299.463 87.643L299.176 87.8608C299.095 88.158 299.199 88.4776 299.423 88.6811C299.479 88.6811 299.463 88.6186 299.463 88.5793ZM300.478 88.7043C300.414 88.4624 300.453 88.1268 300.174 88.0643C300.07 88.1812 299.926 88.1893 299.966 88.3535C300.014 88.3919 300.054 88.6418 300.198 88.5874C300.318 88.6106 300.342 88.7275 300.382 88.8061C300.438 88.8453 300.478 88.7588 300.478 88.7043ZM300.094 89.6567C299.886 89.6808 299.911 89.4541 299.83 89.3372C299.766 89.4934 299.807 89.6567 299.83 89.8129C299.894 89.8361 299.934 89.7504 300.014 89.7504C300.158 89.7897 300.054 89.9691 300.078 90.0477C300.118 90.0236 300.142 89.9852 300.158 89.9459C300.446 89.829 300.302 90.2039 300.446 90.3048C300.565 90.2815 300.51 90.1253 300.606 90.0629C300.645 90.0236 300.725 90.0396 300.725 89.9852C300.702 89.8674 300.621 89.704 300.478 89.8058C300.318 89.821 300.278 89.6183 300.094 89.6567ZM299.95 90.477C299.886 90.3753 299.83 90.2191 299.687 90.1566C299.623 90.2191 299.543 90.2583 299.527 90.3601C299.591 90.3985 299.591 90.5002 299.687 90.5154C299.766 90.5154 299.911 90.594 299.95 90.477ZM300.613 89.438C300.638 89.3997 300.525 89.048 300.574 89.0087C300.589 89.0399 300.606 89.056 300.606 89.056C300.606 89.056 300.589 89.0087 300.574 89.0087C300.51 88.8837 300.35 89.1265 300.182 89.0248C300.142 88.9542 300.039 89.0167 299.966 89.0328C299.943 89.0953 299.966 89.1497 299.998 89.2042L300.022 89.2434L300.134 89.181C300.214 89.1104 300.254 89.181 300.254 89.2434C300.254 89.3684 300.214 89.3756 300.294 89.4621C300.302 89.4461 300.446 89.3291 300.461 89.2818C300.453 89.2747 300.557 89.5166 300.613 89.438ZM304.703 85.6516L304.336 85.1366C304.032 84.7617 303.68 84.418 303.258 84.2618C303.098 84.1993 302.898 84.0824 302.706 84.2618C302.339 84.6135 302.627 85.0036 302.499 85.3553C302.354 85.5972 302.107 85.7917 301.804 85.7766C301.659 85.6989 301.556 85.5579 301.372 85.5972C301.252 85.7373 301.028 85.574 300.941 85.7766C300.861 85.8158 300.781 85.7998 300.717 85.7373C300.613 85.6364 300.557 85.7998 300.493 85.8391C300.333 85.9792 300.126 85.7373 299.966 85.9015C299.662 86.2604 299.822 86.862 299.926 87.2994C300.03 87.6582 300.374 87.8769 300.661 88.0956C300.725 88.1973 300.581 88.2518 300.621 88.3919C300.685 88.6338 300.765 88.931 301.069 88.9542C301.005 88.6338 300.885 88.1732 301.188 87.9394C301.252 87.9161 301.292 87.9001 301.333 87.9626C301.356 88.142 301.173 88.283 301.213 88.4776C301.252 88.6963 301.213 89.0167 301.516 89.0399C301.58 88.9623 301.556 88.8605 301.636 88.798C301.716 88.7748 301.755 88.8212 301.796 88.8766C301.875 88.9542 301.9 88.8373 301.939 88.7748C301.979 88.7516 302.059 88.7356 302.099 88.798C302.163 88.8605 302.283 88.8605 302.322 88.7588C302.243 88.3767 302.139 88.0018 301.708 87.8849C301.588 87.8456 301.668 87.6814 301.732 87.6662C301.588 87.51 301.508 87.7831 301.364 87.6662C301.301 87.5252 301.524 87.5252 301.548 87.4083C301.691 87.3458 301.836 87.5252 301.915 87.3306C301.979 87.3065 301.996 87.369 301.996 87.4083C301.971 87.5252 301.932 87.6269 301.811 87.6894C301.891 87.7912 302.035 87.7671 302.099 87.892C302.307 87.9545 302.347 88.2125 302.49 88.3535C302.467 88.416 302.49 88.4937 302.554 88.4937L302.658 88.2518C302.778 88.1107 302.762 87.9161 302.921 87.8296C302.962 87.8064 302.985 87.892 303.002 87.9081L302.778 88.4472C302.778 88.4856 302.738 88.5642 302.802 88.5874C302.842 88.4472 302.985 88.3294 302.946 88.1661C303.026 88.0643 303.13 87.9474 303.106 87.7831C302.898 87.7207 302.762 87.5645 302.674 87.3618C302.634 87.2208 302.65 87.0646 302.57 86.9396C302.427 86.9637 302.283 86.9164 302.179 86.8388C302.075 86.6977 301.971 86.4791 301.747 86.4558C301.723 86.4326 301.708 86.3782 301.772 86.3541C301.979 86.3157 302.219 86.2916 302.403 86.1515C302.73 85.8703 302.77 85.4329 302.73 85.0116C302.706 84.7536 303.017 84.9099 303.074 84.7304C303.153 84.6912 303.217 84.6912 303.281 84.7697C303.401 85.1518 303.992 84.9491 304.16 85.3312C304.184 85.449 304 85.3936 303.952 85.4097C303.992 85.5499 304.176 85.6284 304.16 85.8078C304.12 85.8703 304.056 85.9247 303.976 85.9096C303.752 85.7534 303.689 85.4874 303.569 85.2687H303.505C303.425 85.5266 303.712 85.6677 303.808 85.8855L303.769 85.964C303.689 86.0033 303.609 85.9408 303.545 85.9015C303.425 85.6596 303.137 85.4642 303.241 85.1678C303.217 85.1053 303.177 85.0661 303.121 85.0661C303.017 85.0661 302.978 85.1437 303.002 85.2455C303.209 85.5427 303.265 85.9247 303.616 86.1042C303.721 86.1827 303.68 86.3469 303.641 86.4246C303.601 86.6433 303.721 86.8227 303.864 86.9396C303.904 86.9396 303.968 86.9637 303.944 86.8772C303.825 86.6745 303.761 86.4791 303.784 86.2372C303.784 86.1354 303.904 86.0345 303.968 86.081C303.928 86.3228 303.992 86.5415 304.048 86.7602C304.048 86.7995 304.112 86.8388 304.152 86.7995C304.112 86.6201 304.032 86.4166 304.112 86.2372C304.176 86.1979 304.232 86.1202 304.32 86.1354C304.24 86.2916 304.24 86.5183 304.24 86.7138C304.264 86.8307 304.36 86.9325 304.488 86.9557C304.711 86.7138 304.343 86.4558 304.488 86.1354C304.552 86.0729 304.511 85.956 304.631 85.9167C304.695 85.9167 304.711 85.9792 304.711 86.0345C304.591 86.2139 304.591 86.5335 304.711 86.7138C304.831 86.7915 304.855 87.0726 305.015 86.9557C305.095 86.5103 304.927 86.0265 304.703 85.6516ZM303.401 86.2916V86.2139L303.01 85.831C303.034 86.0729 303.233 86.2059 303.401 86.2916ZM303.13 86.4478L302.906 86.2452C302.906 86.2059 302.842 86.1042 302.802 86.1666C302.738 86.3077 302.921 86.3853 303.01 86.4871C303.074 86.5264 303.113 86.4871 303.13 86.4478ZM302.89 86.6513C302.73 86.5888 302.706 86.4094 302.563 86.3541C302.538 86.4166 302.586 86.4951 302.642 86.5335C302.722 86.6121 302.802 86.7763 302.906 86.7763C302.946 86.729 302.93 86.6665 302.89 86.6513ZM302.627 86.7834C302.506 86.6826 302.418 86.4639 302.259 86.5264C302.283 86.7058 302.482 86.729 302.563 86.8227C302.602 86.8459 302.642 86.8075 302.627 86.7834ZM303.769 87.2056C303.609 87.0494 303.465 86.8075 303.401 86.5647C303.337 86.6433 303.361 86.8075 303.425 86.9013C303.441 87.0887 303.625 87.1271 303.769 87.2056ZM303.337 87.2288L303.233 87.0726C303.217 87.1431 303.273 87.244 303.337 87.2288ZM303.889 88.5401C304.096 88.0795 304.112 87.5645 304.215 87.0646L304.096 87.2056C303.793 87.5877 303.832 88.1188 303.665 88.5793C303.601 88.9391 303.337 89.2586 303.09 89.5559C303.066 89.6183 302.985 89.7585 303.113 89.7745C303.417 89.3997 303.601 88.9623 303.889 88.5401ZM303.233 87.502C303.09 87.385 303.026 87.2056 302.93 87.0807L302.906 87.1583C302.906 87.3145 302.985 87.4163 303.113 87.4939C303.153 87.5252 303.217 87.5493 303.233 87.502ZM305.006 87.385C304.967 87.244 304.823 87.1815 304.719 87.1431C304.719 87.6037 304.615 88.0018 304.456 88.3999C304.296 88.9774 303.904 89.5398 303.561 90.0548L303.537 90.1566C303.744 90.0941 303.825 89.9147 304.008 89.821C304.479 89.0792 304.951 88.283 305.006 87.385ZM304.479 87.7055C304.52 87.5877 304.559 87.369 304.439 87.3065C304.256 87.5645 304.192 87.9081 304.176 88.2437L304.016 88.665C303.808 88.8686 303.769 89.1417 303.584 89.3604C303.521 89.4621 303.425 89.4773 303.401 89.5791C303.361 89.696 303.241 89.821 303.258 89.9147C303.321 89.8915 303.281 89.954 303.321 89.9772C303.441 89.954 303.441 89.821 303.545 89.7978C303.912 89.1185 304.375 88.4856 304.479 87.7055ZM303.665 87.502C303.481 87.5805 303.457 87.8376 303.377 88.017C303.353 88.275 303.441 88.6186 303.233 88.798V88.0643L303.194 88.0411C303.074 88.1973 303.09 88.4231 302.93 88.5793C302.77 88.8212 302.85 89.181 302.994 89.4148C303.137 89.3372 303.241 89.1569 303.281 89.0167C303.465 88.8373 303.489 88.6186 303.545 88.3999C303.665 88.142 303.68 87.8224 303.665 87.502ZM302.602 89.2586C302.563 89.1569 302.458 88.8998 302.315 89.1024C302.051 89.2042 301.74 89.2193 301.476 89.3211C301.476 89.4773 301.556 89.6023 301.684 89.704C301.684 89.7665 301.708 89.7817 301.764 89.7817C301.907 89.7817 301.868 89.6023 301.907 89.5246C302.051 89.3684 302.051 89.704 302.235 89.6415C302.275 89.5246 302.195 89.3443 302.354 89.2818C302.435 89.3211 302.458 89.438 302.514 89.4853C302.602 89.438 302.578 89.3372 302.602 89.2586ZM302.89 89.9147C302.826 89.8361 302.826 89.7121 302.73 89.7121C302.61 89.9147 302.363 89.688 302.259 89.8915C302.139 90.0316 301.811 90.0316 301.851 90.2271H302.259C302.339 90.2664 302.442 90.2896 302.482 90.1878C302.563 90.0709 302.642 90.2271 302.746 90.1878C302.762 90.0941 302.85 90.0164 302.89 89.9147ZM302.627 90.5547C302.442 90.6172 302.339 90.4377 302.179 90.4145C302.139 90.4538 302.139 90.5154 302.139 90.5547C302.115 90.6564 301.676 90.8046 301.716 90.8832C301.939 90.8207 302.563 90.7502 302.706 90.594L302.627 90.5547ZM300.31 84.2779C300.31 84.2779 300.645 84.2226 300.709 84.3716C300.981 85.0348 300.094 85.0893 300.118 85.6052C300.278 85.6284 300.51 85.6829 300.606 85.5034L300.893 85.6052C301.037 85.5811 301.052 85.324 301.237 85.4249C301.316 85.3624 301.42 85.3472 301.5 85.3865C301.604 85.3472 301.58 85.2062 301.54 85.1285C301.396 85.2062 301.196 85.2303 301.013 85.2687C300.973 85.2455 300.869 85.1678 300.933 85.1125C301.156 85.191 301.156 84.8554 301.404 84.9723C301.524 84.9099 301.564 84.7536 301.548 84.6135C301.508 84.2779 301.452 83.9887 301.045 83.903C301.013 83.895 300.981 83.895 300.925 83.9262C300.925 83.9342 300.909 83.9655 300.957 83.9726C301.013 83.9887 301.021 84.0512 300.973 84.0824C300.893 84.1369 300.757 84.0976 300.717 84.0592C300.702 84.0351 300.67 84.0199 300.613 84.028C300.51 84.0351 300.342 84.0663 300.31 84.2779ZM299.144 90.6645C299.127 90.602 299.184 90.5083 299.399 90.2735C299.655 89.9923 299.687 89.4853 299.734 89.2042C299.79 88.8525 300.014 88.6106 300.014 88.6106C300.014 88.6106 299.631 88.7275 299.455 89.2586C299.319 89.6567 299.199 90.4377 298.848 90.469C298.824 90.469 298.8 90.477 298.784 90.4851C298.577 90.4377 298.417 90.3672 298.272 90.2191C298.272 90.2191 298.161 90.1021 298.121 90.0789C297.402 89.2747 296.931 88.1893 296.891 87.0646C297.074 85.9247 297.546 84.676 298.76 84.2931C299.008 84.2467 299.239 84.1529 299.487 84.2779C299.79 84.4885 299.743 84.9331 299.758 85.2455C299.766 85.2615 299.839 85.308 299.839 85.308C300.078 85.1125 300.333 84.9018 300.517 84.6055C300.51 84.543 300.429 84.4725 300.35 84.4493C300.286 84.4493 300.222 84.4805 300.166 84.4885C300.094 84.4957 300.03 84.4644 300.03 84.3555C300.007 84.1681 300.198 83.9182 300.278 83.903C300.629 83.8557 300.861 83.5513 301.244 83.762C301.452 83.8405 301.636 83.9887 301.723 84.1913C301.868 84.5974 301.804 85.0196 301.843 85.4329C301.859 85.4954 301.907 85.5186 301.987 85.5186C302.267 85.4329 302.283 85.1991 302.267 84.9259C302.251 84.6831 302.203 84.3555 302.418 84.1681C302.642 83.9887 302.874 83.8164 303.281 83.9655C303.88 84.1913 304.328 84.7456 304.695 85.2062C304.983 85.6052 305.191 86.0265 305.294 86.5103C305.374 87.4163 305.174 88.2125 304.823 88.9542C304.559 89.5559 304.208 90.0548 303.673 90.4377C303.545 90.5002 303.401 90.5234 303.265 90.477C303.265 90.477 303.106 90.3208 303.034 90.3048C303.034 90.3521 303.201 90.5154 303.217 90.5466C303.265 90.6172 303.305 90.6957 303.281 90.7894L303.233 90.8359C303.169 90.8903 303.13 90.8671 303.081 90.8671C303.049 90.8671 302.994 90.8671 302.914 90.8751C302.418 90.9215 302.331 90.9456 302.019 91.0001C301.819 91.0233 301.572 91.0626 301.372 91.117C301.26 91.117 301.244 91.0001 301.284 90.9296C301.301 90.8046 301.388 90.7502 301.468 90.7029L301.532 90.6645C301.588 90.6252 301.636 90.5859 301.652 90.5154C301.668 90.1485 301.476 89.8986 301.348 89.571C301.348 89.571 301.141 88.931 300.813 89.0872C300.773 89.1881 300.853 89.4541 300.853 89.4541C300.837 89.7817 300.909 90.0629 301.037 90.3753C301.037 90.4145 301.06 90.6252 301.013 90.6716C300.869 90.7421 300.789 90.7502 300.661 90.7734C300.613 90.7814 300.557 90.7814 300.254 90.8126C299.655 90.9456 299.135 90.8359 299.144 90.6645ZM301.62 86.7058C301.516 86.9084 301.252 86.7058 301.109 86.862C301.005 86.8852 300.949 86.8388 300.901 86.7834V86.7058C301.021 86.7058 301.148 86.6826 301.228 86.604C301.308 86.5808 301.412 86.7058 301.516 86.604C301.58 86.5647 301.556 86.4639 301.636 86.4246C301.764 86.4871 301.668 86.6272 301.62 86.7058ZM302.315 87.6269C302.29 87.7831 302.578 87.7439 302.499 87.9081C302.379 87.9706 302.29 87.8456 302.235 87.7671C302.171 87.6501 302.131 87.4475 302.171 87.3458C302.403 87.3226 302.235 87.5252 302.315 87.6269ZM302.786 87.643C302.786 87.6814 302.85 87.7599 302.762 87.7831C302.658 87.8224 302.538 87.7599 302.458 87.6814C302.339 87.5252 302.275 87.2833 302.379 87.0646C302.418 87.0021 302.482 87.0646 302.499 87.1039C302.578 87.244 302.458 87.4395 302.602 87.5645L302.786 87.643ZM301.891 87.1039C301.851 87.1664 301.811 87.2601 301.708 87.244C301.364 87.1431 301.404 87.643 301.052 87.5805C300.933 87.5413 300.725 87.643 300.685 87.4395C300.725 87.3377 300.909 87.4002 300.989 87.3377C301.052 87.3618 301.133 87.377 301.196 87.377C301.301 87.2994 301.156 87.1976 301.26 87.1351C301.38 87.1976 301.484 87.0726 301.564 87.0182C301.684 87.0575 301.811 87.0414 301.868 86.9164C301.932 86.9245 301.907 87.0494 301.891 87.1039Z" fill="white"/>
<path d="M296.618 84.7065V90.7352C296.514 90.8369 296.514 90.7584 296.49 90.6254C296.338 89.7042 296.259 88.1511 294.829 86.8934C291.633 84.0906 287.736 85.309 288.527 88.7518C289.525 93.1238 296.563 90.7263 297.482 96.4184C298.456 102.438 292.824 104.335 288.342 102.063C288.342 102.063 287.184 101.354 286.729 101.533C286.53 101.612 286.402 102.01 286.37 102.439C286.353 103.064 286.178 102.875 286.186 102.82V96.3791C286.194 96.2622 286.29 96.2934 286.29 96.3327C286.403 103.476 294.335 104.382 294.175 100.236C293.991 95.333 286.219 96.6058 285.5 91.5698C284.621 85.3858 290.979 83.6452 294.677 86.3239C295.412 86.855 296.091 86.0419 296.203 85.8696C296.451 85.5108 296.37 85.1591 296.466 84.6914C296.514 84.5191 296.618 84.5735 296.618 84.7065ZM332.987 90.7807C333.027 91.2261 332.779 91.1163 332.779 91.1163C333.378 86.4944 323.888 81.0683 323.281 92.9122C322.738 103.382 330.175 105.444 333.082 98.292C333.114 98.1902 333.298 97.66 333.306 97.6127C333.338 97.4252 333.37 97.6439 333.338 97.8546C331.693 107.014 315.91 103.968 319.528 90.5933C320.391 87.4156 324.601 84.3629 327.98 85.2769C329.992 85.8232 329.737 86.1124 330.958 86.7363C332.325 87.4397 332.676 85.8071 332.844 84.9725C332.996 84.8859 332.987 85.1752 332.987 85.1752V90.7807ZM314.479 87.2594C313.752 86.1749 312.586 85.5268 311.22 85.6277C311.036 85.6206 311.045 85.7295 311.045 85.7295V94.2324C311.045 94.4118 311.22 94.4118 311.22 94.4118C312.746 94.5287 314.055 93.6236 314.782 92.3356C315.653 90.8057 315.374 88.6027 314.479 87.2594ZM318.84 88.7357C319.216 90.8744 318.761 92.5847 317.659 93.5531C315.734 95.075 313.616 94.6144 311.316 94.7001C311.028 94.6849 311.052 95.0286 311.052 95.0286V102.837H306.372V85.7375C306.403 85.4019 305.732 85.4956 305.317 85.4795C305.117 85.4563 305.213 85.309 305.309 85.293C307.122 85.3322 312.586 85.1278 315.637 85.7446C317.218 86.0499 318.536 87.0103 318.84 88.7357ZM304.056 91.7492V102.828C303.393 102.836 299.262 102.828 299.262 102.828V92.1946C299.262 92.1946 299.286 91.7965 299.015 91.7893C298.463 91.7661 297.714 91.7099 297.714 91.7099C297.618 91.7028 297.522 91.5849 297.714 91.5698H303.784C304.07 91.5698 304.056 91.7492 304.056 91.7492Z" fill="white"/>
<path d="M293.818 182.531H288.704V164.131H299.222V168.94H293.818V171.919H298.911V176.729H293.818V182.531Z" fill="white"/>
<path d="M316.017 173.322C316.017 164.894 308.283 164.131 305.081 164.131H299.926V182.513H305.081L305.073 177.722V168.864C308.245 168.864 310.939 170.01 310.939 173.293C310.939 176.576 308.245 177.722 305.073 177.722L305.081 182.513C309.066 182.514 316.017 181.768 316.017 173.322Z" fill="white"/>
<path d="M322.016 164.093H316.903V182.532H322.016V164.093Z" fill="white"/>
<path d="M332.458 177.664C330.001 177.664 327.968 175.707 327.968 173.308C327.968 170.909 330.001 168.952 332.458 168.952C334.698 168.952 335.869 170.116 336.64 171.649V165.048C336.64 165.048 334.375 164.055 332.264 164.055C327.579 164.055 322.5 168.268 322.5 173.308C322.5 179.478 327.344 182.561 332.264 182.561C334.374 182.561 336.64 181.569 336.64 181.569V175.024C335.717 176.58 334.685 177.664 332.458 177.664Z" fill="white"/>
<path d="M332.54 170.761C331.096 170.761 329.927 171.905 329.927 173.316C329.927 174.727 331.096 175.871 332.54 175.871C333.984 175.871 335.154 174.727 335.154 173.316C335.154 171.905 333.984 170.761 332.54 170.761ZM329.773 173.316C329.773 171.823 331.012 170.611 332.54 170.611C334.068 170.611 335.307 171.823 335.307 173.316C335.307 174.809 334.068 176.021 332.54 176.021C331.012 176.021 329.773 174.809 329.773 173.316Z" fill="white"/>
<path d="M332.515 169.603C330.411 169.603 328.706 171.27 328.706 173.326C328.706 175.381 330.411 177.049 332.515 177.049C334.619 177.049 336.323 175.381 336.323 173.326C336.323 171.27 334.619 169.603 332.515 169.603ZM328.553 173.326C328.553 171.187 330.327 169.454 332.515 169.454C334.703 169.454 336.476 171.187 336.476 173.326C336.476 175.464 334.703 177.198 332.515 177.198C330.327 177.198 328.553 175.464 328.553 173.326Z" fill="white"/>
<path d="M331.632 171.159V171.657H331.52V171.277H331.478L331.528 171.159H331.632Z" fill="white"/>
<path d="M331.886 171.312C331.886 171.415 331.983 171.499 332.103 171.499C332.152 171.499 332.196 171.485 332.233 171.462C332.166 171.629 331.988 171.562 331.95 171.549L331.903 171.639C331.961 171.696 332.35 171.734 332.35 171.369C332.35 171.328 332.318 171.127 332.103 171.127V171.216C332.166 171.216 332.227 171.259 332.227 171.312C332.227 171.366 332.165 171.408 332.103 171.408C332.042 171.408 331.99 171.366 331.99 171.312C331.99 171.259 332.042 171.216 332.103 171.216V171.127C331.983 171.127 331.886 171.21 331.886 171.312Z" fill="white"/>
<path d="M332.69 171.68C332.574 171.68 332.506 171.631 332.488 171.608L332.555 171.542C332.585 171.559 332.638 171.592 332.674 171.592C332.711 171.592 332.78 171.576 332.78 171.52C332.78 171.492 332.754 171.447 332.646 171.46V171.374C332.759 171.383 332.785 171.343 332.785 171.307C332.785 171.27 332.744 171.241 332.694 171.241C332.653 171.241 332.614 171.263 332.58 171.3L332.506 171.226C332.54 171.176 332.609 171.143 332.689 171.143C332.801 171.143 332.884 171.21 332.884 171.294C332.884 171.338 332.865 171.379 332.824 171.407C332.868 171.432 332.887 171.486 332.887 171.52C332.888 171.603 332.813 171.68 332.69 171.68Z" fill="white"/>
<path d="M333.242 171.68C333.126 171.68 333.059 171.631 333.041 171.608L333.108 171.542C333.138 171.559 333.191 171.592 333.229 171.592C333.265 171.592 333.333 171.576 333.333 171.52C333.333 171.492 333.308 171.447 333.2 171.46V171.374C333.312 171.383 333.34 171.343 333.34 171.307C333.34 171.27 333.299 171.241 333.247 171.241C333.208 171.241 333.168 171.263 333.136 171.3L333.061 171.226C333.095 171.176 333.164 171.143 333.242 171.143C333.355 171.143 333.439 171.21 333.439 171.294C333.439 171.338 333.421 171.379 333.379 171.407C333.422 171.432 333.442 171.486 333.442 171.52C333.442 171.603 333.366 171.68 333.242 171.68Z" fill="white"/>
<path d="M331.622 174.917V174.643H331.568V174.971H331.75V174.844H331.841V174.971H332.022V174.643H332.106C332.206 174.643 332.206 174.693 332.272 174.693C332.322 174.693 332.338 174.643 332.375 174.643C332.411 174.643 332.421 174.705 332.468 174.705C332.515 174.705 332.527 174.643 332.562 174.643C332.598 174.643 332.615 174.693 332.665 174.693C332.731 174.693 332.75 174.643 332.851 174.643C332.906 174.643 332.939 174.667 332.939 174.73C332.939 174.838 333.029 174.925 333.138 174.925C333.249 174.925 333.337 174.837 333.337 174.73V174.451C333.337 174.343 333.248 174.257 333.138 174.257L333.14 174.325C333.204 174.325 333.258 174.376 333.258 174.44C333.258 174.543 333.214 174.59 333.214 174.59C333.214 174.59 333.258 174.638 333.258 174.742C333.258 174.805 333.204 174.858 333.14 174.858C333.074 174.858 333.021 174.805 333.021 174.742C333.021 174.638 333.064 174.59 333.064 174.59C333.064 174.59 333.021 174.543 333.021 174.44C333.021 174.376 333.074 174.325 333.14 174.325L333.138 174.257C333.029 174.257 332.94 174.344 332.94 174.451C332.94 174.514 332.906 174.538 332.851 174.538C332.75 174.538 332.732 174.486 332.665 174.486C332.615 174.486 332.599 174.534 332.563 174.534C332.527 174.534 332.516 174.475 332.469 174.475C332.421 174.475 332.411 174.534 332.375 174.534C332.339 174.534 332.322 174.486 332.273 174.486C332.206 174.486 332.206 174.538 332.106 174.538H331.484V174.643H331.568H331.622H331.969V174.917H331.896V174.792H331.696V174.917H331.622Z" fill="white"/>
<path d="M331.801 169.911L332.107 170.428C332.063 170.432 332.017 170.441 331.971 170.451L331.917 170.356L331.748 170.394L331.759 170.266L331.85 170.245L331.771 170.114L331.759 170.266L331.748 170.394L331.738 170.502C331.693 170.511 331.647 170.525 331.605 170.539L331.654 169.943L331.801 169.911Z" fill="white"/>
<path d="M335.003 170.917L334.829 171.067C334.809 171.085 334.806 171.117 334.825 171.139L334.951 171.282L334.876 171.345L334.714 171.167L334.622 171.245L334.819 171.465C334.845 171.491 334.888 171.494 334.916 171.47L335.087 171.326C335.109 171.308 335.113 171.276 335.093 171.255L334.964 171.112L335.04 171.047L335.204 171.23L335.302 171.15L335.097 170.924C335.072 170.897 335.031 170.893 335.003 170.917Z" fill="white"/>
<path d="M329.829 172.038C329.812 172.073 329.793 172.108 329.777 172.146L329.263 171.896L329.424 171.578L329.537 171.634L329.431 171.843L329.518 171.886L329.609 171.708L329.722 171.765L329.632 171.941L329.829 172.038Z" fill="white"/>
<path d="M334.845 170.691C334.879 170.717 334.883 170.765 334.857 170.797L334.588 171.116C334.561 171.149 334.513 171.153 334.478 171.126C334.43 171.089 334.387 171.046 334.375 171.037C334.362 171.027 334.318 170.995 334.272 170.96C334.237 170.935 334.233 170.884 334.26 170.852L334.527 170.534C334.554 170.501 334.604 170.496 334.638 170.524L334.596 170.644L334.388 170.891L334.527 171.004L334.734 170.756L334.596 170.644L334.638 170.524L334.845 170.691Z" fill="white"/>
<path d="M331.241 170.443L331.128 170.492L331.078 170.38L331.201 170.326C331.216 170.319 331.223 170.301 331.216 170.286L331.201 170.252C331.193 170.237 331.176 170.23 331.16 170.237L331.037 170.292L331.078 170.38L331.128 170.492L331.219 170.689C331.174 170.709 331.137 170.726 331.101 170.745L330.866 170.234L331.206 170.084C331.233 170.072 331.265 170.084 331.278 170.11L331.355 170.279C331.366 170.304 331.355 170.334 331.329 170.344C331.328 170.345 331.327 170.347 331.328 170.348C331.328 170.35 331.33 170.35 331.332 170.35C331.358 170.339 331.388 170.35 331.399 170.375C331.414 170.409 331.461 170.511 331.464 170.52C331.469 170.531 331.479 170.559 331.515 170.555L331.518 170.564C331.475 170.579 331.431 170.597 331.384 170.616C331.367 170.61 331.355 170.598 331.347 170.579C331.338 170.563 331.312 170.492 331.3 170.466C331.291 170.443 331.264 170.433 331.241 170.443Z" fill="white"/>
<path d="M332.579 170.401L332.576 170.279L332.344 170.287L332.326 169.848L332.206 169.853L332.227 170.412C332.35 170.402 332.464 170.399 332.579 170.401Z" fill="white"/>
<path d="M330.093 171.404L330.193 171.477C330.123 171.565 330.055 171.655 329.988 171.757L329.519 171.431L329.729 171.143L329.831 171.216L329.693 171.404L329.774 171.46L329.891 171.299L329.992 171.372L329.875 171.532L329.958 171.592L330.093 171.404Z" fill="white"/>
<path d="M330.272 171.387L329.862 170.985L329.918 170.931L330.036 170.985L330.265 171.213L330.394 171.089L330.162 170.861L330.036 170.985L329.918 170.931L330.108 170.745C330.139 170.716 330.188 170.717 330.218 170.746L330.516 171.039C330.546 171.069 330.545 171.117 330.514 171.147C330.471 171.19 330.423 171.229 330.411 171.239C330.402 171.25 330.312 171.345 330.272 171.387Z" fill="white"/>
<path d="M330.902 170.717L330.971 170.819C330.875 170.878 330.78 170.941 330.68 171.012L330.354 170.551L330.652 170.35L330.72 170.452L330.527 170.584L330.582 170.664L330.749 170.55L330.819 170.653L330.653 170.766L330.711 170.848L330.902 170.717Z" fill="white"/>
<path d="M332.83 170.414L332.93 169.854L333.006 169.868L333.03 169.993L332.972 170.308L333.149 170.339L333.206 170.024L333.03 169.993L333.006 169.868L333.272 169.913C333.314 169.921 333.343 169.959 333.336 170.001L333.261 170.406C333.253 170.448 333.213 170.476 333.17 170.469C333.109 170.458 333.05 170.443 333.033 170.441C333.019 170.438 332.887 170.421 332.83 170.414Z" fill="white"/>
<path d="M333.76 170.535L333.714 170.647C333.61 170.603 333.503 170.563 333.386 170.526L333.587 170.001L333.926 170.123L333.881 170.238L333.657 170.158L333.623 170.247L333.813 170.316L333.767 170.43L333.578 170.362L333.542 170.454L333.76 170.535Z" fill="white"/>
<path d="M334.025 170.552L334.087 170.443L334.208 170.509C334.223 170.517 334.242 170.511 334.251 170.497L334.27 170.463C334.277 170.449 334.272 170.43 334.256 170.423L334.137 170.356L334.087 170.443L334.025 170.552L333.914 170.742C333.87 170.718 333.833 170.7 333.798 170.682L334.083 170.185L334.414 170.367C334.44 170.381 334.45 170.414 334.434 170.44L334.312 170.652C334.299 170.676 334.267 170.684 334.243 170.671L334.025 170.552Z" fill="white"/>
<path d="M334.955 171.638L335.429 171.325L335.495 171.424L335.021 171.736C335.01 171.72 334.999 171.702 334.987 171.686C334.977 171.67 334.965 171.653 334.955 171.638Z" fill="white"/>
<path d="M335.595 171.839L335.195 172.039C335.187 172.02 335.177 172.003 335.168 171.985C335.158 171.967 335.15 171.95 335.14 171.933L335.538 171.733L335.482 171.623L335.593 171.567L335.761 171.891L335.65 171.946L335.595 171.839Z" fill="white"/>
<path d="M329.311 172.329L329.306 172.479L329.449 172.535L329.3 172.577L329.289 172.727L329.203 172.602L329.053 172.638L329.148 172.519L329.066 172.392L329.212 172.444L329.311 172.329Z" fill="white"/>
<path d="M335.712 172.329L335.716 172.479L335.574 172.535L335.721 172.577L335.732 172.727L335.82 172.602L335.968 172.638L335.874 172.519L335.956 172.392L335.81 172.444L335.712 172.329Z" fill="white"/>
<path d="M331.189 176.387L331.176 176.419L331.012 176.345L331.147 176.054L331.311 176.128L331.296 176.159L331.408 176.211L331.442 176.132C331.46 176.095 331.442 176.05 331.404 176.031C331.348 176.007 331.289 175.984 331.276 175.978C331.263 175.971 331.212 175.951 331.159 175.924C331.122 175.905 331.074 175.922 331.056 175.961L330.882 176.336C330.864 176.374 330.882 176.42 330.92 176.437L331.166 176.545C331.205 176.564 331.252 176.547 331.269 176.509L331.302 176.438L331.189 176.387Z" fill="white"/>
<path d="M329.535 173.197L328.964 173.161L328.971 173.043L329.543 173.079C329.54 173.099 329.539 173.119 329.539 173.14C329.538 173.159 329.536 173.178 329.535 173.197Z" fill="white"/>
<path d="M329.513 173.894L329.289 173.951C329.262 173.958 329.244 173.987 329.252 174.013L329.301 174.197L329.202 174.221L329.14 173.988L329.022 174.02L329.098 174.303C329.109 174.338 329.146 174.36 329.181 174.35L329.401 174.297C329.43 174.29 329.447 174.261 329.44 174.235L329.39 174.05L329.486 174.026L329.549 174.261L329.672 174.232L329.592 173.94C329.585 173.905 329.549 173.885 329.513 173.894Z" fill="white"/>
<path d="M329.222 173.701L329.55 173.669C329.552 173.688 329.554 173.708 329.556 173.729C329.559 173.749 329.561 173.768 329.564 173.787L328.993 173.841L328.981 173.723L329.317 173.473L328.959 173.482L328.956 173.364L329.528 173.348C329.528 173.368 329.528 173.389 329.529 173.409C329.53 173.428 329.53 173.447 329.53 173.468L329.222 173.701Z" fill="white"/>
<path d="M329.327 174.847C329.344 174.885 329.391 174.903 329.429 174.886L329.886 174.694L329.836 174.583L329.426 174.759L329.355 174.597L329.764 174.424L329.715 174.312L329.261 174.505C329.222 174.523 329.201 174.568 329.22 174.607L329.327 174.847Z" fill="white"/>
<path d="M329.923 175.721L330.021 175.669L330.138 175.607L330.276 175.536L330.203 175.671L330.138 175.607L330.021 175.669L330.144 175.786L330.091 175.884L330.19 175.98L330.466 175.451L330.359 175.348L329.823 175.626L329.923 175.721Z" fill="white"/>
<path d="M330.164 175.118C330.181 175.142 330.176 175.175 330.15 175.191L329.994 175.296C329.972 175.312 329.938 175.306 329.924 175.284C329.923 175.282 329.92 175.282 329.919 175.283C329.917 175.284 329.917 175.286 329.918 175.287C329.935 175.309 329.929 175.34 329.907 175.355C329.873 175.377 329.779 175.44 329.77 175.445C329.76 175.452 329.733 175.467 329.746 175.499L329.738 175.503L329.658 175.387C329.661 175.369 329.674 175.354 329.69 175.343C329.707 175.331 329.771 175.294 329.796 175.278C329.816 175.264 329.822 175.237 329.809 175.215L329.738 175.117L329.841 175.048L329.919 175.157C329.928 175.17 329.948 175.173 329.961 175.164L329.993 175.144C330.007 175.135 330.011 175.115 330.001 175.103L329.924 174.994L329.841 175.048L329.738 175.117L329.556 175.24L329.481 175.136L329.952 174.819C330.014 174.916 330.091 175.03 330.164 175.118Z" fill="white"/>
<path d="M331.837 176.295L331.87 176.178C331.759 176.152 331.649 176.121 331.531 176.083L331.371 176.622L331.719 176.72L331.752 176.603L331.524 176.537L331.552 176.445L331.747 176.501L331.78 176.383L331.587 176.328L331.614 176.233L331.837 176.295Z" fill="white"/>
<path d="M330.73 176.055L330.915 175.786C330.931 175.797 330.948 175.807 330.966 175.819C330.982 175.83 330.998 175.841 331.014 175.853L330.697 176.315L330.596 176.25L330.611 175.838L330.391 176.115L330.296 176.044L330.646 175.601C330.661 175.614 330.676 175.626 330.692 175.638C330.708 175.65 330.726 175.66 330.741 175.672L330.73 176.055Z" fill="white"/>
<path d="M332.835 176.793C332.792 176.8 332.753 176.77 332.747 176.729L332.69 176.32C332.684 176.278 332.714 176.239 332.757 176.233C332.818 176.225 332.879 176.222 332.894 176.22C332.91 176.219 332.965 176.209 333.021 176.199C333.064 176.191 333.105 176.222 333.111 176.264L333.168 176.671C333.175 176.713 333.146 176.752 333.102 176.758L333.04 176.644L332.996 176.328L332.818 176.352L332.863 176.669L333.04 176.644L333.102 176.758L332.835 176.793Z" fill="white"/>
<path d="M334.085 175.808C334.113 175.795 334.145 175.803 334.159 175.83L334.277 176.045C334.29 176.069 334.28 176.1 334.255 176.113L334.035 176.228L333.975 176.118L334.096 176.053C334.111 176.044 334.116 176.028 334.109 176.013L334.091 175.979C334.084 175.965 334.064 175.96 334.05 175.967L333.927 176.03L333.975 176.118L334.035 176.228L334.144 176.423C334.1 176.447 334.061 176.463 334.026 176.484L333.751 175.982C333.827 175.947 333.993 175.863 334.085 175.808Z" fill="white"/>
<path d="M335.755 174.756L335.344 174.582L335.293 174.694L335.178 174.646C335.229 174.556 335.29 174.414 335.325 174.311L335.44 174.361L335.391 174.473L335.803 174.646L335.755 174.756Z" fill="white"/>
<path d="M332.48 176.651L332.479 176.687L332.3 176.679L332.312 176.36L332.492 176.367L332.49 176.401L332.611 176.405L332.614 176.322C332.616 176.28 332.582 176.245 332.538 176.243C332.477 176.24 332.416 176.24 332.399 176.24C332.386 176.239 332.328 176.239 332.271 176.233C332.228 176.23 332.191 176.265 332.189 176.307L332.174 176.719C332.172 176.761 332.206 176.795 332.248 176.797L332.518 176.808C332.561 176.81 332.598 176.777 332.599 176.735L332.602 176.656L332.48 176.651Z" fill="white"/>
<path d="M333.571 176.053C333.599 176.044 333.631 176.06 333.638 176.088L333.694 176.266C333.703 176.292 333.688 176.319 333.662 176.327C333.66 176.328 333.659 176.329 333.661 176.331C333.661 176.333 333.662 176.334 333.664 176.333C333.691 176.325 333.718 176.339 333.728 176.366C333.738 176.402 333.772 176.509 333.775 176.519C333.779 176.53 333.785 176.559 333.819 176.558L333.822 176.564L333.683 176.606C333.666 176.598 333.655 176.583 333.65 176.564C333.643 176.545 333.626 176.472 333.618 176.444C333.61 176.421 333.584 176.409 333.56 176.416L333.444 176.451L333.406 176.335L333.536 176.294C333.551 176.289 333.56 176.273 333.555 176.258L333.543 176.223C333.537 176.207 333.521 176.197 333.505 176.202L333.376 176.243L333.406 176.335L333.444 176.451L333.509 176.659L333.385 176.696L333.214 176.161C333.329 176.131 333.464 176.096 333.571 176.053Z" fill="white"/>
<path d="M334.629 176.13C334.595 176.157 334.546 176.152 334.519 176.12L334.254 175.798C334.227 175.766 334.231 175.717 334.265 175.69C334.314 175.653 334.364 175.619 334.377 175.609C334.389 175.6 334.431 175.564 334.473 175.527C334.506 175.498 334.557 175.506 334.585 175.539L334.849 175.857C334.877 175.89 334.872 175.938 334.837 175.965L334.725 175.9L334.519 175.65L334.379 175.762L334.586 176.01L334.725 175.9L334.837 175.965L334.629 176.13Z" fill="white"/>
<path d="M334.868 175.124C334.888 175.102 334.922 175.1 334.945 175.12L335.086 175.241C335.107 175.26 335.109 175.291 335.09 175.312C335.088 175.313 335.089 175.316 335.09 175.316C335.092 175.318 335.093 175.318 335.095 175.316C335.114 175.296 335.146 175.293 335.166 175.312C335.196 175.338 335.281 175.411 335.288 175.419C335.297 175.425 335.318 175.448 335.347 175.429L335.352 175.434L335.257 175.54C335.239 175.541 335.22 175.532 335.206 175.519C335.192 175.507 335.138 175.455 335.116 175.434C335.097 175.419 335.068 175.42 335.051 175.439L334.97 175.528L334.876 175.447L334.966 175.347C334.977 175.334 334.977 175.316 334.964 175.305L334.935 175.28C334.923 175.27 334.903 175.271 334.892 175.283L334.802 175.382L334.876 175.447L334.97 175.528L335.136 175.672L335.049 175.768L334.621 175.397C334.704 175.313 334.798 175.215 334.868 175.124Z" fill="white"/>
<path d="M335.482 175.269L335.408 175.186L335.322 175.088L335.219 174.971L335.37 175.009L335.322 175.088L335.408 175.186L335.499 175.042L335.608 175.071L335.682 174.955L335.093 174.809L335.015 174.932L335.409 175.384L335.482 175.269Z" fill="white"/>
<path d="M335.395 174.106L335.944 174.267L335.908 174.381L335.359 174.219C335.366 174.201 335.372 174.182 335.377 174.162C335.385 174.143 335.39 174.125 335.395 174.106Z" fill="white"/>
<path d="M335.831 173.141L335.5 173.154C335.5 173.136 335.497 173.114 335.497 173.095C335.496 173.075 335.495 173.054 335.494 173.035L336.067 173.016L336.071 173.135L335.721 173.364L336.079 173.376L336.075 173.495L335.502 173.476C335.503 173.456 335.504 173.437 335.504 173.416C335.504 173.396 335.506 173.378 335.506 173.358L335.831 173.141Z" fill="white"/>
<path d="M336.014 174.008C336.007 174.05 335.968 174.078 335.924 174.072L335.507 174.009C335.465 174.002 335.435 173.964 335.442 173.922C335.451 173.862 335.466 173.803 335.468 173.788C335.47 173.775 335.477 173.72 335.482 173.663C335.487 173.621 335.529 173.593 335.572 173.599L335.987 173.661C336.029 173.667 336.06 173.706 336.052 173.748L335.924 173.775L335.6 173.726L335.575 173.9L335.898 173.947L335.924 173.775L336.052 173.748L336.014 174.008Z" fill="white"/>
<path d="M331.667 172.153L331.464 172.927H331.513L331.659 172.38V172.927H331.714V172.38L331.858 172.927H331.464C331.496 173.018 331.603 173.067 331.685 173.067C331.765 173.067 331.873 173.018 331.903 172.927L331.701 172.153H331.667Z" fill="white"/>
<path d="M332.511 171.81L332.605 171.852L332.596 171.868C332.551 171.868 332.541 171.952 332.541 171.993C332.541 172.017 332.565 172.05 332.608 172.05C332.65 172.05 332.725 172.014 332.83 172.014C332.934 172.014 333.043 172.055 333.157 172.055C333.271 172.055 333.296 172.024 333.324 172.024C333.353 172.024 333.409 172.036 333.409 172.076C333.409 172.116 333.353 172.13 333.324 172.13C333.295 172.13 333.27 172.098 333.157 172.098C333.043 172.098 332.934 172.141 332.83 172.141C332.725 172.141 332.65 172.103 332.608 172.103C332.565 172.103 332.541 172.137 332.541 172.16C332.541 172.184 332.593 172.231 332.593 172.231L332.51 172.355L332.429 172.231C332.429 172.231 332.479 172.184 332.479 172.16C332.479 172.137 332.456 172.103 332.413 172.103C332.37 172.103 332.294 172.141 332.191 172.141C332.086 172.141 331.978 172.098 331.864 172.098C331.751 172.098 331.725 172.13 331.696 172.13C331.667 172.13 331.61 172.116 331.61 172.076C331.61 172.037 331.667 172.024 331.696 172.024C331.725 172.024 331.751 172.055 331.864 172.055C331.978 172.055 332.086 172.014 332.191 172.014C332.294 172.014 332.37 172.05 332.413 172.05C332.456 172.05 332.479 172.017 332.479 171.993C332.479 171.952 332.47 171.868 332.424 171.868L332.415 171.852L332.511 171.81Z" fill="white"/>
<path d="M333.354 172.153L333.557 172.927H333.507L333.363 172.38V172.927H333.307V172.38L333.163 172.927H333.557C333.525 173.018 333.418 173.067 333.337 173.067C333.257 173.067 333.148 173.018 333.117 172.927L333.321 172.153H333.354Z" fill="white"/>
<path d="M332.51 172.701L334.223 174.339C334.231 174.322 334.226 174.282 334.216 174.236L332.51 172.604L330.804 174.236C330.794 174.282 330.79 174.322 330.797 174.339L332.51 172.701Z" fill="white"/>
<path d="M332.509 173.436L333.879 174.747L333.916 174.687L332.509 173.34L331.104 174.687L331.14 174.747L332.509 173.436Z" fill="white"/>
<path d="M334.534 172.191C334.626 172.229 334.773 172.391 334.68 172.481C334.341 172.363 334.235 172.653 334.235 172.817C334.235 173.194 334.526 173.388 334.526 174.058C334.526 174.27 334.472 175.088 333.332 175.345C333.156 175.385 332.766 175.486 332.511 175.717V175.647C332.79 175.395 333.328 175.305 333.416 175.279C333.841 175.154 334.482 174.812 334.482 174.043C334.482 173.571 334.283 173.202 334.097 173.202C334.02 173.202 334.044 173.295 334.088 173.359C334.115 173.395 334.145 173.459 334.073 173.444C334.002 173.431 333.908 173.454 333.908 173.516C333.908 173.546 333.948 173.546 333.97 173.534C333.993 173.523 334.02 173.514 334.06 173.514C334.139 173.514 334.223 173.562 334.223 173.618C334.223 173.674 334.115 173.651 334.115 173.695C334.115 173.725 334.376 173.906 334.376 174.117C334.376 174.185 334.346 174.159 334.33 174.117C334.314 174.076 334.269 174.021 334.226 174.021C334.184 174.021 334.16 174.037 334.179 174.071C334.198 174.107 334.269 174.213 334.269 174.361C334.269 174.509 334.157 174.704 334.084 174.791C334.049 174.835 334.036 174.807 334.03 174.791C334.022 174.775 334.006 174.724 333.97 174.724C333.909 174.724 333.946 175.011 333.271 175.187C333.136 175.222 332.794 175.305 332.51 175.518C332.226 175.306 331.885 175.222 331.75 175.187C331.075 175.011 331.114 174.724 331.053 174.724C331.016 174.724 330.999 174.775 330.991 174.791C330.985 174.807 330.974 174.835 330.937 174.791C330.864 174.704 330.753 174.509 330.753 174.361C330.753 174.213 330.822 174.106 330.843 174.071C330.861 174.037 330.837 174.021 330.795 174.021C330.752 174.021 330.708 174.076 330.692 174.117C330.676 174.159 330.645 174.185 330.645 174.117C330.645 173.906 330.907 173.725 330.907 173.695C330.907 173.651 330.798 173.674 330.798 173.618C330.798 173.562 330.883 173.514 330.96 173.514C331.001 173.514 331.03 173.523 331.051 173.534C331.072 173.546 331.113 173.546 331.113 173.516C331.113 173.453 331.019 173.43 330.948 173.444C330.876 173.459 330.906 173.396 330.933 173.359C330.977 173.295 331.002 173.202 330.924 173.202C330.739 173.202 330.539 173.571 330.539 174.043C330.539 174.812 331.179 175.154 331.605 175.279C331.693 175.305 332.23 175.395 332.51 175.647V175.717C332.254 175.486 331.864 175.385 331.687 175.345C330.548 175.087 330.492 174.27 330.492 174.058C330.492 173.388 330.783 173.194 330.783 172.817C330.783 172.654 330.677 172.363 330.338 172.481C330.246 172.391 330.394 172.228 330.486 172.191C330.468 172.11 330.752 171.753 331.211 171.753C331.507 171.753 331.738 171.892 332.054 171.892C332.174 171.892 332.39 171.839 332.51 171.765V171.829C332.39 171.901 332.174 171.955 332.054 171.955C331.738 171.955 331.507 171.816 331.211 171.816C330.987 171.816 330.812 171.904 330.702 171.993C330.718 171.996 330.775 172.017 330.781 172.022C330.81 172.041 330.795 172.072 330.758 172.058C330.733 172.049 330.699 172.031 330.664 172.027C330.647 172.043 330.633 172.058 330.622 172.072C330.695 172.072 330.74 172.094 330.771 172.112C330.804 172.129 330.794 172.166 330.751 172.146C330.715 172.132 330.669 172.11 330.59 172.117C330.577 172.138 330.568 172.155 330.566 172.169L330.584 172.239C330.525 172.239 330.361 172.295 330.392 172.394C330.447 172.379 330.833 172.387 330.833 172.77C330.833 172.833 330.856 172.828 330.856 172.806C330.895 172.632 330.774 172.438 330.624 172.369C330.567 172.342 330.58 172.293 330.663 172.337C330.742 172.379 330.904 172.496 330.904 172.719C330.904 172.77 330.889 172.874 330.889 172.874C330.889 172.874 330.948 172.816 330.948 172.672C330.948 172.435 330.752 172.239 330.584 172.239L330.566 172.169C330.664 172.155 331.018 172.246 331.018 172.713C331.018 172.791 330.97 173.035 330.888 173.139C330.98 173.126 331.157 173.13 331.018 173.37C331.221 173.411 331.169 173.61 331.105 173.61C331.019 173.61 331.027 173.565 330.943 173.565C330.883 173.565 330.876 173.604 330.909 173.615C330.951 173.629 330.979 173.651 330.979 173.697C330.979 173.781 330.854 173.738 330.746 173.983C330.782 173.971 330.803 173.966 330.829 173.966C330.854 173.966 330.916 173.974 330.916 174.024C330.916 174.074 330.809 174.149 330.809 174.353C330.809 174.46 330.92 174.649 330.948 174.686C330.98 174.654 331.012 174.631 331.05 174.631C331.18 174.631 331.16 174.731 331.16 174.758C331.16 174.786 331.305 175.03 331.717 175.13C331.918 175.179 332.358 175.3 332.511 175.445C332.664 175.3 333.104 175.179 333.305 175.13C333.717 175.03 333.861 174.786 333.861 174.758C333.861 174.731 333.844 174.631 333.974 174.631C334.011 174.631 334.042 174.654 334.076 174.686C334.104 174.649 334.214 174.46 334.214 174.353C334.214 174.149 334.107 174.074 334.107 174.024C334.107 173.974 334.168 173.966 334.195 173.966C334.22 173.966 334.24 173.972 334.277 173.983C334.168 173.738 334.042 173.781 334.042 173.697C334.042 173.651 334.071 173.629 334.112 173.615C334.146 173.604 334.141 173.565 334.081 173.565C333.997 173.565 334.003 173.61 333.918 173.61C333.853 173.61 333.801 173.411 334.006 173.37C333.866 173.13 334.043 173.126 334.136 173.139C334.052 173.035 334.006 172.791 334.006 172.713C334.006 172.435 334.132 172.29 334.253 172.221C334.234 172.194 334.214 172.178 334.195 172.161C334.16 172.13 334.189 172.106 334.219 172.129C334.241 172.144 334.268 172.165 334.294 172.201C334.309 172.194 334.325 172.188 334.34 172.184C334.321 172.155 334.294 172.137 334.276 172.12C334.247 172.091 334.269 172.066 334.3 172.082C334.315 172.091 334.345 172.108 334.385 172.172C334.414 172.167 334.439 172.167 334.455 172.169L334.438 172.239C334.271 172.239 334.073 172.433 334.073 172.671C334.073 172.815 334.133 172.873 334.133 172.873C334.133 172.873 334.12 172.77 334.12 172.718C334.12 172.495 334.28 172.379 334.361 172.336C334.444 172.292 334.458 172.341 334.399 172.368C334.251 172.437 334.129 172.631 334.167 172.805C334.167 172.827 334.191 172.833 334.191 172.769C334.191 172.387 334.578 172.378 334.631 172.393C334.662 172.294 334.498 172.238 334.439 172.238L334.457 172.168C334.443 172.081 334.206 171.815 333.812 171.815C333.516 171.815 333.284 171.955 332.968 171.955C332.847 171.955 332.633 171.9 332.513 171.828V171.765C332.633 171.838 332.846 171.891 332.966 171.891C333.282 171.891 333.514 171.752 333.81 171.752C334.269 171.752 334.552 172.11 334.534 172.191Z" fill="white"/>
<path d="M332.511 173.271L333.99 174.688C334.11 174.781 334.195 174.487 334.219 174.405L332.511 172.768L330.801 174.405L330.983 174.513L330.986 174.428L330.935 174.36L331.018 174.335L331.066 174.267L331.117 174.335L331.226 174.284L331.227 174.199L331.176 174.132L331.258 174.105L331.309 174.037L331.358 174.105L331.466 174.053L331.467 173.969L331.416 173.903L331.499 173.878L331.549 173.807L331.6 173.878L331.707 173.824L331.708 173.739L331.657 173.672L331.739 173.647L331.79 173.578L331.841 173.647L331.948 173.595L331.95 173.511L331.899 173.441L331.981 173.416L332.031 173.349L332.081 173.416L332.19 173.364L332.191 173.28L332.14 173.213L332.222 173.188L332.273 173.118L332.322 173.188L332.431 173.135V173.051L332.38 172.983L332.463 172.956L332.514 172.889L332.564 172.956L332.647 172.983L332.594 173.051L332.596 173.135L332.62 173.213L332.703 173.188L332.753 173.118L332.801 173.188L332.884 173.213L332.833 173.28L332.834 173.364L332.944 173.416L332.994 173.349L333.044 173.416L333.125 173.441L333.073 173.511L333.076 173.595L333.186 173.647L333.235 173.578L333.284 173.647L333.367 173.672L333.317 173.739V173.824L333.426 173.878L333.475 173.807L333.526 173.878L333.609 173.903L333.557 173.969V174.053L333.667 174.105L333.715 174.037L333.765 174.107L333.847 174.132L333.794 174.199L333.797 174.284L333.904 174.337L333.955 174.269L334.006 174.337L334.088 174.362L334.036 174.428L334.037 174.515L333.955 174.487L333.872 174.515L333.873 174.428L333.821 174.362L333.904 174.337L333.797 174.284L333.714 174.257L333.632 174.284V174.199L333.581 174.132L333.663 174.107L333.554 174.055L333.473 174.028L333.391 174.055L333.392 173.97L333.34 173.903L333.423 173.878L333.314 173.824L333.231 173.797L333.15 173.824L333.151 173.741L333.099 173.672L333.182 173.647L333.073 173.596L332.991 173.568L332.91 173.596L332.911 173.511L332.859 173.443L332.942 173.418L332.833 173.366L332.75 173.338L332.669 173.366V173.281L332.617 173.213L332.593 173.135L332.511 173.108L332.429 173.135L332.32 173.188L332.404 173.213L332.352 173.281L332.353 173.366L332.271 173.338L332.188 173.366L332.078 173.418L332.163 173.443L332.11 173.511V173.596L332.031 173.568L331.947 173.596L331.841 173.647L331.921 173.672L331.869 173.741L331.87 173.824L331.789 173.797L331.707 173.824L331.598 173.878L331.68 173.903L331.629 173.97V174.055L331.548 174.028L331.464 174.055L331.358 174.105L331.441 174.132L331.389 174.199L331.389 174.284L331.309 174.257L331.226 174.284L331.117 174.335L331.2 174.362L331.148 174.428V174.515L331.066 174.487L330.983 174.515L330.801 174.405C330.826 174.487 330.912 174.781 331.031 174.688L332.511 173.271Z" fill="white"/>
<path d="M331.305 174.344C331.387 174.344 331.452 174.276 331.452 174.191C331.452 174.107 331.387 174.039 331.305 174.039C331.224 174.039 331.158 174.107 331.158 174.191C331.158 174.276 331.224 174.344 331.305 174.344Z" fill="white"/>
<path d="M331.79 173.883C331.872 173.883 331.937 173.815 331.937 173.73C331.937 173.646 331.872 173.578 331.79 173.578C331.709 173.578 331.644 173.646 331.644 173.73C331.644 173.815 331.709 173.883 331.79 173.883Z" fill="white"/>
<path d="M332.276 173.41C332.358 173.41 332.423 173.341 332.423 173.256C332.423 173.172 332.358 173.104 332.276 173.104C332.195 173.104 332.129 173.172 332.129 173.256C332.129 173.341 332.195 173.41 332.276 173.41Z" fill="white"/>
<path d="M332.747 173.41C332.828 173.41 332.894 173.341 332.894 173.256C332.894 173.172 332.828 173.104 332.747 173.104C332.665 173.104 332.599 173.172 332.599 173.256C332.599 173.341 332.665 173.41 332.747 173.41Z" fill="white"/>
<path d="M333.231 173.87C333.312 173.87 333.378 173.801 333.378 173.717C333.378 173.633 333.312 173.565 333.231 173.565C333.149 173.565 333.083 173.633 333.083 173.717C333.083 173.801 333.149 173.87 333.231 173.87Z" fill="white"/>
<path d="M333.701 174.344C333.782 174.344 333.848 174.276 333.848 174.191C333.848 174.107 333.782 174.039 333.701 174.039C333.62 174.039 333.554 174.107 333.554 174.191C333.554 174.276 333.62 174.344 333.701 174.344Z" fill="white"/>
</g>
</g>
</g>
<defs>
<clipPath id="clip0_1_245">
<rect width="382" height="267.4" fill="white" transform="translate(0.5 0.09375)"/>
</clipPath>
<clipPath id="clip1_1_245">
<rect width="389.63" height="272.74" fill="white" transform="translate(-3.3125 -2.57812)"/>
</clipPath>
</defs>
</svg>
