<svg width="96" height="32" viewBox="0 0 96 32" fill="none" xmlns="http://www.w3.org/2000/svg">
<path d="M0.5 15.9231C0.5 7.31024 7.48212 0.328125 16.095 0.328125H79.565C88.1779 0.328125 95.16 7.31024 95.16 15.9231C95.16 24.536 88.1779 31.5181 79.565 31.5181H16.095C7.48213 31.5181 0.5 24.536 0.5 15.9231Z" fill="#2E2E1F" fill-opacity="0.12"/>
<path d="M42.8938 9.52803H44.4469L47.5531 14.7562H47.6844L50.7906 9.52803H52.3438L48.2969 16.1124V20.728H46.9406V16.1124L42.8938 9.52803ZM54.0429 20.728V12.328H55.3335V20.728H54.0429ZM54.6991 10.928C54.4475 10.928 54.2306 10.8424 54.0483 10.671C53.8697 10.4996 53.7804 10.2937 53.7804 10.053C53.7804 9.8124 53.8697 9.60641 54.0483 9.43506C54.2306 9.2637 54.4475 9.17803 54.6991 9.17803C54.9507 9.17803 55.1658 9.2637 55.3444 9.43506C55.5267 9.60641 55.6179 9.8124 55.6179 10.053C55.6179 10.2937 55.5267 10.4996 55.3444 10.671C55.1658 10.8424 54.9507 10.928 54.6991 10.928ZM61.3392 20.903C60.5298 20.903 59.8317 20.7244 59.2447 20.3671C58.6614 20.0062 58.2111 19.503 57.8939 18.8577C57.5804 18.2088 57.4236 17.4541 57.4236 16.5937C57.4236 15.7332 57.5804 14.9749 57.8939 14.3187C58.2111 13.6588 58.6522 13.1447 59.2173 12.7765C59.7861 12.4046 60.4496 12.2187 61.208 12.2187C61.6455 12.2187 62.0775 12.2916 62.5041 12.4374C62.9306 12.5832 63.3189 12.8202 63.6689 13.1483C64.0189 13.4728 64.2978 13.903 64.5056 14.439C64.7134 14.9749 64.8173 15.6348 64.8173 16.4187V16.9655H58.3423V15.8499H63.5048C63.5048 15.3759 63.4101 14.953 63.2205 14.5812C63.0345 14.2093 62.7684 13.9158 62.422 13.7007C62.0793 13.4856 61.6746 13.378 61.208 13.378C60.6939 13.378 60.2491 13.5056 59.8736 13.7608C59.5017 14.0124 59.2155 14.3405 59.015 14.7452C58.8145 15.1499 58.7142 15.5838 58.7142 16.0468V16.7905C58.7142 17.4249 58.8236 17.9627 59.0423 18.4038C59.2647 18.8413 59.5728 19.1749 59.9666 19.4046C60.3603 19.6306 60.8179 19.7437 61.3392 19.7437C61.6783 19.7437 61.9845 19.6963 62.258 19.6015C62.5351 19.503 62.7739 19.3572 62.9744 19.164C63.1749 18.9671 63.3298 18.7228 63.4392 18.4312L64.6861 18.7812C64.5548 19.2041 64.3343 19.5759 64.0244 19.8968C63.7145 20.214 63.3317 20.4619 62.8759 20.6405C62.4202 20.8155 61.908 20.903 61.3392 20.903ZM68.1912 9.52803V20.728H66.9006V9.52803H68.1912ZM73.847 20.903C73.147 20.903 72.529 20.7262 71.9931 20.3726C71.4571 20.0153 71.0379 19.5121 70.7353 18.8632C70.4327 18.2106 70.2814 17.4395 70.2814 16.5499C70.2814 15.6676 70.4327 14.902 70.7353 14.253C71.0379 13.6041 71.459 13.1028 71.9986 12.7491C72.5381 12.3955 73.1616 12.2187 73.8689 12.2187C74.4157 12.2187 74.8478 12.3098 75.165 12.4921C75.4858 12.6707 75.7301 12.8749 75.8978 13.1046C76.0691 13.3306 76.2022 13.5166 76.297 13.6624H76.4064V9.52803H77.697V20.728H76.4501V19.4374H76.297C76.2022 19.5905 76.0673 19.7838 75.8923 20.0171C75.7173 20.2468 75.4676 20.4528 75.1431 20.6351C74.8186 20.8137 74.3866 20.903 73.847 20.903ZM74.022 19.7437C74.5397 19.7437 74.9772 19.6088 75.3345 19.339C75.6918 19.0655 75.9634 18.6882 76.1493 18.2069C76.3353 17.722 76.4282 17.1624 76.4282 16.528C76.4282 15.9009 76.3371 15.3522 76.1548 14.8819C75.9725 14.408 75.7027 14.0397 75.3454 13.7772C74.9881 13.5111 74.547 13.378 74.022 13.378C73.4751 13.378 73.0194 13.5184 72.6548 13.7991C72.2939 14.0762 72.0223 14.4535 71.84 14.9312C71.6613 15.4051 71.572 15.9374 71.572 16.528C71.572 17.1259 71.6631 17.6692 71.8454 18.1577C72.0314 18.6426 72.3048 19.0291 72.6657 19.3171C73.0303 19.6015 73.4824 19.7437 74.022 19.7437Z" fill="#2E2E27"/>
<g clip-path="url(#clip0_1_455)">
<path d="M32.8125 10.8594L26.0625 17.6094L23.25 14.7969L18.1875 19.8594" stroke="#2E2E27" stroke-width="16" stroke-linecap="round" stroke-linejoin="round"/>
<path d="M32.8125 15.3594V10.8594H28.3125" stroke="#2E2E27" stroke-width="16" stroke-linecap="round" stroke-linejoin="round"/>
</g>
<defs>
<clipPath id="clip0_1_455">
<rect width="18" height="18" fill="white" transform="translate(16.5 6.92188)"/>
</clipPath>
</defs>
</svg>
