<svg width="140" height="32" viewBox="0 0 140 32" fill="none" xmlns="http://www.w3.org/2000/svg">
<path d="M0.5 15.9231C0.5 7.31024 7.48212 0.328125 16.095 0.328125H124.285C132.898 0.328125 139.88 7.31024 139.88 15.9231C139.88 24.536 132.898 31.5181 124.285 31.5181H16.095C7.48213 31.5181 0.5 24.536 0.5 15.9231Z" fill="#2E2E1F" fill-opacity="0.12"/>
<path d="M43.8563 20.728V9.52803H47.6406C48.5193 9.52803 49.2375 9.68662 49.7953 10.0038C50.3568 10.3174 50.7724 10.7421 51.0422 11.278C51.312 11.814 51.4469 12.4119 51.4469 13.0718C51.4469 13.7317 51.312 14.3314 51.0422 14.871C50.776 15.4106 50.3641 15.8408 49.8063 16.1616C49.2484 16.4788 48.5339 16.6374 47.6625 16.6374H44.95V15.4343H47.6188C48.2203 15.4343 48.7034 15.3304 49.068 15.1226C49.4326 14.9147 49.6969 14.634 49.8609 14.2804C50.0286 13.9231 50.1125 13.5202 50.1125 13.0718C50.1125 12.6233 50.0286 12.2223 49.8609 11.8687C49.6969 11.515 49.4307 11.2379 49.0625 11.0374C48.6943 10.8332 48.2057 10.7312 47.5969 10.7312H45.2125V20.728H43.8563ZM56.8989 20.903C56.1406 20.903 55.4752 20.7226 54.9028 20.3616C54.3341 20.0007 53.8893 19.4957 53.5684 18.8468C53.2512 18.1978 53.0927 17.4395 53.0927 16.5718C53.0927 15.6968 53.2512 14.933 53.5684 14.2804C53.8893 13.6278 54.3341 13.121 54.9028 12.7601C55.4752 12.3991 56.1406 12.2187 56.8989 12.2187C57.6572 12.2187 58.3208 12.3991 58.8895 12.7601C59.4619 13.121 59.9067 13.6278 60.2239 14.2804C60.5447 14.933 60.7052 15.6968 60.7052 16.5718C60.7052 17.4395 60.5447 18.1978 60.2239 18.8468C59.9067 19.4957 59.4619 20.0007 58.8895 20.3616C58.3208 20.7226 57.6572 20.903 56.8989 20.903ZM56.8989 19.7437C57.4749 19.7437 57.9489 19.596 58.3208 19.3007C58.6927 19.0054 58.9679 18.6171 59.1466 18.1358C59.3252 17.6546 59.4145 17.1332 59.4145 16.5718C59.4145 16.0103 59.3252 15.4871 59.1466 15.0022C58.9679 14.5174 58.6927 14.1254 58.3208 13.8265C57.9489 13.5275 57.4749 13.378 56.8989 13.378C56.3229 13.378 55.8489 13.5275 55.477 13.8265C55.1052 14.1254 54.8299 14.5174 54.6512 15.0022C54.4726 15.4871 54.3833 16.0103 54.3833 16.5718C54.3833 17.1332 54.4726 17.6546 54.6512 18.1358C54.8299 18.6171 55.1052 19.0054 55.477 19.3007C55.8489 19.596 56.3229 19.7437 56.8989 19.7437ZM68.7453 14.2093L67.5859 14.5374C67.513 14.3442 67.4054 14.1564 67.2632 13.9741C67.1247 13.7882 66.9351 13.6351 66.6945 13.5147C66.4539 13.3944 66.1458 13.3343 65.7703 13.3343C65.2562 13.3343 64.8278 13.4528 64.4851 13.6897C64.1461 13.9231 63.9765 14.2202 63.9765 14.5812C63.9765 14.902 64.0932 15.1554 64.3265 15.3413C64.5599 15.5272 64.9244 15.6822 65.4203 15.8062L66.6671 16.1124C67.4182 16.2947 67.9778 16.5736 68.3461 16.9491C68.7143 17.321 68.8984 17.8004 68.8984 18.3874C68.8984 18.8687 68.7599 19.2989 68.4828 19.678C68.2093 20.0572 67.8265 20.3562 67.3343 20.5749C66.8421 20.7937 66.2698 20.903 65.6171 20.903C64.7604 20.903 64.0513 20.7171 63.4898 20.3452C62.9283 19.9733 62.5729 19.4301 62.4234 18.7155L63.6484 18.4093C63.7651 18.8614 63.9856 19.2004 64.3101 19.4265C64.6382 19.6525 65.0666 19.7655 65.5953 19.7655C66.1968 19.7655 66.6744 19.6379 67.0281 19.3827C67.3854 19.1239 67.564 18.814 67.564 18.453C67.564 18.1614 67.4619 17.9171 67.2578 17.7202C67.0536 17.5197 66.7401 17.3702 66.3171 17.2718L64.9171 16.9437C64.1479 16.7614 63.5828 16.4788 63.2218 16.096C62.8645 15.7095 62.6859 15.2265 62.6859 14.6468C62.6859 14.1728 62.819 13.7535 63.0851 13.389C63.3549 13.0244 63.7213 12.7382 64.1843 12.5304C64.651 12.3226 65.1796 12.2187 65.7703 12.2187C66.6015 12.2187 67.2541 12.4009 67.7281 12.7655C68.2057 13.1301 68.5448 13.6114 68.7453 14.2093ZM70.9612 20.728V12.328H72.2518V20.728H70.9612ZM71.6174 10.928C71.3659 10.928 71.1489 10.8424 70.9666 10.671C70.788 10.4996 70.6987 10.2937 70.6987 10.053C70.6987 9.8124 70.788 9.60641 70.9666 9.43506C71.1489 9.2637 71.3659 9.17803 71.6174 9.17803C71.869 9.17803 72.0841 9.2637 72.2627 9.43506C72.445 9.60641 72.5362 9.8124 72.5362 10.053C72.5362 10.2937 72.445 10.4996 72.2627 10.671C72.0841 10.8424 71.869 10.928 71.6174 10.928ZM78.3888 12.328V13.4218H74.0357V12.328H78.3888ZM75.3044 10.3155H76.595V18.3218C76.595 18.6864 76.6479 18.9598 76.7536 19.1421C76.863 19.3207 77.0015 19.441 77.1693 19.503C77.3406 19.5614 77.5211 19.5905 77.7107 19.5905C77.8529 19.5905 77.9695 19.5832 78.0607 19.5687C78.1518 19.5504 78.2247 19.5358 78.2794 19.5249L78.5419 20.6843C78.4544 20.7171 78.3323 20.7499 78.1755 20.7827C78.0187 20.8192 77.82 20.8374 77.5794 20.8374C77.2148 20.8374 76.8575 20.759 76.5075 20.6022C76.1612 20.4455 75.8732 20.2067 75.6435 19.8858C75.4174 19.565 75.3044 19.1603 75.3044 18.6718V10.3155ZM80.4502 20.728V12.328H81.7408V20.728H80.4502ZM81.1064 10.928C80.8549 10.928 80.638 10.8424 80.4557 10.671C80.277 10.4996 80.1877 10.2937 80.1877 10.053C80.1877 9.8124 80.277 9.60641 80.4557 9.43506C80.638 9.2637 80.8549 9.17803 81.1064 9.17803C81.358 9.17803 81.5731 9.2637 81.7518 9.43506C81.934 9.60641 82.0252 9.8124 82.0252 10.053C82.0252 10.2937 81.934 10.4996 81.7518 10.671C81.5731 10.8424 81.358 10.928 81.1064 10.928ZM87.6372 20.903C86.8789 20.903 86.2135 20.7226 85.6411 20.3616C85.0723 20.0007 84.6276 19.4957 84.3067 18.8468C83.9895 18.1978 83.8309 17.4395 83.8309 16.5718C83.8309 15.6968 83.9895 14.933 84.3067 14.2804C84.6276 13.6278 85.0723 13.121 85.6411 12.7601C86.2135 12.3991 86.8789 12.2187 87.6372 12.2187C88.3955 12.2187 89.0591 12.3991 89.6278 12.7601C90.2002 13.121 90.645 13.6278 90.9622 14.2804C91.283 14.933 91.4434 15.6968 91.4434 16.5718C91.4434 17.4395 91.283 18.1978 90.9622 18.8468C90.645 19.4957 90.2002 20.0007 89.6278 20.3616C89.0591 20.7226 88.3955 20.903 87.6372 20.903ZM87.6372 19.7437C88.2132 19.7437 88.6872 19.596 89.0591 19.3007C89.4309 19.0054 89.7062 18.6171 89.8848 18.1358C90.0635 17.6546 90.1528 17.1332 90.1528 16.5718C90.1528 16.0103 90.0635 15.4871 89.8848 15.0022C89.7062 14.5174 89.4309 14.1254 89.0591 13.8265C88.6872 13.5275 88.2132 13.378 87.6372 13.378C87.0611 13.378 86.5872 13.5275 86.2153 13.8265C85.8434 14.1254 85.5682 14.5174 85.3895 15.0022C85.2109 15.4871 85.1216 16.0103 85.1216 16.5718C85.1216 17.1332 85.2109 17.6546 85.3895 18.1358C85.5682 18.6171 85.8434 19.0054 86.2153 19.3007C86.5872 19.596 87.0611 19.7437 87.6372 19.7437ZM94.8242 15.6749V20.728H93.5336V12.328H94.7804V13.6405H94.8898C95.0867 13.214 95.3856 12.8713 95.7867 12.6124C96.1877 12.3499 96.7054 12.2187 97.3398 12.2187C97.9086 12.2187 98.4062 12.3353 98.8328 12.5687C99.2593 12.7983 99.5911 13.1483 99.8281 13.6187C100.065 14.0853 100.184 14.6759 100.184 15.3905V20.728H98.8929V15.478C98.8929 14.8181 98.7216 14.3041 98.3789 13.9358C98.0362 13.564 97.5658 13.378 96.9679 13.378C96.5559 13.378 96.1877 13.4674 95.8632 13.646C95.5424 13.8246 95.289 14.0853 95.1031 14.428C94.9171 14.7707 94.8242 15.1864 94.8242 15.6749ZM102.662 20.728V12.328H103.953V20.728H102.662ZM103.318 10.928C103.067 10.928 102.85 10.8424 102.667 10.671C102.489 10.4996 102.399 10.2937 102.399 10.053C102.399 9.8124 102.489 9.60641 102.667 9.43506C102.85 9.2637 103.067 9.17803 103.318 9.17803C103.57 9.17803 103.785 9.2637 103.964 9.43506C104.146 9.60641 104.237 9.8124 104.237 10.053C104.237 10.2937 104.146 10.4996 103.964 10.671C103.785 10.8424 103.57 10.928 103.318 10.928ZM107.727 15.6749V20.728H106.436V12.328H107.683V13.6405H107.793C107.99 13.214 108.289 12.8713 108.69 12.6124C109.091 12.3499 109.608 12.2187 110.243 12.2187C110.811 12.2187 111.309 12.3353 111.736 12.5687C112.162 12.7983 112.494 13.1483 112.731 13.6187C112.968 14.0853 113.086 14.6759 113.086 15.3905V20.728H111.796V15.478C111.796 14.8181 111.624 14.3041 111.282 13.9358C110.939 13.564 110.469 13.378 109.871 13.378C109.459 13.378 109.091 13.4674 108.766 13.646C108.445 13.8246 108.192 14.0853 108.006 14.428C107.82 14.7707 107.727 15.1864 107.727 15.6749ZM118.955 24.053C118.332 24.053 117.796 23.9728 117.348 23.8124C116.899 23.6556 116.526 23.4478 116.227 23.189C115.931 22.9338 115.696 22.6603 115.521 22.3687L116.549 21.6468C116.666 21.7999 116.814 21.9749 116.992 22.1718C117.171 22.3723 117.415 22.5455 117.725 22.6913C118.039 22.8408 118.449 22.9155 118.955 22.9155C119.634 22.9155 120.193 22.7515 120.634 22.4233C121.076 22.0952 121.296 21.5812 121.296 20.8812V19.1749H121.187C121.092 19.328 120.957 19.5176 120.782 19.7437C120.611 19.966 120.363 20.1647 120.038 20.3397C119.717 20.5111 119.284 20.5968 118.737 20.5968C118.059 20.5968 117.45 20.4364 116.91 20.1155C116.374 19.7947 115.949 19.328 115.636 18.7155C115.326 18.103 115.171 17.3593 115.171 16.4843C115.171 15.6239 115.322 14.8746 115.625 14.2366C115.928 13.595 116.349 13.0991 116.888 12.7491C117.428 12.3955 118.051 12.2187 118.759 12.2187C119.305 12.2187 119.739 12.3098 120.06 12.4921C120.385 12.6707 120.633 12.8749 120.804 13.1046C120.979 13.3306 121.114 13.5166 121.209 13.6624H121.34V12.328H122.587V20.9687C122.587 21.6905 122.423 22.2775 122.095 22.7296C121.77 23.1853 121.333 23.5189 120.782 23.7304C120.235 23.9455 119.626 24.053 118.955 24.053ZM118.912 19.4374C119.429 19.4374 119.867 19.3189 120.224 19.0819C120.582 18.845 120.853 18.5041 121.039 18.0593C121.225 17.6145 121.318 17.0822 121.318 16.4624C121.318 15.8572 121.227 15.3231 121.045 14.8601C120.862 14.397 120.592 14.0343 120.235 13.7718C119.878 13.5093 119.437 13.378 118.912 13.378C118.365 13.378 117.909 13.5166 117.545 13.7937C117.184 14.0707 116.912 14.4426 116.73 14.9093C116.551 15.3759 116.462 15.8937 116.462 16.4624C116.462 17.0457 116.553 17.5616 116.735 18.0101C116.921 18.4549 117.195 18.8049 117.555 19.0601C117.92 19.3116 118.372 19.4374 118.912 19.4374Z" fill="#2E2E27"/>
<g clip-path="url(#clip0_1_436)">
<path d="M25.5 22.6719C29.2279 22.6719 32.25 19.6498 32.25 15.9219C32.25 12.194 29.2279 9.17188 25.5 9.17188C21.7721 9.17188 18.75 12.194 18.75 15.9219C18.75 19.6498 21.7721 22.6719 25.5 22.6719Z" stroke="#2E2E27" stroke-width="16" stroke-linecap="round" stroke-linejoin="round"/>
<path d="M22.6875 15.922C22.6875 18.5559 23.6248 20.9085 25.0978 22.4955C25.149 22.5511 25.2112 22.5956 25.2804 22.626C25.3496 22.6564 25.4244 22.6721 25.5 22.6721C25.5756 22.6721 25.6504 22.6564 25.7196 22.626C25.7888 22.5956 25.851 22.5511 25.9022 22.4955C27.3752 20.9085 28.3125 18.5559 28.3125 15.922C28.3125 13.2881 27.3752 10.9354 25.9022 9.34845C25.851 9.29279 25.7888 9.24836 25.7196 9.21796C25.6504 9.18757 25.5756 9.17188 25.5 9.17188C25.4244 9.17188 25.3496 9.18757 25.2804 9.21796C25.2112 9.24836 25.149 9.29279 25.0978 9.34845C23.6248 10.9354 22.6875 13.2881 22.6875 15.922Z" stroke="#2E2E27" stroke-width="16" stroke-linecap="round" stroke-linejoin="round"/>
<path d="M19.1339 13.6719H31.8661" stroke="#2E2E27" stroke-width="16" stroke-linecap="round" stroke-linejoin="round"/>
<path d="M19.1339 18.1719H31.8661" stroke="#2E2E27" stroke-width="16" stroke-linecap="round" stroke-linejoin="round"/>
</g>
<defs>
<clipPath id="clip0_1_436">
<rect width="18" height="18" fill="white" transform="translate(16.5 6.92188)"/>
</clipPath>
</defs>
</svg>
