<svg width="769" height="252" viewBox="0 0 769 252" fill="none" xmlns="http://www.w3.org/2000/svg">
<path d="M0.5 12.875C0.5 6.24757 5.87258 0.875 12.5 0.875H756.5C763.127 0.875 768.5 6.24758 768.5 12.875V239.665C768.5 246.292 763.127 251.665 756.5 251.665H12.5C5.87258 251.665 0.5 246.292 0.5 239.665V12.875Z" fill="#0B3721"/>
<path d="M50.3205 50.425H49.6432C49.5726 50.0581 49.4404 49.7036 49.2463 49.3615C49.0523 49.0158 48.8019 48.7054 48.495 48.4302C48.1916 48.1516 47.8389 47.9311 47.4368 47.7688C47.0346 47.6066 46.5902 47.5254 46.1034 47.5254C45.3908 47.5254 44.7347 47.7159 44.135 48.0969C43.5389 48.4743 43.0609 49.0299 42.7011 49.7636C42.3449 50.4973 42.1667 51.3951 42.1667 52.4568C42.1667 53.5256 42.3449 54.4269 42.7011 55.1606C43.0609 55.8943 43.5389 56.4499 44.135 56.8273C44.7347 57.2013 45.3908 57.3882 46.1034 57.3882C46.5902 57.3882 47.0346 57.3088 47.4368 57.1501C47.8389 56.9878 48.1916 56.7691 48.495 56.494C48.8019 56.2153 49.0523 55.9031 49.2463 55.5575C49.4404 55.2118 49.5726 54.8555 49.6432 54.4886H50.3205C50.2429 54.926 50.0929 55.3546 49.8707 55.7744C49.652 56.1942 49.3627 56.5751 49.0029 56.9173C48.6467 57.2559 48.2251 57.5258 47.7384 57.7268C47.2551 57.9244 46.7101 58.0232 46.1034 58.0232C45.2003 58.0232 44.4049 57.7939 43.717 57.3353C43.0292 56.8732 42.4895 56.2241 42.0979 55.3881C41.7099 54.5521 41.5159 53.575 41.5159 52.4568C41.5159 51.3386 41.7099 50.3615 42.0979 49.5255C42.4895 48.6895 43.0292 48.0422 43.717 47.5836C44.4049 47.1215 45.2003 46.8905 46.1034 46.8905C46.7101 46.8905 47.2551 46.991 47.7384 47.1921C48.2251 47.3896 48.6467 47.6577 49.0029 47.9963C49.3627 48.3315 49.652 48.7089 49.8707 49.1287C50.0929 49.5484 50.2429 49.9805 50.3205 50.425ZM55.7766 58.0443C55.1064 58.0443 54.5103 57.8644 53.9882 57.5046C53.4661 57.1413 53.0552 56.6422 52.7554 56.0072C52.4555 55.3723 52.3056 54.6491 52.3056 53.8378C52.3056 53.023 52.4555 52.2998 52.7554 51.6684C53.0552 51.0335 53.4661 50.5344 53.9882 50.171C54.5103 49.8077 55.1064 49.626 55.7766 49.626C56.4468 49.626 57.043 49.8077 57.565 50.171C58.0871 50.5344 58.4981 51.0335 58.7979 51.6684C59.0977 52.3034 59.2476 53.0265 59.2476 53.8378C59.2476 54.6491 59.0977 55.3723 58.7979 56.0072C58.4981 56.6422 58.0871 57.1413 57.565 57.5046C57.043 57.8644 56.4468 58.0443 55.7766 58.0443ZM55.7766 57.4464C56.3445 57.4464 56.8402 57.2859 57.2634 56.9649C57.6903 56.6439 58.0201 56.21 58.2529 55.6633C58.4892 55.1165 58.6074 54.508 58.6074 53.8378C58.6074 53.1676 58.4892 52.5609 58.2529 52.0176C58.0166 51.4709 57.6867 51.037 57.2634 50.716C56.8402 50.3915 56.3445 50.2292 55.7766 50.2292C55.2087 50.2292 54.7131 50.3915 54.2898 50.716C53.8665 51.037 53.5367 51.4709 53.3003 52.0176C53.064 52.5609 52.9458 53.1676 52.9458 53.8378C52.9458 54.508 53.0622 55.1165 53.2951 55.6633C53.5314 56.21 53.8612 56.6439 54.2845 56.9649C54.7113 57.2859 55.2087 57.4464 55.7766 57.4464ZM61.5913 57.875V49.7477H62.2209V50.9753H62.2844C62.4396 50.5661 62.7077 50.2416 63.0887 50.0017C63.4696 49.7618 63.9282 49.6419 64.4644 49.6419C65.0535 49.6419 65.5279 49.783 65.8877 50.0652C66.251 50.3474 66.5121 50.7301 66.6708 51.2134H66.729C66.8878 50.7372 67.1717 50.3562 67.5809 50.0705C67.9936 49.7848 68.5016 49.6419 69.1048 49.6419C69.8914 49.6419 70.4911 49.8906 70.9038 50.388C71.32 50.8818 71.5281 51.5591 71.5281 52.4198V57.875H70.8826V52.4198C70.8826 51.7425 70.7203 51.2099 70.3958 50.8218C70.0713 50.4338 69.5951 50.2398 68.9672 50.2398C68.297 50.2398 67.782 50.4497 67.4222 50.8695C67.0624 51.2892 66.8825 51.8236 66.8825 52.4727V57.875H66.2369V52.3775C66.2369 51.746 66.0782 51.2328 65.7607 50.8377C65.4433 50.4391 64.9671 50.2398 64.3321 50.2398C63.9018 50.2398 63.5296 50.3386 63.2157 50.5361C62.9052 50.7337 62.6636 51.0053 62.4908 51.351C62.3215 51.6966 62.2368 52.0935 62.2368 52.5415V57.875H61.5913ZM74.3268 60.9227V49.7477H74.9564V51.5626H75.0358C75.1628 51.2134 75.3409 50.8924 75.5702 50.5996C75.803 50.3068 76.0905 50.0723 76.4327 49.8959C76.7784 49.716 77.184 49.626 77.6497 49.626C78.3058 49.626 78.8772 49.8059 79.364 50.1657C79.8508 50.5255 80.2282 51.0229 80.4963 51.6578C80.7644 52.2893 80.8985 53.0142 80.8985 53.8325C80.8985 54.6509 80.7627 55.3776 80.491 56.0125C80.2229 56.6439 79.8455 57.1413 79.3587 57.5046C78.8755 57.8644 78.3093 58.0443 77.6602 58.0443C77.1982 58.0443 76.7925 57.9561 76.4433 57.7798C76.0976 57.6034 75.8066 57.3688 75.5702 57.076C75.3374 56.7797 75.1593 56.4552 75.0358 56.1025H74.9723V60.9227H74.3268ZM74.9617 53.8272C74.9617 54.5186 75.0676 55.1377 75.2792 55.6844C75.4909 56.2277 75.7942 56.658 76.1893 56.9755C76.5844 57.2894 77.0553 57.4464 77.602 57.4464C78.1559 57.4464 78.6303 57.2877 79.0254 56.9702C79.424 56.6492 79.7273 56.2153 79.9355 55.6686C80.1471 55.1218 80.2529 54.508 80.2529 53.8272C80.2529 53.1464 80.1489 52.5344 79.9408 51.9912C79.7326 51.448 79.431 51.0194 79.036 50.7054C78.6409 50.388 78.1629 50.2292 77.602 50.2292C77.0482 50.2292 76.5738 50.3862 76.1787 50.7001C75.7872 51.0106 75.4856 51.4374 75.2739 51.9806C75.0658 52.5203 74.9617 53.1359 74.9617 53.8272ZM85.4035 58.0496C84.9344 58.0496 84.504 57.9561 84.1125 57.7692C83.7245 57.5822 83.4123 57.3088 83.1759 56.949C82.9431 56.5892 82.8267 56.1518 82.8267 55.6368C82.8267 55.2982 82.8867 55.0001 83.0066 54.7426C83.1266 54.4851 83.3117 54.2629 83.5622 54.0759C83.8126 53.889 84.1336 53.7355 84.5252 53.6156C84.9167 53.4921 85.3841 53.3969 85.9274 53.3299C86.3401 53.2805 86.7087 53.2329 87.0332 53.187C87.3577 53.1376 87.6117 53.0618 87.7952 52.9595C87.9821 52.8572 88.0756 52.702 88.0756 52.4939V52.1552C88.0756 51.5626 87.8886 51.0917 87.5147 50.7425C87.1408 50.3933 86.6258 50.2186 85.9697 50.2186C85.3877 50.2186 84.8973 50.3474 84.4987 50.6049C84.1037 50.8589 83.8268 51.1869 83.668 51.5891L83.0595 51.3615C83.2147 50.9735 83.4387 50.6508 83.7315 50.3933C84.0278 50.1357 84.3665 49.9435 84.7474 49.8165C85.1319 49.6895 85.534 49.626 85.9538 49.626C86.3171 49.626 86.6628 49.6772 86.9909 49.7795C87.3225 49.8818 87.617 50.037 87.8745 50.2451C88.1356 50.4532 88.3419 50.7195 88.4936 51.0441C88.6453 51.3651 88.7211 51.7496 88.7211 52.1975V57.875H88.0756V56.4093H88.028C87.8869 56.7127 87.6929 56.9896 87.4459 57.2401C87.2025 57.487 86.908 57.6845 86.5623 57.8327C86.2201 57.9773 85.8339 58.0496 85.4035 58.0496ZM85.467 57.4517C85.975 57.4517 86.4247 57.3282 86.8163 57.0813C87.2114 56.8309 87.52 56.4887 87.7422 56.0548C87.9645 55.621 88.0756 55.1289 88.0756 54.5786V53.3828C87.9945 53.4533 87.8763 53.5168 87.7211 53.5733C87.5694 53.6262 87.3966 53.6738 87.2025 53.7161C87.0121 53.7549 86.811 53.7902 86.5993 53.8219C86.3912 53.8502 86.1884 53.8766 85.9909 53.9013C85.3982 53.9719 84.915 54.0812 84.5411 54.2294C84.1707 54.374 83.8991 54.5645 83.7262 54.8008C83.5569 55.0372 83.4722 55.3229 83.4722 55.658C83.4722 56.2118 83.6627 56.6492 84.0437 56.9702C84.4247 57.2912 84.8991 57.4517 85.467 57.4517ZM92.1931 52.605V57.875H91.5476V49.7477H92.1772V51.0335H92.2407C92.4312 50.6137 92.7363 50.2768 93.1561 50.0229C93.5758 49.7689 94.075 49.6419 94.6535 49.6419C95.2002 49.6419 95.68 49.7583 96.0927 49.9911C96.5089 50.2239 96.8335 50.5555 97.0663 50.9859C97.3026 51.4127 97.4208 51.9224 97.4208 52.515V57.875H96.7753V52.5415C96.7753 51.8501 96.5689 51.2945 96.1562 50.8748C95.747 50.4515 95.2055 50.2398 94.5318 50.2398C94.0803 50.2398 93.6781 50.3386 93.3254 50.5361C92.9727 50.7337 92.6957 51.0106 92.4947 51.3668C92.2936 51.7196 92.1931 52.1323 92.1931 52.605ZM100.451 60.9227C100.289 60.9227 100.128 60.9051 99.9694 60.8698C99.8107 60.8345 99.6678 60.7887 99.5409 60.7322L99.7313 60.1661C100.063 60.2931 100.363 60.3389 100.631 60.3037C100.902 60.2684 101.142 60.1449 101.35 59.9333C101.559 59.7216 101.735 59.4112 101.88 59.002L102.25 57.9861L99.271 49.7477H99.9642L102.546 57.0443H102.599L105.181 49.7477H105.874L102.446 59.256C102.315 59.6229 102.151 59.9297 101.954 60.1767C101.756 60.4236 101.53 60.6088 101.276 60.7322C101.026 60.8592 100.751 60.9227 100.451 60.9227ZM115.37 58.0443C114.679 58.0443 114.07 57.8627 113.545 57.4993C113.019 57.1325 112.608 56.6316 112.312 55.9966C112.019 55.3617 111.873 54.6421 111.873 53.8378C111.873 53.0336 112.021 52.314 112.317 51.679C112.613 51.0441 113.024 50.5432 113.55 50.1763C114.075 49.8095 114.68 49.626 115.365 49.626C115.88 49.626 116.349 49.7319 116.772 49.9435C117.199 50.1551 117.552 50.4497 117.83 50.8271C118.113 51.2046 118.293 51.642 118.37 52.1393H117.714C117.608 51.5891 117.344 51.134 116.92 50.7742C116.501 50.4109 115.984 50.2292 115.37 50.2292C114.82 50.2292 114.329 50.3844 113.899 50.6949C113.469 51.0017 113.13 51.4268 112.883 51.97C112.636 52.5097 112.513 53.1288 112.513 53.8272C112.513 54.5151 112.633 55.1324 112.873 55.6792C113.112 56.2224 113.448 56.6527 113.878 56.9702C114.308 57.2877 114.806 57.4464 115.37 57.4464C115.769 57.4464 116.132 57.367 116.46 57.2083C116.792 57.0496 117.069 56.8238 117.291 56.531C117.513 56.2383 117.659 55.8961 117.73 55.5045H118.386C118.308 56.0054 118.132 56.4464 117.857 56.8273C117.582 57.2083 117.231 57.5064 116.804 57.7216C116.377 57.9367 115.899 58.0443 115.37 58.0443ZM122.861 58.0496C122.392 58.0496 121.961 57.9561 121.57 57.7692C121.182 57.5822 120.869 57.3088 120.633 56.949C120.4 56.5892 120.284 56.1518 120.284 55.6368C120.284 55.2982 120.344 55.0001 120.464 54.7426C120.584 54.4851 120.769 54.2629 121.019 54.0759C121.27 53.889 121.591 53.7355 121.982 53.6156C122.374 53.4921 122.841 53.3969 123.384 53.3299C123.797 53.2805 124.166 53.2329 124.49 53.187C124.815 53.1376 125.069 53.0618 125.252 52.9595C125.439 52.8572 125.533 52.702 125.533 52.4939V52.1552C125.533 51.5626 125.346 51.0917 124.972 50.7425C124.598 50.3933 124.083 50.2186 123.427 50.2186C122.845 50.2186 122.354 50.3474 121.956 50.6049C121.561 50.8589 121.284 51.1869 121.125 51.5891L120.517 51.3615C120.672 50.9735 120.896 50.6508 121.189 50.3933C121.485 50.1357 121.824 49.9435 122.205 49.8165C122.589 49.6895 122.991 49.626 123.411 49.626C123.774 49.626 124.12 49.6772 124.448 49.7795C124.78 49.8818 125.074 50.037 125.332 50.2451C125.593 50.4532 125.799 50.7195 125.951 51.0441C126.102 51.3651 126.178 51.7496 126.178 52.1975V57.875H125.533V56.4093H125.485C125.344 56.7127 125.15 56.9896 124.903 57.2401C124.66 57.487 124.365 57.6845 124.019 57.8327C123.677 57.9773 123.291 58.0496 122.861 58.0496ZM122.924 57.4517C123.432 57.4517 123.882 57.3282 124.273 57.0813C124.668 56.8309 124.977 56.4887 125.199 56.0548C125.422 55.621 125.533 55.1289 125.533 54.5786V53.3828C125.452 53.4533 125.333 53.5168 125.178 53.5733C125.027 53.6262 124.854 53.6738 124.66 53.7161C124.469 53.7549 124.268 53.7902 124.056 53.8219C123.848 53.8502 123.646 53.8766 123.448 53.9013C122.855 53.9719 122.372 54.0812 121.998 54.2294C121.628 54.374 121.356 54.5645 121.183 54.8008C121.014 55.0372 120.929 55.3229 120.929 55.658C120.929 56.2118 121.12 56.6492 121.501 56.9702C121.882 57.2912 122.356 57.4517 122.924 57.4517ZM134.169 51.4991L133.571 51.6578C133.476 51.3615 133.34 51.1058 133.164 50.8906C132.987 50.6754 132.765 50.5097 132.497 50.3933C132.232 50.2733 131.915 50.2134 131.544 50.2134C130.948 50.2134 130.46 50.3615 130.079 50.6578C129.701 50.9541 129.513 51.3404 129.513 51.8166C129.513 52.2046 129.641 52.5256 129.899 52.7796C130.156 53.03 130.55 53.2205 131.079 53.351L132.328 53.6632C132.97 53.8219 133.453 54.0795 133.777 54.4357C134.102 54.7885 134.264 55.2276 134.264 55.7532C134.264 56.2012 134.142 56.5981 133.899 56.9438C133.656 57.2894 133.319 57.5593 132.888 57.7533C132.462 57.9473 131.964 58.0443 131.396 58.0443C130.638 58.0443 130.015 57.8679 129.529 57.5152C129.042 57.1589 128.73 56.6492 128.592 55.986L129.211 55.8273C129.327 56.3564 129.569 56.7603 129.936 57.039C130.306 57.3141 130.791 57.4517 131.391 57.4517C132.054 57.4517 132.589 57.2947 132.994 56.9808C133.403 56.6668 133.608 56.2647 133.608 55.7744C133.608 55.4005 133.488 55.0848 133.248 54.8273C133.008 54.5698 132.645 54.381 132.158 54.2611L130.862 53.9436C130.199 53.7814 129.701 53.5221 129.37 53.1658C129.038 52.806 128.872 52.3633 128.872 51.8377C128.872 51.4003 128.987 51.0159 129.216 50.6843C129.446 50.3527 129.761 50.0934 130.163 49.9065C130.566 49.7195 131.026 49.626 131.544 49.626C132.232 49.626 132.793 49.7883 133.227 50.1128C133.661 50.4373 133.975 50.8994 134.169 51.4991ZM137.264 52.605V57.875H136.618V47.0386H137.264V51.0335H137.327C137.518 50.6102 137.821 50.2733 138.237 50.0229C138.657 49.7689 139.16 49.6419 139.745 49.6419C140.292 49.6419 140.774 49.7583 141.19 49.9911C141.606 50.2204 141.931 50.5502 142.164 50.9806C142.4 51.4074 142.518 51.9189 142.518 52.515V57.875H141.878V52.5415C141.878 51.8466 141.671 51.2892 141.259 50.8695C140.846 50.4497 140.301 50.2398 139.624 50.2398C139.169 50.2398 138.763 50.3386 138.407 50.5361C138.05 50.7337 137.77 51.0106 137.565 51.3668C137.364 51.7196 137.264 52.1323 137.264 52.605ZM149.847 57.875V47.0386H150.487V51.5626H150.551C150.678 51.2134 150.858 50.8924 151.09 50.5996C151.323 50.3068 151.612 50.0723 151.958 49.8959C152.304 49.716 152.708 49.626 153.17 49.626C153.822 49.626 154.392 49.8077 154.879 50.171C155.366 50.5308 155.743 51.0282 156.011 51.6631C156.279 52.2946 156.413 53.0177 156.413 53.8325C156.413 54.6544 156.279 55.3828 156.011 56.0178C155.743 56.6492 155.367 57.1448 154.884 57.5046C154.401 57.8644 153.831 58.0443 153.175 58.0443C152.713 58.0443 152.309 57.9561 151.963 57.7798C151.618 57.5999 151.328 57.3635 151.096 57.0707C150.863 56.7744 150.681 56.4517 150.551 56.1025H150.477V57.875H149.847ZM150.482 53.8272C150.482 54.5186 150.586 55.1377 150.794 55.6844C151.006 56.2277 151.309 56.658 151.704 56.9755C152.099 57.2894 152.572 57.4464 153.122 57.4464C153.679 57.4464 154.156 57.2877 154.551 56.9702C154.946 56.6492 155.247 56.2153 155.456 55.6686C155.667 55.1218 155.773 54.508 155.773 53.8272C155.773 53.1464 155.667 52.5344 155.456 51.9912C155.247 51.448 154.946 51.0194 154.551 50.7054C154.156 50.388 153.679 50.2292 153.122 50.2292C152.572 50.2292 152.099 50.3862 151.704 50.7001C151.309 51.0106 151.006 51.4374 150.794 51.9806C150.586 52.5203 150.482 53.1359 150.482 53.8272ZM160.914 58.0496C160.445 58.0496 160.015 57.9561 159.623 57.7692C159.235 57.5822 158.923 57.3088 158.687 56.949C158.454 56.5892 158.338 56.1518 158.338 55.6368C158.338 55.2982 158.398 55.0001 158.517 54.7426C158.637 54.4851 158.823 54.2629 159.073 54.0759C159.323 53.889 159.644 53.7355 160.036 53.6156C160.428 53.4921 160.895 53.3969 161.438 53.3299C161.851 53.2805 162.22 53.2329 162.544 53.187C162.869 53.1376 163.123 53.0618 163.306 52.9595C163.493 52.8572 163.586 52.702 163.586 52.4939V52.1552C163.586 51.5626 163.399 51.0917 163.026 50.7425C162.652 50.3933 162.137 50.2186 161.481 50.2186C160.899 50.2186 160.408 50.3474 160.01 50.6049C159.615 50.8589 159.338 51.1869 159.179 51.5891L158.57 51.3615C158.726 50.9735 158.95 50.6508 159.242 50.3933C159.539 50.1357 159.877 49.9435 160.258 49.8165C160.643 49.6895 161.045 49.626 161.465 49.626C161.828 49.626 162.174 49.6772 162.502 49.7795C162.833 49.8818 163.128 50.037 163.385 50.2451C163.646 50.4532 163.853 50.7195 164.004 51.0441C164.156 51.3651 164.232 51.7496 164.232 52.1975V57.875H163.586V56.4093H163.539C163.398 56.7127 163.204 56.9896 162.957 57.2401C162.713 57.487 162.419 57.6845 162.073 57.8327C161.731 57.9773 161.345 58.0496 160.914 58.0496ZM160.978 57.4517C161.486 57.4517 161.936 57.3282 162.327 57.0813C162.722 56.8309 163.031 56.4887 163.253 56.0548C163.475 55.621 163.586 55.1289 163.586 54.5786V53.3828C163.505 53.4533 163.387 53.5168 163.232 53.5733C163.08 53.6262 162.907 53.6738 162.713 53.7161C162.523 53.7549 162.322 53.7902 162.11 53.8219C161.902 53.8502 161.699 53.8766 161.502 53.9013C160.909 53.9719 160.426 54.0812 160.052 54.2294C159.682 54.374 159.41 54.5645 159.237 54.8008C159.068 55.0372 158.983 55.3229 158.983 55.658C158.983 56.2118 159.174 56.6492 159.555 56.9702C159.936 57.2912 160.41 57.4517 160.978 57.4517ZM167.704 47.0386V57.875H167.058V47.0386H167.704ZM172.649 58.0496C172.18 58.0496 171.75 57.9561 171.358 57.7692C170.97 57.5822 170.658 57.3088 170.422 56.949C170.189 56.5892 170.073 56.1518 170.073 55.6368C170.073 55.2982 170.133 55.0001 170.253 54.7426C170.373 54.4851 170.558 54.2629 170.808 54.0759C171.059 53.889 171.38 53.7355 171.771 53.6156C172.163 53.4921 172.63 53.3969 173.173 53.3299C173.586 53.2805 173.955 53.2329 174.279 53.187C174.604 53.1376 174.858 53.0618 175.041 52.9595C175.228 52.8572 175.322 52.702 175.322 52.4939V52.1552C175.322 51.5626 175.135 51.0917 174.761 50.7425C174.387 50.3933 173.872 50.2186 173.216 50.2186C172.634 50.2186 172.143 50.3474 171.745 50.6049C171.35 50.8589 171.073 51.1869 170.914 51.5891L170.305 51.3615C170.461 50.9735 170.685 50.6508 170.977 50.3933C171.274 50.1357 171.612 49.9435 171.993 49.8165C172.378 49.6895 172.78 49.626 173.2 49.626C173.563 49.626 173.909 49.6772 174.237 49.7795C174.568 49.8818 174.863 50.037 175.12 50.2451C175.382 50.4532 175.588 50.7195 175.74 51.0441C175.891 51.3651 175.967 51.7496 175.967 52.1975V57.875H175.322V56.4093H175.274C175.133 56.7127 174.939 56.9896 174.692 57.2401C174.448 57.487 174.154 57.6845 173.808 57.8327C173.466 57.9773 173.08 58.0496 172.649 58.0496ZM172.713 57.4517C173.221 57.4517 173.671 57.3282 174.062 57.0813C174.457 56.8309 174.766 56.4887 174.988 56.0548C175.21 55.621 175.322 55.1289 175.322 54.5786V53.3828C175.24 53.4533 175.122 53.5168 174.967 53.5733C174.815 53.6262 174.643 53.6738 174.448 53.7161C174.258 53.7549 174.057 53.7902 173.845 53.8219C173.637 53.8502 173.434 53.8766 173.237 53.9013C172.644 53.9719 172.161 54.0812 171.787 54.2294C171.417 54.374 171.145 54.5645 170.972 54.8008C170.803 55.0372 170.718 55.3229 170.718 55.658C170.718 56.2118 170.909 56.6492 171.29 56.9702C171.671 57.2912 172.145 57.4517 172.713 57.4517ZM179.439 52.605V57.875H178.794V49.7477H179.423V51.0335H179.487C179.677 50.6137 179.982 50.2768 180.402 50.0229C180.822 49.7689 181.321 49.6419 181.899 49.6419C182.446 49.6419 182.926 49.7583 183.339 49.9911C183.755 50.2239 184.079 50.5555 184.312 50.9859C184.549 51.4127 184.667 51.9224 184.667 52.515V57.875H184.021V52.5415C184.021 51.8501 183.815 51.2945 183.402 50.8748C182.993 50.4515 182.451 50.2398 181.778 50.2398C181.326 50.2398 180.924 50.3386 180.571 50.5361C180.219 50.7337 179.942 51.0106 179.741 51.3668C179.54 51.7196 179.439 52.1323 179.439 52.605ZM190.517 58.0443C189.826 58.0443 189.217 57.8627 188.692 57.4993C188.166 57.1325 187.755 56.6316 187.459 55.9966C187.166 55.3617 187.02 54.6421 187.02 53.8378C187.02 53.0336 187.168 52.314 187.464 51.679C187.76 51.0441 188.171 50.5432 188.697 50.1763C189.223 49.8095 189.827 49.626 190.512 49.626C191.027 49.626 191.496 49.7319 191.919 49.9435C192.346 50.1551 192.699 50.4497 192.978 50.8271C193.26 51.2046 193.44 51.642 193.517 52.1393H192.861C192.755 51.5891 192.491 51.134 192.067 50.7742C191.648 50.4109 191.131 50.2292 190.517 50.2292C189.967 50.2292 189.477 50.3844 189.046 50.6949C188.616 51.0017 188.277 51.4268 188.03 51.97C187.783 52.5097 187.66 53.1288 187.66 53.8272C187.66 54.5151 187.78 55.1324 188.02 55.6792C188.26 56.2224 188.595 56.6527 189.025 56.9702C189.455 57.2877 189.953 57.4464 190.517 57.4464C190.916 57.4464 191.279 57.367 191.607 57.2083C191.939 57.0496 192.216 56.8238 192.438 56.531C192.66 56.2383 192.806 55.8961 192.877 55.5045H193.533C193.455 56.0054 193.279 56.4464 193.004 56.8273C192.729 57.2083 192.378 57.5064 191.951 57.7216C191.524 57.9367 191.046 58.0443 190.517 58.0443ZM199.024 58.0443C198.29 58.0443 197.651 57.8627 197.108 57.4993C196.565 57.136 196.145 56.6386 195.849 56.0072C195.553 55.3758 195.404 54.6562 195.404 53.8484C195.404 53.0371 195.553 52.314 195.849 51.679C196.149 51.0441 196.56 50.5432 197.082 50.1763C197.604 49.8095 198.2 49.626 198.87 49.626C199.325 49.626 199.756 49.7177 200.161 49.9012C200.57 50.0811 200.93 50.3421 201.241 50.6843C201.555 51.0264 201.8 51.4391 201.976 51.9224C202.156 52.4057 202.246 52.9489 202.246 53.5521V53.9542H195.812V53.3669H201.6C201.6 52.7778 201.481 52.2469 201.241 51.7743C201.001 51.3016 200.674 50.9259 200.262 50.6472C199.849 50.3686 199.385 50.2292 198.87 50.2292C198.33 50.2292 197.849 50.3809 197.426 50.6843C197.006 50.9841 196.673 51.3898 196.426 51.9012C196.182 52.4127 196.055 52.9842 196.045 53.6156V53.8801C196.045 54.5574 196.163 55.1659 196.399 55.7056C196.639 56.2418 196.981 56.6668 197.426 56.9808C197.87 57.2912 198.403 57.4464 199.024 57.4464C199.468 57.4464 199.847 57.3723 200.161 57.2242C200.479 57.0725 200.738 56.8891 200.939 56.6739C201.14 56.4587 201.292 56.2506 201.394 56.0495L201.981 56.2876C201.858 56.5593 201.666 56.8309 201.405 57.1025C201.147 57.3706 200.819 57.5946 200.421 57.7745C200.025 57.9544 199.56 58.0443 199.024 58.0443Z" fill="white"/>
<path d="M48.2054 106.357V86.4475H49.4808V106.357H48.2054ZM52.4983 92.4203C52.405 91.6322 52.0265 91.0204 51.3629 90.5849C50.6992 90.1494 49.8852 89.9316 48.9209 89.9316C48.2158 89.9316 47.5988 90.0457 47.07 90.2738C46.5463 90.5019 46.1367 90.8156 45.8412 91.2148C45.5509 91.6141 45.4057 92.0677 45.4057 92.5758C45.4057 93.0009 45.5068 93.3665 45.709 93.6724C45.9164 93.9731 46.1808 94.2245 46.5022 94.4267C46.8237 94.6237 47.1607 94.7871 47.5132 94.9167C47.8658 95.0411 48.1898 95.1422 48.4854 95.22L50.103 95.6555C50.5178 95.7644 50.9792 95.9147 51.4873 96.1066C52.0006 96.2984 52.4905 96.5602 52.9571 96.892C53.4289 97.2187 53.8178 97.6386 54.1237 98.1519C54.4296 98.6652 54.5825 99.2951 54.5825 100.042C54.5825 100.902 54.357 101.68 53.9059 102.375C53.46 103.07 52.8068 103.622 51.9461 104.031C51.0907 104.441 50.0511 104.646 48.8276 104.646C47.6869 104.646 46.6993 104.462 45.8645 104.094C45.035 103.725 44.3817 103.212 43.9047 102.554C43.4329 101.895 43.1659 101.13 43.1037 100.259H45.0946C45.1464 100.861 45.3487 101.359 45.7012 101.753C46.0589 102.142 46.51 102.432 47.0544 102.624C47.604 102.81 48.195 102.904 48.8276 102.904C49.5638 102.904 50.2248 102.784 50.8107 102.546C51.3966 102.302 51.8606 101.965 52.2028 101.535C52.545 101.099 52.7161 100.591 52.7161 100.011C52.7161 99.4818 52.5683 99.0514 52.2728 98.7196C51.9772 98.3878 51.5884 98.1182 51.1062 97.9108C50.624 97.7034 50.103 97.522 49.543 97.3664L47.5832 96.8065C46.3389 96.4487 45.3538 95.9381 44.628 95.2744C43.9021 94.6108 43.5392 93.7424 43.5392 92.6691C43.5392 91.7774 43.7803 90.9997 44.2625 90.336C44.7498 89.6672 45.4031 89.1487 46.2223 88.7806C47.0466 88.4073 47.9669 88.2207 48.9831 88.2207C50.0097 88.2207 50.9222 88.4047 51.7206 88.7729C52.519 89.1358 53.1516 89.6335 53.6182 90.266C54.09 90.8986 54.3388 91.6166 54.3648 92.4203H52.4983Z" fill="white"/>
<path d="M65.5312 104.543C64.3274 104.543 63.302 104.215 62.4551 103.56C61.6081 102.9 60.9609 101.944 60.5135 100.692C60.0661 99.4347 59.8423 97.9166 59.8423 96.1375C59.8423 94.3691 60.0661 92.8589 60.5135 91.6072C60.9663 90.3501 61.6161 89.3912 62.4631 88.7307C63.3153 88.0649 64.3381 87.732 65.5312 87.732C66.7244 87.732 67.7445 88.0649 68.5914 88.7307C69.4437 89.3912 70.0936 90.3501 70.541 91.6072C70.9938 92.8589 71.2202 94.3691 71.2202 96.1375C71.2202 97.9166 70.9964 99.4347 70.549 100.692C70.1016 101.944 69.4544 102.9 68.6074 103.56C67.7605 104.215 66.7351 104.543 65.5312 104.543ZM65.5312 102.785C66.7244 102.785 67.6513 102.21 68.3118 101.059C68.9723 99.9088 69.3026 98.2682 69.3026 96.1375C69.3026 94.7206 69.1507 93.5141 68.8471 92.518C68.5488 91.5219 68.1174 90.7629 67.5527 90.2409C66.9934 89.7188 66.3196 89.4578 65.5312 89.4578C64.3487 89.4578 63.4245 90.0411 62.7587 91.2077C62.0929 92.3689 61.7599 94.0122 61.7599 96.1375C61.7599 97.5544 61.9091 98.7583 62.2074 99.749C62.5057 100.74 62.9345 101.494 63.4938 102.01C64.0584 102.527 64.7376 102.785 65.5312 102.785ZM75.0914 104.447C74.6972 104.447 74.3589 104.306 74.0766 104.024C73.7943 103.741 73.6531 103.403 73.6531 103.009C73.6531 102.615 73.7943 102.277 74.0766 101.994C74.3589 101.712 74.6972 101.571 75.0914 101.571C75.4855 101.571 75.8238 101.712 76.1061 101.994C76.3884 102.277 76.5296 102.615 76.5296 103.009C76.5296 103.27 76.463 103.51 76.3298 103.728C76.202 103.946 76.0289 104.122 75.8105 104.255C75.5974 104.383 75.3577 104.447 75.0914 104.447ZM84.6475 104.543C83.4436 104.543 82.4182 104.215 81.5713 103.56C80.7243 102.9 80.0771 101.944 79.6297 100.692C79.1823 99.4347 78.9585 97.9166 78.9585 96.1375C78.9585 94.3691 79.1823 92.8589 79.6297 91.6072C80.0825 90.3501 80.7323 89.3912 81.5793 88.7307C82.4316 88.0649 83.4543 87.732 84.6475 87.732C85.8406 87.732 86.8607 88.0649 87.7077 88.7307C88.5599 89.3912 89.2098 90.3501 89.6572 91.6072C90.11 92.8589 90.3364 94.3691 90.3364 96.1375C90.3364 97.9166 90.1127 99.4347 89.6652 100.692C89.2178 101.944 88.5706 102.9 87.7236 103.56C86.8767 104.215 85.8513 104.543 84.6475 104.543ZM84.6475 102.785C85.8406 102.785 86.7675 102.21 87.428 101.059C88.0885 99.9088 88.4188 98.2682 88.4188 96.1375C88.4188 94.7206 88.267 93.5141 87.9633 92.518C87.665 91.5219 87.2336 90.7629 86.6689 90.2409C86.1096 89.7188 85.4358 89.4578 84.6475 89.4578C83.4649 89.4578 82.5407 90.0411 81.8749 91.2077C81.2091 92.3689 80.8762 94.0122 80.8762 96.1375C80.8762 97.5544 81.0253 98.7583 81.3236 99.749C81.6219 100.74 82.0507 101.494 82.61 102.01C83.1746 102.527 83.8538 102.785 84.6475 102.785ZM98.71 104.543C97.5061 104.543 96.4807 104.215 95.6338 103.56C94.7868 102.9 94.1396 101.944 93.6922 100.692C93.2448 99.4347 93.021 97.9166 93.021 96.1375C93.021 94.3691 93.2448 92.8589 93.6922 91.6072C94.145 90.3501 94.7948 89.3912 95.6418 88.7307C96.4941 88.0649 97.5168 87.732 98.71 87.732C99.9031 87.732 100.923 88.0649 101.77 88.7307C102.622 89.3912 103.272 90.3501 103.72 91.6072C104.172 92.8589 104.399 94.3691 104.399 96.1375C104.399 97.9166 104.175 99.4347 103.728 100.692C103.28 101.944 102.633 102.9 101.786 103.56C100.939 104.215 99.9138 104.543 98.71 104.543ZM98.71 102.785C99.9031 102.785 100.83 102.21 101.491 101.059C102.151 99.9088 102.481 98.2682 102.481 96.1375C102.481 94.7206 102.329 93.5141 102.026 92.518C101.728 91.5219 101.296 90.7629 100.731 90.2409C100.172 89.7188 99.4983 89.4578 98.71 89.4578C97.5274 89.4578 96.6032 90.0411 95.9374 91.2077C95.2716 92.3689 94.9387 94.0122 94.9387 96.1375C94.9387 97.5544 95.0878 98.7583 95.3861 99.749C95.6844 100.74 96.1132 101.494 96.6725 102.01C97.2371 102.527 97.9163 102.785 98.71 102.785Z" fill="white" fill-opacity="0.5"/>
<path d="M40.5 158.065C40.5 155.856 42.2909 154.065 44.5 154.065H501.97C504.179 154.065 505.97 155.856 505.97 158.065V207.665C505.97 209.874 504.179 211.665 501.97 211.665H44.5C42.2908 211.665 40.5 209.874 40.5 207.665V158.065Z" fill="white" fill-opacity="0.16"/>
<path d="M55.0175 177.88H55.7533L58.9599 182.792H59.0295L62.2362 177.88H62.972L59.3079 183.443V188.062H58.6815V183.443L55.0175 177.88ZM66.4285 188.221C65.7988 188.221 65.2386 188.052 64.7481 187.714C64.2576 187.373 63.8714 186.904 63.5897 186.307C63.308 185.71 63.1671 185.031 63.1671 184.269C63.1671 183.503 63.308 182.824 63.5897 182.23C63.8714 181.634 64.2576 181.165 64.7481 180.823C65.2386 180.482 65.7988 180.311 66.4285 180.311C67.0582 180.311 67.6184 180.482 68.1089 180.823C68.5994 181.165 68.9856 181.634 69.2673 182.23C69.549 182.827 69.6899 183.506 69.6899 184.269C69.6899 185.031 69.549 185.71 69.2673 186.307C68.9856 186.904 68.5994 187.373 68.1089 187.714C67.6184 188.052 67.0582 188.221 66.4285 188.221ZM66.4285 187.659C66.9621 187.659 67.4278 187.509 67.8255 187.207C68.2266 186.905 68.5365 186.498 68.7552 185.984C68.9773 185.47 69.0883 184.898 69.0883 184.269C69.0883 183.639 68.9773 183.069 68.7552 182.558C68.5331 182.045 68.2232 181.637 67.8255 181.335C67.4278 181.031 66.9621 180.878 66.4285 180.878C65.8949 180.878 65.4292 181.031 65.0315 181.335C64.6338 181.637 64.3239 182.045 64.1018 182.558C63.8797 183.069 63.7687 183.639 63.7687 184.269C63.7687 184.898 63.8781 185.47 64.0968 185.984C64.3189 186.498 64.6288 186.905 65.0265 187.207C65.4276 187.509 65.8949 187.659 66.4285 187.659ZM76.6712 185.352V180.426H77.2778V188.062H76.6712V186.824H76.6215C76.4425 187.218 76.1525 187.54 75.7515 187.789C75.3537 188.037 74.8831 188.161 74.3395 188.161C73.8391 188.161 73.3966 188.052 73.0121 187.833C72.6277 187.615 72.326 187.305 72.1073 186.904C71.8885 186.499 71.7792 186.019 71.7792 185.462V180.426H72.3857V185.437C72.3857 186.073 72.5779 186.589 72.9624 186.983C73.3502 187.374 73.8507 187.57 74.4638 187.57C74.8616 187.57 75.2278 187.48 75.5626 187.301C75.8973 187.122 76.1658 186.867 76.368 186.536C76.5701 186.201 76.6712 185.807 76.6712 185.352ZM79.7909 188.062V180.426H80.3825V181.619H80.4372C80.6029 181.228 80.883 180.915 81.2774 180.679C81.6718 180.441 82.1209 180.321 82.6247 180.321C82.6777 180.321 82.7308 180.321 82.7838 180.321C82.8368 180.321 82.8865 180.323 82.9329 180.326V180.938C82.8932 180.934 82.8451 180.929 82.7888 180.923C82.7357 180.913 82.6694 180.908 82.5899 180.908C82.1657 180.908 81.7878 180.999 81.4564 181.181C81.1283 181.364 80.8697 181.616 80.6808 181.937C80.4919 182.255 80.3974 182.62 80.3974 183.031V188.062H79.7909ZM90.1654 188.062L87.8784 180.426H88.5148L90.4835 187.172H90.5382L92.512 180.426H93.1433L95.1121 187.167H95.1618L97.1306 180.426H97.7669L95.48 188.062H94.8039L92.855 181.415H92.7904L90.8415 188.062H90.1654ZM102.235 188.221C101.605 188.221 101.045 188.052 100.555 187.714C100.064 187.373 99.6781 186.904 99.3964 186.307C99.1146 185.71 98.9738 185.031 98.9738 184.269C98.9738 183.503 99.1146 182.824 99.3964 182.23C99.6781 181.634 100.064 181.165 100.555 180.823C101.045 180.482 101.605 180.311 102.235 180.311C102.865 180.311 103.425 180.482 103.916 180.823C104.406 181.165 104.792 181.634 105.074 182.23C105.356 182.827 105.497 183.506 105.497 184.269C105.497 185.031 105.356 185.71 105.074 186.307C104.792 186.904 104.406 187.373 103.916 187.714C103.425 188.052 102.865 188.221 102.235 188.221ZM102.235 187.659C102.769 187.659 103.234 187.509 103.632 187.207C104.033 186.905 104.343 186.498 104.562 185.984C104.784 185.47 104.895 184.898 104.895 184.269C104.895 183.639 104.784 183.069 104.562 182.558C104.34 182.045 104.03 181.637 103.632 181.335C103.234 181.031 102.769 180.878 102.235 180.878C101.702 180.878 101.236 181.031 100.838 181.335C100.44 181.637 100.131 182.045 99.9084 182.558C99.6864 183.069 99.5753 183.639 99.5753 184.269C99.5753 184.898 99.6847 185.47 99.9035 185.984C100.126 186.498 100.435 186.905 100.833 187.207C101.234 187.509 101.702 187.659 102.235 187.659ZM107.586 188.062V180.426H108.177V181.619H108.232C108.398 181.228 108.678 180.915 109.072 180.679C109.467 180.441 109.916 180.321 110.42 180.321C110.473 180.321 110.526 180.321 110.579 180.321C110.632 180.321 110.681 180.323 110.728 180.326V180.938C110.688 180.934 110.64 180.929 110.584 180.923C110.531 180.913 110.464 180.908 110.385 180.908C109.961 180.908 109.583 180.999 109.251 181.181C108.923 181.364 108.665 181.616 108.476 181.937C108.287 182.255 108.192 182.62 108.192 183.031V188.062H107.586ZM112.884 185.079L112.874 184.209H113.033L116.852 180.426H117.642L114.137 183.906L114.077 183.931L112.884 185.079ZM112.357 188.062V177.88H112.964V188.062H112.357ZM117.026 188.062L113.804 183.99L114.242 183.588L117.801 188.062H117.026ZM126.355 188.221C125.665 188.221 125.066 188.05 124.555 187.709C124.045 187.368 123.65 186.9 123.372 186.307C123.093 185.714 122.954 185.038 122.954 184.279C122.954 183.516 123.093 182.837 123.372 182.24C123.654 181.644 124.04 181.173 124.53 180.828C125.021 180.484 125.581 180.311 126.211 180.311C126.638 180.311 127.043 180.397 127.424 180.57C127.808 180.739 128.146 180.984 128.438 181.306C128.733 181.627 128.963 182.015 129.129 182.469C129.298 182.923 129.383 183.433 129.383 184V184.378H123.337V183.826H128.776C128.776 183.273 128.663 182.774 128.438 182.33C128.213 181.886 127.906 181.533 127.518 181.271C127.13 181.009 126.695 180.878 126.211 180.878C125.704 180.878 125.251 181.021 124.853 181.306C124.459 181.587 124.146 181.968 123.914 182.449C123.685 182.93 123.566 183.467 123.556 184.06V184.308C123.556 184.945 123.667 185.517 123.889 186.024C124.114 186.527 124.436 186.927 124.853 187.222C125.271 187.513 125.771 187.659 126.355 187.659C126.772 187.659 127.129 187.59 127.424 187.451C127.722 187.308 127.966 187.136 128.155 186.933C128.343 186.731 128.486 186.536 128.582 186.347L129.134 186.571C129.018 186.826 128.837 187.081 128.592 187.336C128.35 187.588 128.042 187.799 127.667 187.968C127.296 188.137 126.859 188.221 126.355 188.221ZM131.471 188.062V180.426H132.062V181.579H132.122C132.268 181.195 132.52 180.89 132.878 180.664C133.235 180.439 133.666 180.326 134.17 180.326C134.724 180.326 135.169 180.459 135.508 180.724C135.849 180.989 136.094 181.349 136.243 181.803H136.298C136.447 181.355 136.714 180.997 137.098 180.729C137.486 180.46 137.963 180.326 138.53 180.326C139.269 180.326 139.833 180.56 140.221 181.027C140.612 181.491 140.807 182.128 140.807 182.936V188.062H140.201V182.936C140.201 182.3 140.048 181.799 139.743 181.435C139.438 181.07 138.991 180.888 138.401 180.888C137.771 180.888 137.287 181.085 136.949 181.48C136.611 181.874 136.442 182.376 136.442 182.986V188.062H135.836V182.897C135.836 182.303 135.686 181.821 135.388 181.45C135.09 181.075 134.642 180.888 134.046 180.888C133.642 180.888 133.292 180.981 132.997 181.166C132.705 181.352 132.478 181.607 132.316 181.932C132.157 182.257 132.077 182.63 132.077 183.051V188.062H131.471ZM145.348 188.226C144.907 188.226 144.502 188.138 144.134 187.963C143.77 187.787 143.477 187.53 143.254 187.192C143.036 186.854 142.926 186.443 142.926 185.959C142.926 185.641 142.983 185.361 143.095 185.119C143.208 184.877 143.382 184.668 143.617 184.492C143.853 184.317 144.154 184.173 144.522 184.06C144.89 183.944 145.329 183.854 145.84 183.791C146.228 183.745 146.574 183.7 146.879 183.657C147.184 183.611 147.422 183.54 147.595 183.443C147.77 183.347 147.858 183.201 147.858 183.006V182.688C147.858 182.131 147.683 181.688 147.331 181.36C146.98 181.032 146.496 180.868 145.879 180.868C145.333 180.868 144.872 180.989 144.497 181.231C144.126 181.47 143.866 181.778 143.717 182.156L143.145 181.942C143.291 181.577 143.501 181.274 143.777 181.032C144.055 180.79 144.373 180.61 144.731 180.49C145.092 180.371 145.47 180.311 145.865 180.311C146.206 180.311 146.531 180.359 146.839 180.455C147.151 180.552 147.427 180.697 147.669 180.893C147.915 181.089 148.108 181.339 148.251 181.644C148.393 181.945 148.465 182.307 148.465 182.727V188.062H147.858V186.685H147.813C147.681 186.97 147.499 187.23 147.267 187.465C147.038 187.697 146.761 187.883 146.436 188.022C146.115 188.158 145.752 188.226 145.348 188.226ZM145.407 187.664C145.884 187.664 146.307 187.548 146.675 187.316C147.046 187.081 147.336 186.759 147.545 186.352C147.754 185.944 147.858 185.482 147.858 184.965V183.841C147.782 183.907 147.671 183.967 147.525 184.02C147.383 184.07 147.22 184.115 147.038 184.154C146.859 184.191 146.67 184.224 146.471 184.254C146.276 184.28 146.085 184.305 145.899 184.328C145.343 184.395 144.888 184.497 144.537 184.637C144.189 184.772 143.934 184.951 143.772 185.174C143.612 185.396 143.533 185.664 143.533 185.979C143.533 186.499 143.712 186.91 144.07 187.212C144.428 187.513 144.874 187.664 145.407 187.664ZM151.038 188.062V180.426H151.639V188.062H151.038ZM151.341 179.073C151.208 179.073 151.092 179.027 150.993 178.934C150.897 178.841 150.849 178.729 150.849 178.596C150.849 178.464 150.897 178.351 150.993 178.258C151.089 178.165 151.205 178.119 151.341 178.119C151.473 178.119 151.588 178.165 151.684 178.258C151.783 178.351 151.833 178.464 151.833 178.596C151.833 178.729 151.785 178.841 151.689 178.934C151.593 179.027 151.477 179.073 151.341 179.073ZM154.786 177.88V188.062H154.18V177.88H154.786Z" fill="white" fill-opacity="0.5"/>
<path d="M521.97 158.065C521.97 155.856 523.761 154.065 525.97 154.065H724.51C726.719 154.065 728.51 155.856 728.51 158.065V207.665C728.51 209.874 726.719 211.665 724.51 211.665H525.97C523.761 211.665 521.97 209.874 521.97 207.665V158.065Z" fill="white"/>
<path d="M554.486 180.512H553.121C553.04 180.119 552.899 179.774 552.697 179.477C552.499 179.18 552.257 178.93 551.97 178.728C551.688 178.523 551.374 178.369 551.029 178.266C550.684 178.163 550.325 178.112 549.95 178.112C549.268 178.112 548.65 178.284 548.095 178.629C547.545 178.974 547.107 179.482 546.78 180.154C546.457 180.825 546.296 181.649 546.296 182.625C546.296 183.601 546.457 184.425 546.78 185.097C547.107 185.768 547.545 186.277 548.095 186.621C548.65 186.966 549.268 187.139 549.95 187.139C550.325 187.139 550.684 187.087 551.029 186.985C551.374 186.882 551.688 186.73 551.97 186.528C552.257 186.322 552.499 186.071 552.697 185.774C552.899 185.473 553.04 185.128 553.121 184.739H554.486C554.383 185.315 554.196 185.831 553.924 186.286C553.653 186.741 553.315 187.128 552.912 187.447C552.508 187.763 552.055 188.003 551.552 188.168C551.053 188.333 550.519 188.416 549.95 188.416C548.989 188.416 548.134 188.181 547.385 187.711C546.637 187.242 546.048 186.574 545.619 185.708C545.189 184.842 544.975 183.814 544.975 182.625C544.975 181.436 545.189 180.409 545.619 179.543C546.048 178.677 546.637 178.009 547.385 177.539C548.134 177.07 548.989 176.835 549.95 176.835C550.519 176.835 551.053 176.917 551.552 177.083C552.055 177.248 552.508 177.49 552.912 177.809C553.315 178.125 553.653 178.51 553.924 178.965C554.196 179.416 554.383 179.932 554.486 180.512ZM559.108 188.46C558.573 188.46 558.087 188.359 557.65 188.157C557.213 187.952 556.866 187.656 556.61 187.271C556.353 186.882 556.224 186.412 556.224 185.862C556.224 185.377 556.32 184.985 556.51 184.684C556.701 184.379 556.956 184.141 557.276 183.968C557.595 183.796 557.947 183.667 558.332 183.583C558.721 183.495 559.112 183.425 559.505 183.374C560.019 183.308 560.435 183.258 560.754 183.225C561.077 183.189 561.312 183.128 561.459 183.044C561.609 182.959 561.684 182.812 561.684 182.603V182.559C561.684 182.016 561.536 181.594 561.239 181.293C560.945 180.992 560.499 180.842 559.901 180.842C559.281 180.842 558.795 180.978 558.442 181.249C558.09 181.521 557.842 181.811 557.699 182.119L556.466 181.679C556.687 181.165 556.98 180.765 557.347 180.479C557.718 180.189 558.121 179.987 558.558 179.873C558.998 179.756 559.431 179.697 559.857 179.697C560.129 179.697 560.44 179.73 560.793 179.796C561.149 179.859 561.492 179.989 561.822 180.187C562.156 180.385 562.433 180.684 562.653 181.084C562.873 181.484 562.983 182.02 562.983 182.691V188.262H561.684V187.117H561.618C561.53 187.3 561.384 187.497 561.178 187.706C560.973 187.915 560.699 188.093 560.358 188.24C560.017 188.386 559.6 188.46 559.108 188.46ZM559.307 187.293C559.82 187.293 560.253 187.192 560.606 186.99C560.962 186.788 561.229 186.528 561.409 186.209C561.593 185.889 561.684 185.554 561.684 185.201V184.012C561.629 184.078 561.508 184.139 561.321 184.194C561.138 184.245 560.925 184.291 560.683 184.332C560.444 184.368 560.211 184.401 559.984 184.431C559.76 184.456 559.578 184.478 559.439 184.497C559.101 184.541 558.786 184.612 558.492 184.711C558.202 184.807 557.967 184.952 557.787 185.146C557.611 185.337 557.523 185.598 557.523 185.928C557.523 186.379 557.69 186.721 558.024 186.952C558.362 187.179 558.789 187.293 559.307 187.293ZM566.758 176.989V188.262H565.459V176.989H566.758ZM572.677 188.438C571.885 188.438 571.202 188.251 570.63 187.876C570.057 187.502 569.617 186.987 569.309 186.33C569 185.673 568.846 184.922 568.846 184.078C568.846 183.22 569.004 182.462 569.32 181.805C569.639 181.145 570.083 180.629 570.652 180.259C571.224 179.884 571.892 179.697 572.655 179.697C573.25 179.697 573.785 179.807 574.262 180.027C574.739 180.248 575.13 180.556 575.435 180.952C575.739 181.348 575.928 181.811 576.002 182.339H574.703C574.604 181.954 574.384 181.613 574.042 181.315C573.705 181.014 573.25 180.864 572.677 180.864C572.171 180.864 571.727 180.996 571.345 181.26C570.967 181.521 570.672 181.89 570.459 182.367C570.25 182.84 570.145 183.396 570.145 184.034C570.145 184.688 570.248 185.256 570.454 185.741C570.663 186.225 570.956 186.601 571.334 186.869C571.716 187.137 572.163 187.271 572.677 187.271C573.015 187.271 573.321 187.212 573.596 187.095C573.872 186.977 574.105 186.809 574.295 186.588C574.486 186.368 574.622 186.104 574.703 185.796H576.002C575.928 186.295 575.747 186.744 575.457 187.144C575.171 187.541 574.791 187.856 574.317 188.091C573.848 188.322 573.301 188.438 572.677 188.438ZM583.334 184.805V179.807H584.633V188.262H583.334V186.831H583.246C583.048 187.26 582.739 187.625 582.321 187.926C581.903 188.223 581.374 188.372 580.736 188.372C580.207 188.372 579.738 188.256 579.327 188.025C578.916 187.79 578.593 187.438 578.358 186.968C578.123 186.495 578.006 185.899 578.006 185.179V179.807H579.305V185.091C579.305 185.708 579.477 186.199 579.822 186.566C580.171 186.933 580.615 187.117 581.154 187.117C581.477 187.117 581.806 187.034 582.139 186.869C582.477 186.704 582.76 186.451 582.987 186.11C583.218 185.768 583.334 185.333 583.334 184.805ZM588.416 176.989V188.262H587.117V176.989H588.416ZM593.388 188.46C592.852 188.46 592.366 188.359 591.93 188.157C591.493 187.952 591.146 187.656 590.889 187.271C590.632 186.882 590.504 186.412 590.504 185.862C590.504 185.377 590.599 184.985 590.79 184.684C590.981 184.379 591.236 184.141 591.555 183.968C591.874 183.796 592.227 183.667 592.612 183.583C593.001 183.495 593.392 183.425 593.784 183.374C594.298 183.308 594.715 183.258 595.034 183.225C595.357 183.189 595.592 183.128 595.738 183.044C595.889 182.959 595.964 182.812 595.964 182.603V182.559C595.964 182.016 595.816 181.594 595.518 181.293C595.225 180.992 594.779 180.842 594.181 180.842C593.561 180.842 593.074 180.978 592.722 181.249C592.37 181.521 592.122 181.811 591.979 182.119L590.746 181.679C590.966 181.165 591.26 180.765 591.627 180.479C591.997 180.189 592.401 179.987 592.838 179.873C593.278 179.756 593.711 179.697 594.137 179.697C594.408 179.697 594.72 179.73 595.072 179.796C595.428 179.859 595.771 179.989 596.102 180.187C596.436 180.385 596.713 180.684 596.933 181.084C597.153 181.484 597.263 182.02 597.263 182.691V188.262H595.964V187.117H595.898C595.81 187.3 595.663 187.497 595.458 187.706C595.252 187.915 594.979 188.093 594.638 188.24C594.296 188.386 593.88 188.46 593.388 188.46ZM593.586 187.293C594.1 187.293 594.533 187.192 594.885 186.99C595.241 186.788 595.509 186.528 595.689 186.209C595.872 185.889 595.964 185.554 595.964 185.201V184.012C595.909 184.078 595.788 184.139 595.601 184.194C595.417 184.245 595.205 184.291 594.962 184.332C594.724 184.368 594.491 184.401 594.263 184.431C594.039 184.456 593.858 184.478 593.718 184.497C593.381 184.541 593.065 184.612 592.772 184.711C592.482 184.807 592.247 184.952 592.067 185.146C591.891 185.337 591.803 185.598 591.803 185.928C591.803 186.379 591.97 186.721 592.304 186.952C592.641 187.179 593.069 187.293 593.586 187.293ZM603.416 179.807V180.908H599.035V179.807H603.416ZM600.312 177.782H601.611V185.84C601.611 186.207 601.664 186.482 601.77 186.665C601.88 186.845 602.02 186.966 602.188 187.029C602.361 187.087 602.543 187.117 602.733 187.117C602.876 187.117 602.994 187.109 603.086 187.095C603.177 187.076 603.251 187.062 603.306 187.051L603.57 188.218C603.482 188.251 603.359 188.284 603.201 188.317C603.043 188.353 602.843 188.372 602.601 188.372C602.234 188.372 601.875 188.293 601.522 188.135C601.174 187.977 600.884 187.737 600.653 187.414C600.425 187.091 600.312 186.684 600.312 186.192V177.782ZM608.929 188.438C608.114 188.438 607.411 188.258 606.821 187.898C606.234 187.535 605.78 187.029 605.461 186.379C605.146 185.726 604.988 184.967 604.988 184.1C604.988 183.234 605.146 182.471 605.461 181.811C605.78 181.147 606.224 180.629 606.793 180.259C607.366 179.884 608.033 179.697 608.797 179.697C609.237 179.697 609.672 179.77 610.101 179.917C610.531 180.064 610.921 180.303 611.274 180.633C611.626 180.959 611.907 181.392 612.116 181.932C612.325 182.471 612.43 183.135 612.43 183.924V184.475H605.912V183.352H611.109C611.109 182.875 611.013 182.449 610.822 182.075C610.635 181.701 610.367 181.405 610.019 181.189C609.674 180.972 609.266 180.864 608.797 180.864C608.279 180.864 607.832 180.992 607.454 181.249C607.079 181.502 606.791 181.833 606.59 182.24C606.388 182.647 606.287 183.084 606.287 183.55V184.299C606.287 184.937 606.397 185.478 606.617 185.922C606.841 186.363 607.151 186.699 607.547 186.93C607.944 187.157 608.404 187.271 608.929 187.271C609.27 187.271 609.578 187.223 609.854 187.128C610.132 187.029 610.373 186.882 610.575 186.688C610.776 186.489 610.932 186.243 611.042 185.95L612.297 186.302C612.165 186.728 611.943 187.102 611.631 187.425C611.319 187.744 610.934 187.994 610.476 188.174C610.017 188.35 609.501 188.438 608.929 188.438ZM618.975 188.262V179.807H620.23V181.128H620.34C620.516 180.677 620.8 180.326 621.193 180.077C621.586 179.824 622.057 179.697 622.608 179.697C623.165 179.697 623.63 179.824 624 180.077C624.375 180.326 624.666 180.677 624.875 181.128H624.963C625.18 180.692 625.505 180.345 625.938 180.088C626.371 179.827 626.89 179.697 627.495 179.697C628.251 179.697 628.87 179.934 629.35 180.407C629.831 180.877 630.071 181.609 630.071 182.603V188.262H628.772V182.603C628.772 181.98 628.602 181.534 628.261 181.266C627.919 180.998 627.517 180.864 627.055 180.864C626.461 180.864 626 181.044 625.674 181.403C625.347 181.759 625.184 182.211 625.184 182.757V188.262H623.863V182.471C623.863 181.991 623.707 181.603 623.395 181.31C623.083 181.013 622.681 180.864 622.189 180.864C621.852 180.864 621.536 180.954 621.243 181.134C620.953 181.314 620.718 181.563 620.538 181.882C620.362 182.198 620.274 182.563 620.274 182.978V188.262H618.975ZM633.085 191.432C632.865 191.432 632.669 191.414 632.496 191.377C632.324 191.344 632.205 191.311 632.139 191.278L632.469 190.133C632.784 190.214 633.063 190.243 633.306 190.221C633.548 190.199 633.762 190.091 633.95 189.896C634.14 189.706 634.315 189.396 634.472 188.966L634.715 188.306L631.588 179.807H632.997L635.331 186.544H635.419L637.753 179.807H639.162L635.573 189.495C635.412 189.931 635.212 190.293 634.973 190.579C634.735 190.869 634.458 191.084 634.142 191.223C633.83 191.362 633.478 191.432 633.085 191.432ZM648.991 188.438C648.176 188.438 647.473 188.258 646.883 187.898C646.295 187.535 645.842 187.029 645.523 186.379C645.207 185.726 645.05 184.967 645.05 184.1C645.05 183.234 645.207 182.471 645.523 181.811C645.842 181.147 646.286 180.629 646.855 180.259C647.428 179.884 648.095 179.697 648.859 179.697C649.299 179.697 649.734 179.77 650.163 179.917C650.592 180.064 650.983 180.303 651.336 180.633C651.688 180.959 651.969 181.392 652.178 181.932C652.387 182.471 652.491 183.135 652.491 183.924V184.475H645.974V183.352H651.17C651.17 182.875 651.075 182.449 650.884 182.075C650.697 181.701 650.429 181.405 650.081 181.189C649.736 180.972 649.328 180.864 648.859 180.864C648.341 180.864 647.894 180.992 647.516 181.249C647.141 181.502 646.853 181.833 646.651 182.24C646.45 182.647 646.349 183.084 646.349 183.55V184.299C646.349 184.937 646.459 185.478 646.679 185.922C646.903 186.363 647.213 186.699 647.609 186.93C648.005 187.157 648.466 187.271 648.991 187.271C649.332 187.271 649.64 187.223 649.915 187.128C650.194 187.029 650.435 186.882 650.636 186.688C650.838 186.489 650.994 186.243 651.104 185.95L652.359 186.302C652.227 186.728 652.005 187.102 651.693 187.425C651.381 187.744 650.996 187.994 650.537 188.174C650.079 188.35 649.563 188.438 648.991 188.438ZM660.561 181.701L659.394 182.031C659.321 181.836 659.213 181.647 659.069 181.464C658.93 181.277 658.739 181.123 658.497 181.002C658.255 180.881 657.945 180.82 657.567 180.82C657.049 180.82 656.618 180.939 656.273 181.178C655.932 181.413 655.761 181.712 655.761 182.075C655.761 182.398 655.879 182.653 656.114 182.84C656.348 183.027 656.715 183.183 657.214 183.308L658.469 183.616C659.225 183.8 659.789 184.08 660.159 184.458C660.53 184.833 660.715 185.315 660.715 185.906C660.715 186.39 660.576 186.823 660.297 187.205C660.022 187.587 659.636 187.887 659.141 188.108C658.646 188.328 658.069 188.438 657.413 188.438C656.55 188.438 655.837 188.251 655.271 187.876C654.706 187.502 654.349 186.955 654.198 186.236L655.431 185.928C655.549 186.383 655.771 186.724 656.097 186.952C656.427 187.179 656.859 187.293 657.391 187.293C657.996 187.293 658.477 187.165 658.833 186.908C659.192 186.647 659.372 186.335 659.372 185.972C659.372 185.678 659.269 185.433 659.064 185.234C658.858 185.033 658.543 184.882 658.117 184.783L656.708 184.453C655.934 184.269 655.365 183.985 655.002 183.6C654.642 183.211 654.462 182.724 654.462 182.141C654.462 181.664 654.596 181.242 654.864 180.875C655.136 180.508 655.504 180.22 655.971 180.011C656.44 179.802 656.972 179.697 657.567 179.697C658.403 179.697 659.06 179.881 659.537 180.248C660.018 180.614 660.359 181.099 660.561 181.701ZM666.452 179.807V180.908H662.071V179.807H666.452ZM663.348 177.782H664.647V185.84C664.647 186.207 664.7 186.482 664.807 186.665C664.917 186.845 665.056 186.966 665.225 187.029C665.397 187.087 665.579 187.117 665.77 187.117C665.913 187.117 666.03 187.109 666.122 187.095C666.214 187.076 666.287 187.062 666.342 187.051L666.606 188.218C666.518 188.251 666.395 188.284 666.238 188.317C666.08 188.353 665.88 188.372 665.638 188.372C665.271 188.372 664.911 188.293 664.559 188.135C664.21 187.977 663.92 187.737 663.689 187.414C663.462 187.091 663.348 186.684 663.348 186.192V177.782ZM668.511 188.262V179.807H669.81V188.262H668.511ZM669.172 178.398C668.919 178.398 668.7 178.312 668.517 178.139C668.337 177.967 668.247 177.76 668.247 177.517C668.247 177.275 668.337 177.068 668.517 176.895C668.7 176.723 668.919 176.637 669.172 176.637C669.425 176.637 669.642 176.723 669.821 176.895C670.005 177.068 670.097 177.275 670.097 177.517C670.097 177.76 670.005 177.967 669.821 178.139C669.642 178.312 669.425 178.398 669.172 178.398ZM672.295 188.262V179.807H673.549V181.128H673.66C673.836 180.677 674.12 180.326 674.513 180.077C674.905 179.824 675.377 179.697 675.927 179.697C676.485 179.697 676.949 179.824 677.32 180.077C677.694 180.326 677.986 180.677 678.195 181.128H678.283C678.5 180.692 678.824 180.345 679.257 180.088C679.69 179.827 680.21 179.697 680.815 179.697C681.571 179.697 682.189 179.934 682.67 180.407C683.151 180.877 683.391 181.609 683.391 182.603V188.262H682.092V182.603C682.092 181.98 681.921 181.534 681.58 181.266C681.239 180.998 680.837 180.864 680.375 180.864C679.78 180.864 679.32 181.044 678.993 181.403C678.667 181.759 678.503 182.211 678.503 182.757V188.262H677.182V182.471C677.182 181.991 677.026 181.603 676.714 181.31C676.403 181.013 676.001 180.864 675.509 180.864C675.171 180.864 674.856 180.954 674.562 181.134C674.272 181.314 674.038 181.563 673.858 181.882C673.682 182.198 673.594 182.563 673.594 182.978V188.262H672.295ZM688.359 188.46C687.823 188.46 687.337 188.359 686.9 188.157C686.464 187.952 686.117 187.656 685.86 187.271C685.603 186.882 685.475 186.412 685.475 185.862C685.475 185.377 685.57 184.985 685.761 184.684C685.952 184.379 686.207 184.141 686.526 183.968C686.845 183.796 687.198 183.667 687.583 183.583C687.972 183.495 688.363 183.425 688.755 183.374C689.269 183.308 689.686 183.258 690.005 183.225C690.328 183.189 690.563 183.128 690.709 183.044C690.86 182.959 690.935 182.812 690.935 182.603V182.559C690.935 182.016 690.786 181.594 690.489 181.293C690.196 180.992 689.75 180.842 689.152 180.842C688.532 180.842 688.045 180.978 687.693 181.249C687.341 181.521 687.093 181.811 686.95 182.119L685.717 181.679C685.937 181.165 686.231 180.765 686.598 180.479C686.968 180.189 687.372 179.987 687.809 179.873C688.249 179.756 688.682 179.697 689.108 179.697C689.379 179.697 689.691 179.73 690.043 179.796C690.399 179.859 690.742 179.989 691.073 180.187C691.407 180.385 691.684 180.684 691.904 181.084C692.124 181.484 692.234 182.02 692.234 182.691V188.262H690.935V187.117H690.869C690.781 187.3 690.634 187.497 690.429 187.706C690.223 187.915 689.95 188.093 689.609 188.24C689.267 188.386 688.851 188.46 688.359 188.46ZM688.557 187.293C689.071 187.293 689.504 187.192 689.856 186.99C690.212 186.788 690.48 186.528 690.66 186.209C690.843 185.889 690.935 185.554 690.935 185.201V184.012C690.88 184.078 690.759 184.139 690.572 184.194C690.388 184.245 690.176 184.291 689.933 184.332C689.695 184.368 689.462 184.401 689.234 184.431C689.01 184.456 688.829 184.478 688.689 184.497C688.352 184.541 688.036 184.612 687.743 184.711C687.453 184.807 687.218 184.952 687.038 185.146C686.862 185.337 686.774 185.598 686.774 185.928C686.774 186.379 686.941 186.721 687.275 186.952C687.612 187.179 688.04 187.293 688.557 187.293ZM698.387 179.807V180.908H694.005V179.807H698.387ZM695.282 177.782H696.581V185.84C696.581 186.207 696.635 186.482 696.741 186.665C696.851 186.845 696.991 186.966 697.159 187.029C697.332 187.087 697.514 187.117 697.704 187.117C697.847 187.117 697.965 187.109 698.057 187.095C698.148 187.076 698.222 187.062 698.277 187.051L698.541 188.218C698.453 188.251 698.33 188.284 698.172 188.317C698.014 188.353 697.814 188.372 697.572 188.372C697.205 188.372 696.846 188.293 696.493 188.135C696.145 187.977 695.855 187.737 695.624 187.414C695.396 187.091 695.282 186.684 695.282 186.192V177.782ZM703.9 188.438C703.085 188.438 702.382 188.258 701.792 187.898C701.205 187.535 700.751 187.029 700.432 186.379C700.116 185.726 699.959 184.967 699.959 184.1C699.959 183.234 700.116 182.471 700.432 181.811C700.751 181.147 701.195 180.629 701.764 180.259C702.337 179.884 703.004 179.697 703.768 179.697C704.208 179.697 704.643 179.77 705.072 179.917C705.501 180.064 705.892 180.303 706.245 180.633C706.597 180.959 706.878 181.392 707.087 181.932C707.296 182.471 707.4 183.135 707.4 183.924V184.475H700.883V183.352H706.079C706.079 182.875 705.984 182.449 705.793 182.075C705.606 181.701 705.338 181.405 704.99 181.189C704.645 180.972 704.237 180.864 703.768 180.864C703.25 180.864 702.803 180.992 702.425 181.249C702.05 181.502 701.762 181.833 701.56 182.24C701.359 182.647 701.258 183.084 701.258 183.55V184.299C701.258 184.937 701.368 185.478 701.588 185.922C701.812 186.363 702.122 186.699 702.518 186.93C702.914 187.157 703.375 187.271 703.9 187.271C704.241 187.271 704.549 187.223 704.824 187.128C705.103 187.029 705.344 186.882 705.546 186.688C705.747 186.489 705.903 186.243 706.013 185.95L707.268 186.302C707.136 186.728 706.914 187.102 706.602 187.425C706.29 187.744 705.905 187.994 705.446 188.174C704.988 188.35 704.472 188.438 703.9 188.438Z" fill="#0B3721"/>
</svg>
